SplineFontDB: 3.2
FontName: twoweekendgo-bold
FullName: Two Weekend Go Bold
FamilyName: Two Weekend Go
Weight: Bold
Copyright: Copyright (c) 2023, CtrlSTheWorld
UComments: "(c) Copyright 2023 by CtrlSTheWorld.+AAoA-Created with FontForge (http://fontforge.org)"
Version: 0.1
ItalicAngle: 0
UnderlinePosition: -500
UnderlineWidth: 50
Ascent: 800
Descent: 200
InvalidEm: 0
LayerCount: 2
Layer: 0 0 "Back" 1
Layer: 1 0 "Fore" 0
HasVMetrics: 1
XUID: [1021 519 -1351378580 18688]
StyleMap: 0x0000
FSType: 0
OS2Version: 0
OS2_WeightWidthSlopeOnly: 0
OS2_UseTypoMetrics: 1
CreationTime: 1664896815
ModificationTime: 1677906700
PfmFamily: 33
TTFWeight: 700
TTFWidth: 5
LineGap: 90
VLineGap: 90
OS2TypoAscent: 0
OS2TypoAOffset: 1
OS2TypoDescent: 0
OS2TypoDOffset: 1
OS2TypoLinegap: 90
OS2WinAscent: 0
OS2WinAOffset: 1
OS2WinDescent: 0
OS2WinDOffset: 1
HheadAscent: 0
HheadAOffset: 1
HheadDescent: 0
HheadDOffset: 1
OS2XHeight: 600
OS2Vendor: 'PfEd'
Lookup: 1 0 0 "'zero' Slashed Zero in Latin lookup 2" { "'zero' Slashed Zero"  } ['zero' ('DFLT' <'dflt' > 'latn' <'dflt' > ) ]
Lookup: 258 0 0 "'kern' horizontal kerning lookup" { "'kern' ASCII letter to ASCII letter" [150,15,2] "'kern' multi-symbols" [150,15,2] } ['kern' ('DFLT' <'dflt' > 'latn' <'dflt' > ) ]
MarkAttachClasses: 1
DEI: 91125
LangName: 1033
Encoding: ISO8859-1
UnicodeInterp: none
NameList: AGL For New Fonts
DisplaySize: -48
AntiAlias: 1
FitToEm: 0
WidthSeparation: 150
WinInfo: 0 39 14
BeginPrivate: 0
EndPrivate
Grid
-850 811.583984375 m 0
 1700 811.583984375 l 1024
-850 600 m 0
 1700 600 l 1024
  Named: "the x-height"
EndSplineSet
TeXData: 1 0 0 503316 251658 167772 0 1048576 167772 783286 444596 497025 792723 393216 433062 380633 303038 157286 324010 404750 52429 2506097 1059062 262144
AnchorClass2: "top""" 
BeginChars: 276 203

StartChar: zero
Encoding: 48 48 0
Width: 846
Flags: W
HStem: -12.1963 133.524<251.618 593.265> 674.443 133.886<251.686 592.076>
VStem: 74.0088 141.914<156.909 638.706> 630.446 141.914<157.056 636.843>
LayerCount: 2
UndoRedoHistory
Layer: 1
Undoes
UndoOperation
Index: 0
Type: 12
WasModified: 0
WasOrder2: 0
Layer: 0
EndUndoOperation
EndUndoes
Redoes
EndRedoes
EndUndoRedoHistory
Fore
SplineSet
557.28441775 666.852539062 m 4
 529.723189883 671.545898438 476.50824682 674.443359375 424.112561235 674.443359375 c 4
 370.999003329 674.443359375 316.831530363 671.577148438 289.087155116 666.853515625 c 4
 253.854177833 660.85546875 234.304830231 643.399414062 229.941180372 618.706054688 c 4
 218.385725346 552.744140625 215.923047179 491.008789062 215.923047179 397.17578125 c 4
 215.923047179 304.3671875 218.387360591 242.60546875 229.945268483 176.637695312 c 4
 238.802570138 126.518554688 298.276411398 121.328125 423.692303407 121.328125 c 4
 547.751760131 121.328125 607.56573224 126.505859375 616.427122006 176.65625 c 4
 627.985029898 242.624023438 630.446072821 304.3671875 630.446072821 397.17578125 c 4
 630.446072821 491.008789062 627.980124165 552.764648438 616.423851517 618.725585938 c 4
 612.061019279 643.41796875 592.519030278 660.85546875 557.28441775 666.852539062 c 4
100.84375 108.94140625 m 4
 74.0146484375 174.719726562 74.0087890625 280.442382812 74.0087890625 396.71484375 c 4
 74.0087890625 632.389648438 83.20703125 760.810546875 238.022558527 795.469726562 c 4
 275.512173174 805.11328125 348.790748224 808.329101562 424.112561235 808.329101562 c 4
 580.235891466 808.329101562 705.2988475 803.475585938 744.600605312 688.697265625 c 4
 767.893574062 620.671875 772.360370938 514.99609375 772.360370938 397.600585938 c 4
 772.360370938 138.298828125 755.291035 27.5087890625 607.09314659 -0.072265625 c 4
 559.686591872 -10.517578125 492.972705735 -12.1962890625 423.815764364 -12.1962890625 c 4
 421.341639486 -12.1962890625 418.880596563 -12.1962890625 416.432635596 -12.1962890625 c 4
 263.260921629 -12.1962890625 149.865234375 -11.2509765625 100.84375 108.94140625 c 4
EndSplineSet
Validated: 1
Substitution2: "'zero' Slashed Zero" zero.slash
EndChar

StartChar: one
Encoding: 49 49 1
Width: 877
Flags: W
HStem: 0 135<110.156 382.38 549.322 787.513> 785 20G<441.636 481.117>
VStem: 382.38 166.942<135 657.703>
LayerCount: 2
UndoRedoHistory
Layer: 1
Undoes
UndoOperation
Index: 0
Type: 12
WasModified: 0
WasOrder2: 0
Layer: 0
EndUndoOperation
EndUndoes
Redoes
EndRedoes
EndUndoRedoHistory
Fore
SplineSet
549.322008732 728.198242188 m 2
 549.322008732 135 l 1
 787.5134 135 l 1
 787.5134 0 l 1
 110.15625 0 l 1
 110.15625 135 l 1
 382.380391108 135 l 1
 382.380391108 657.703125 l 1
 135.225585938 565.928710938 l 1
 90 681.6640625 l 1
 385.806605816 794.239257812 l 2
 409.351454894 802.434570312 430.317675135 805 452.95344481 805 c 0
 509.28152148 805 549.322008732 769.1171875 549.322008732 728.198242188 c 2
EndSplineSet
Validated: 1
EndChar

StartChar: two
Encoding: 50 50 2
Width: 846
Flags: W
HStem: 0 135<238.078 771.947> 676.443 131.886<262.661 601.464>
VStem: 84.6016 153.476<135 247.361 551.824 651.81> 627.9 134.156<511.777 648.275>
LayerCount: 2
UndoRedoHistory
Layer: 1
Undoes
UndoOperation
Index: 0
Type: 12
WasModified: 0
WasOrder2: 0
Layer: 0
EndUndoOperation
EndUndoes
Redoes
EndRedoes
EndUndoRedoHistory
Fore
SplineSet
238.077948929 135 m 1
 771.94677 135 l 1
 771.94677 0 l 1
 84.154296875 0 l 1
 84.6015625 12.4775390625 l 2
 91.1162109375 194.291992188 93.783203125 297.834960938 178.193359375 364.809570312 c 0
 253.608431239 425.740234375 328.696566328 441.17578125 407.559931666 453.125 c 0
 451.090447439 459.720703125 500.844283819 468.61328125 540.679754119 480.365234375 c 0
 572.569567514 489.772460938 597.470213853 502.275390625 605.305412135 509.861328125 c 0
 617.560591738 521.7265625 627.900337008 542.731445312 627.900337008 582.776367188 c 0
 627.900337008 634.583984375 611.970567233 660.5390625 564.716368567 668.7109375 c 0
 537.072257333 673.493164062 483.710924166 676.443359375 431.171894077 676.443359375 c 0
 377.927565229 676.443359375 323.608105789 673.193359375 295.871536597 667.86328125 c 0
 260.90770065 661.146484375 240.98587444 641.690429688 236.038642707 612.706054688 c 0
 233.310928392 598.764648438 232.759658045 595.6640625 224.164340798 532.293945312 c 1
 82 552.459960938 l 1
 91.025390625 623.76953125 96.15234375 664.2734375 120.572265625 707.926757812 c 0
 145.095703125 751.765625 185.764648438 781.509765625 244.55409705 795.079101562 c 0
 282.129665757 805.009765625 355.623105622 808.329101562 431.171894077 808.329101562 c 0
 524.453791594 808.329101562 583.388785026 803.943359375 614.13064696 794.034179688 c 0
 762.058098125 751.715820312 762.058098125 650.244140625 762.058098125 589.712890625 c 0
 762.056145 583.885742188 l 2
 762.056145 453.326171875 688.808098125 384.560546875 508.416836044 353.96484375 c 0
 392.001630147 334.404296875 332.324518414 324.377929688 296.766660544 299.354492188 c 0
 259.874298872 273.392578125 245.415674305 239.961914062 238.077948929 135 c 1
EndSplineSet
Validated: 1
EndChar

StartChar: three
Encoding: 51 51 3
Width: 845
Flags: W
HStem: -12.1963 133.524<255.72 596.095> 359.5 125<239.779 582.955> 674.443 133.886<266.994 582.587>
VStem: 98.125 135.832<564.769 644.571> 613.011 136.043<512.524 646.259> 624.92 140.779<148.301 332.048>
LayerCount: 2
UndoRedoHistory
Layer: 1
Undoes
UndoOperation
Index: 0
Type: 12
WasModified: 0
WasOrder2: 0
Layer: 0
HStem: -12.1963 133.524<255.594 596.025> 359.5 125<403.359 583.356> 674.443 133.886<266.994 583.27>
VStem: 98.125 135.832<564.769 644.571> 613.011 136.043<512.524 647.67> 624.92 140.779<148.698 332.989>
CopiedFrom: Two Weekend Go Bold
EndUndoOperation
UndoOperation
Index: 1
Type: 1
WasModified: 0
WasOrder2: 0
Layer: 2
Width: 845
VWidth: 1000
LBearingChange: 0
UnicodeEnc: 0
InstructionsLength: 0
SplineSet
403.359182554 359.5 m 2
 594.915428706 359.5 624.920265244 353.673157257 624.920265244 254.28515625 c 0
 624.920265244 198.26171875 620.386128439 167.783203125 610.04683186 154.302734375 c 0
 600.312790363 141.609375 570.69788027 121.328125 421.606927151 121.328125 c 0
 262.056506636 121.328125 231.143402637 144.427908598 226.928554282 186.14453125 c 2
 219.563934919 259.036132812 l 1
 87.845703125 241.178710938 l 1xf4
 87.845703125 196.860289957 87.845703125 141.610568315 114.650390625 89.951171875 c 0
 162.670898438 -2.5830078125 246.965036501 -12.1962890625 421.731418048 -12.1962890625 c 0
 491.84677424 -12.1962890625 558.917141304 -12.1962890625 607.745388309 0.931640625 c 0
 765.394091228 37.9619140625 765.698778728 176.553710938 765.698778728 250.0703125 c 0
 765.698778728 285.592149021 765.698778728 370.214951602 699.788622478 430.03515625 c 1
 724.553270916 457.1015625 749.054247478 503.677734375 749.054247478 587.490234375 c 0
 749.054247478 663.864257812 730.389208416 698.850585938 719.919481853 714.15625 c 0
 659.985888103 801.788085938 552.065196715 808.329101562 422.029540985 808.329101562 c 0
 242.246667712 808.329101562 173.474609375 794.609375 119.96484375 687.18359375 c 0
 103.645507812 654.422851562 102.173828125 630.7734375 98.125 565.697265625 c 1
 233.957375833 547.678710938 l 1
 235.885346694 588.0078125 l 2
 239.060683578 654.486328125 267.013804005 674.443359375 422.029540985 674.443359375 c 0
 588.48588281 674.443359375 613.010861828 650.704831027 613.010861828 586.360351562 c 0xf8
 613.010861828 534.208007812 605.922251887 519.159179688 585.629416704 507.524414062 c 0
 564.408632929 495.358398438 517.489488192 484.969726562 432.105932446 484.5 c 2
 239.778963292 484.5 l 1
 239.778963292 359.5 l 1
 403.359182554 359.5 l 2
EndSplineSet
EndUndoOperation
UndoOperation
Index: 2
Type: 1
WasModified: 0
WasOrder2: 0
Layer: 2
Width: 845
VWidth: 1000
LBearingChange: 0
UnicodeEnc: 0
InstructionsLength: 0
SplineSet
87.845703125 241.178710938 m 1xf4
 87.845703125 240.853515625 87.814867654 231.942233061 87.8984375 208.624023438 c 0
 88.08203125 157.396484375 103.333984375 111.760742188 114.650390625 89.951171875 c 0
 162.670898438 -2.5830078125 246.965036501 -12.1962890625 421.731418048 -12.1962890625 c 0
 491.84677424 -12.1962890625 558.917141304 -12.1962890625 607.745388309 0.931640625 c 4
 765.394091228 37.9619140625 765.698778728 176.553710938 765.698778728 250.0703125 c 0
 765.698778728 293.361255507 762.695729136 327.186588163 745.800341228 365.095703125 c 0
 735.154833416 388.983398438 720.303270916 411.416015625 699.788622478 430.03515625 c 1
 724.553270916 457.1015625 749.054247478 503.677734375 749.054247478 587.490234375 c 0
 749.054247478 663.864257812 730.389208416 698.850585938 719.919481853 714.15625 c 0
 659.985888103 801.788085938 552.065196715 808.329101562 422.029540985 808.329101562 c 0
 242.246667712 808.329101562 173.474609375 794.609375 119.96484375 687.18359375 c 0
 103.645507812 654.422851562 102.173828125 630.7734375 98.125 565.697265625 c 1
 233.957375833 547.678710938 l 1
 235.885346694 588.0078125 l 2
 239.060683578 654.486328125 267.013804005 674.443359375 422.029540985 674.443359375 c 0
 487.797590306 674.443359375 536.894506717 670.576171875 566.44061921 660.353515625 c 0
 595.456826373 650.314453125 613.010861828 634.701171875 613.010861828 586.360351562 c 0xf8
 613.010861828 534.208007812 605.922251887 519.159179688 585.629416704 507.524414062 c 0
 564.408632929 495.358398438 517.489488192 484.969726562 432.105932446 484.5 c 2
 239.778963292 484.5 l 1
 239.778963292 359.5 l 1
 403.359182554 359.5 l 2
 483.956390928 359.5 541.85202907 358.298828125 574.918285472 348.420898438 c 0
 600.946711114 340.645507812 624.920265244 329.395507812 624.920265244 254.28515625 c 0
 624.920265244 198.26171875 620.386128439 167.783203125 610.04683186 154.302734375 c 0
 600.312790363 141.609375 570.69788027 121.328125 421.606927151 121.328125 c 0
 366.296932172 121.328125 323.906962822 124.243164062 286.291055558 131.448242188 c 0
 251.340236306 138.141601562 229.842270662 157.305912039 226.928554282 186.14453125 c 2
 219.563934919 259.036132812 l 1
 87.845703125 241.178710938 l 1xf4
EndSplineSet
EndUndoOperation
UndoOperation
Index: 3
Type: 1
WasModified: 0
WasOrder2: 0
Layer: 2
Width: 845
VWidth: 1000
LBearingChange: 0
UnicodeEnc: 0
InstructionsLength: 0
SplineSet
87.845703125 241.178710938 m 1xf4
 87.845703125 240.853515625 87.814867654 231.942233061 87.8984375 208.624023438 c 0
 88.08203125 157.396484375 103.333984375 111.760742188 114.650390625 89.951171875 c 0
 162.670898438 -2.5830078125 246.965036501 -12.1962890625 421.731418048 -12.1962890625 c 0
 422.374348008 -12.1962890625 423.016458949 -12.1962890625 423.659388909 -12.1962890625 c 4
 492.135934253 -12.1962890625 559.14234039 -12.1357421875 607.745388309 0.931640625 c 0
 765.394091228 37.9619140625 765.698778728 176.553710938 765.698778728 250.0703125 c 0
 765.698778728 293.361255507 762.695729136 327.186588163 745.800341228 365.095703125 c 0
 735.154833416 388.983398438 720.303270916 411.416015625 699.788622478 430.03515625 c 1
 724.553270916 457.1015625 749.054247478 503.677734375 749.054247478 587.490234375 c 0
 749.054247478 663.864257812 730.389208416 698.850585938 719.919481853 714.15625 c 0
 659.985888103 801.788085938 552.065196715 808.329101562 422.029540985 808.329101562 c 0
 242.246667712 808.329101562 173.474609375 794.609375 119.96484375 687.18359375 c 0
 103.645507812 654.422851562 102.173828125 630.7734375 98.125 565.697265625 c 1
 233.957375833 547.678710938 l 1
 235.885346694 588.0078125 l 2
 239.060683578 654.486328125 267.013804005 674.443359375 422.029540985 674.443359375 c 0
 487.797590306 674.443359375 536.894506717 670.576171875 566.44061921 660.353515625 c 0
 595.456826373 650.314453125 613.010861828 634.701171875 613.010861828 586.360351562 c 0xf8
 613.010861828 534.208007812 605.922251887 519.159179688 585.629416704 507.524414062 c 0
 564.408632929 495.358398438 517.489488192 484.969726562 432.105932446 484.5 c 2
 239.778963292 484.5 l 1
 239.778963292 359.5 l 1
 403.359182554 359.5 l 2
 483.956390928 359.5 541.85202907 358.298828125 574.918285472 348.420898438 c 0
 600.946711114 340.645507812 624.920265244 329.395507812 624.920265244 254.28515625 c 0
 624.920265244 198.26171875 620.386128439 167.783203125 610.04683186 154.302734375 c 0
 600.312790363 141.609375 570.69788027 121.328125 421.606927151 121.328125 c 0
 366.296932172 121.328125 323.906962822 124.243164062 286.291055558 131.448242188 c 0
 251.340236306 138.141601562 229.842270662 157.305912039 226.928554282 186.14453125 c 2
 219.563934919 259.036132812 l 1
 87.845703125 241.178710938 l 1xf4
EndSplineSet
EndUndoOperation
UndoOperation
Index: 4
Type: 1
WasModified: 1
WasOrder2: 0
Layer: 2
Width: 845
VWidth: 1000
LBearingChange: 0
UnicodeEnc: 0
InstructionsLength: 0
SplineSet
87.845703125 241.178710938 m 1xf4
 87.845703125 240.853515625 87.814867654 231.942233061 87.8984375 208.624023438 c 0
 88.08203125 157.396484375 103.333984375 111.760742188 114.650390625 89.951171875 c 0
 162.670898438 -2.5830078125 246.965036501 -12.1962890625 421.731418048 -12.1962890625 c 0
 422.374348008 -12.1962890625 423.016458949 -12.1962890625 423.659388909 -12.1962890625 c 0
 492.135934253 -12.1962890625 559.14234039 -12.1357421875 607.745388309 0.931640625 c 0
 765.394091228 37.9619140625 765.698778728 176.553710938 765.698778728 250.0703125 c 2
 765.698778728 254.446289062 765.698778728 255.2265625 765.698778728 250.874023438 c 6xf4
 765.698778728 295.3125 762.142138103 328.428710938 745.800341228 365.095703125 c 0
 735.154833416 388.983398438 720.303270916 411.416015625 699.788622478 430.03515625 c 1
 724.553270916 457.1015625 749.054247478 503.677734375 749.054247478 587.490234375 c 0
 749.054247478 663.864257812 730.389208416 698.850585938 719.919481853 714.15625 c 0
 659.985888103 801.788085938 552.065196715 808.329101562 422.029540985 808.329101562 c 0
 242.246667712 808.329101562 173.474609375 794.609375 119.96484375 687.18359375 c 0
 103.645507812 654.422851562 102.173828125 630.7734375 98.125 565.697265625 c 1
 233.957375833 547.678710938 l 1
 235.885346694 588.0078125 l 2
 239.060683578 654.486328125 267.013804005 674.443359375 422.029540985 674.443359375 c 0
 487.797590306 674.443359375 536.894506717 670.576171875 566.44061921 660.353515625 c 0
 595.456826373 650.314453125 613.010861828 634.701171875 613.010861828 586.360351562 c 0xf8
 613.010861828 534.208007812 605.922251887 519.159179688 585.629416704 507.524414062 c 0
 564.408632929 495.358398438 517.489488192 484.969726562 432.105932446 484.5 c 2
 239.778963292 484.5 l 1
 239.778963292 359.5 l 1
 403.359182554 359.5 l 2
 483.956390928 359.5 541.85202907 358.298828125 574.918285472 348.420898438 c 0
 600.946711114 340.645507812 624.920265244 329.395507812 624.920265244 254.28515625 c 0
 624.920265244 198.26171875 620.386128439 167.783203125 610.04683186 154.302734375 c 0
 600.312790363 141.609375 570.69788027 121.328125 421.606927151 121.328125 c 0
 366.296932172 121.328125 323.906962822 124.243164062 286.291055558 131.448242188 c 0
 251.340236306 138.141601562 229.842270662 157.305912039 226.928554282 186.14453125 c 2
 219.563934919 259.036132812 l 1
 87.845703125 241.178710938 l 1xf4
EndSplineSet
EndUndoOperation
UndoOperation
Index: 5
Type: 1
WasModified: 1
WasOrder2: 0
Layer: 2
Width: 845
VWidth: 1000
LBearingChange: 0
UnicodeEnc: 0
InstructionsLength: 0
SplineSet
87.845703125 241.178710938 m 1xf4
 87.845703125 240.853515625 87.814867654 231.942233061 87.8984375 208.624023438 c 0
 88.08203125 157.396484375 103.333984375 111.760742188 114.650390625 89.951171875 c 0
 162.670898438 -2.5830078125 246.965036501 -12.1962890625 421.731418048 -12.1962890625 c 0
 422.374348008 -12.1962890625 423.016458949 -12.1962890625 423.659388909 -12.1962890625 c 0
 492.135934253 -12.1962890625 559.14234039 -12.1357421875 607.745388309 0.931640625 c 0
 765.394091228 37.9619140625 765.698778728 176.553710938 765.698778728 250.0703125 c 2
 765.698778728 254.446289062 765.698778728 255.2265625 765.698778728 250.874023438 c 2xf4
 765.698778728 295.3125 762.142138103 328.428710938 745.800341228 365.095703125 c 0
 735.154833416 388.983398438 720.303270916 411.416015625 699.788622478 430.03515625 c 1
 724.553270916 457.1015625 749.054247478 503.677734375 749.054247478 587.490234375 c 0
 749.054247478 663.864257812 730.389208416 698.850585938 719.919481853 714.15625 c 0
 659.985888103 801.788085938 552.065196715 808.329101562 422.029540985 808.329101562 c 0
 242.246667712 808.329101562 173.474609375 794.609375 119.96484375 687.18359375 c 0
 103.645507812 654.422851562 102.173828125 630.7734375 98.125 565.697265625 c 1
 233.957375833 547.678710938 l 1
 235.885346694 588.0078125 l 2
 239.060683578 654.486328125 267.013804005 674.443359375 422.029540985 674.443359375 c 0
 487.797590306 674.443359375 536.894506717 670.576171875 566.44061921 660.353515625 c 0
 595.456826373 650.314453125 613.010861828 634.701171875 613.010861828 586.360351562 c 0xf8
 613.010861828 534.208007812 605.922251887 519.159179688 585.629416704 507.524414062 c 0
 564.408632929 495.358398438 517.489488192 484.969726562 432.105932446 484.5 c 2
 239.778963292 484.5 l 1
 239.778963292 359.5 l 1
 403.359182554 359.5 l 2
 483.956390928 359.5 541.85202907 358.298828125 574.918285472 348.420898438 c 0
 600.946711114 340.645507812 624.920265244 329.395507812 624.920265244 254.28515625 c 0
 624.920265244 198.26171875 620.386128439 167.783203125 610.04683186 154.302734375 c 0
 600.312790363 141.609375 570.69788027 121.328125 421.606927151 121.328125 c 0
 366.296932172 121.328125 323.906962822 124.243164062 286.291055558 131.448242188 c 0
 251.340236306 138.141601562 231.424968907 157.465820312 226.928554282 186.14453125 c 4
 219.563934919 259.036132812 l 1
 87.845703125 241.178710938 l 1xf4
EndSplineSet
EndUndoOperation
UndoOperation
Index: 6
Type: 1
WasModified: 0
WasOrder2: 0
Layer: 2
Width: 845
VWidth: 1000
LBearingChange: 0
UnicodeEnc: 0
InstructionsLength: 0
SplineSet
87.845703125 241.178710938 m 1xf4
 87.845703125 240.853515625 87.814867654 231.942233061 87.8984375 208.624023438 c 0
 88.08203125 157.396484375 103.333984375 111.760742188 114.650390625 89.951171875 c 0
 162.670898438 -2.5830078125 246.965036501 -12.1962890625 421.731418048 -12.1962890625 c 0
 422.374348008 -12.1962890625 423.016458949 -12.1962890625 423.659388909 -12.1962890625 c 0
 492.135934253 -12.1962890625 559.14234039 -12.1357421875 607.745388309 0.931640625 c 0
 765.394091228 37.9619140625 765.698778728 176.553710938 765.698778728 250.0703125 c 2
 765.698778728 254.446289062 765.698778728 255.2265625 765.698778728 250.874023438 c 2xf4
 765.698778728 295.3125 762.142138103 328.428710938 745.800341228 365.095703125 c 0
 735.154833416 388.983398438 720.303270916 411.416015625 699.788622478 430.03515625 c 1
 724.553270916 457.1015625 749.054247478 503.677734375 749.054247478 587.490234375 c 0
 749.054247478 663.864257812 730.389208416 698.850585938 719.919481853 714.15625 c 0
 659.985888103 801.788085938 552.065196715 808.329101562 422.029540985 808.329101562 c 0
 242.246667712 808.329101562 173.474609375 794.609375 119.96484375 687.18359375 c 0
 103.645507812 654.422851562 102.173828125 630.7734375 98.125 565.697265625 c 1
 233.957375833 547.678710938 l 1
 235.885346694 588.0078125 l 2
 239.060683578 654.486328125 267.013804005 674.443359375 422.029540985 674.443359375 c 0
 487.797590306 674.443359375 536.894506717 670.576171875 566.44061921 660.353515625 c 0
 595.456826373 650.314453125 613.010861828 634.701171875 613.010861828 586.360351562 c 0xf8
 613.010861828 534.208007812 605.922251887 519.159179688 585.629416704 507.524414062 c 0
 564.408632929 495.358398438 517.489488192 484.969726562 432.105932446 484.5 c 2
 239.778963292 484.5 l 1
 239.778963292 359.5 l 1
 403.359182554 359.5 l 2
 483.956390928 359.5 541.85202907 358.298828125 574.918285472 348.420898438 c 0
 600.946711114 340.645507812 624.920265244 329.395507812 624.920265244 254.28515625 c 0
 624.920265244 198.26171875 620.386128439 167.783203125 610.04683186 154.302734375 c 0
 600.312790363 141.609375 570.69788027 121.328125 421.606927151 121.328125 c 0
 366.296932172 121.328125 323.906962822 124.243164062 286.291055558 131.448242188 c 0
 251.340236306 138.141601562 231.424968907 157.465820312 226.928554282 186.14453125 c 4
 223.723732711 222.33984375 222.824449786 230.275390625 219.563934919 259.036132812 c 5
 87.845703125 241.178710938 l 1xf4
EndSplineSet
EndUndoOperation
UndoOperation
Index: 7
Type: 12
WasModified: 0
WasOrder2: 0
Layer: 0
EndUndoOperation
EndUndoes
Redoes
EndRedoes
EndUndoRedoHistory
Fore
SplineSet
403.359182554 359.5 m 2xf4
 239.778963292 359.5 l 1
 239.778963292 484.5 l 1
 432.105932446 484.5 l 2
 517.489488192 484.969726562 564.408632929 495.358398438 585.629416704 507.524414062 c 0
 605.922251887 519.159179688 613.010861828 534.208007812 613.010861828 586.360351562 c 0
 613.010861828 650.704831027 588.48588281 674.443359375 422.029540985 674.443359375 c 0
 267.013804005 674.443359375 239.060683578 654.486328125 235.885346694 588.0078125 c 2
 233.957375833 547.678710938 l 1
 98.125 565.697265625 l 1
 102.173828125 630.7734375 103.645507812 654.422851562 119.96484375 687.18359375 c 0
 173.474609375 794.609375 242.246667712 808.329101562 422.029540985 808.329101562 c 0
 552.065196715 808.329101562 659.985888103 801.788085938 719.919481853 714.15625 c 0
 730.389208416 698.850585938 749.054247478 663.864257812 749.054247478 587.490234375 c 0xf8
 749.054247478 503.677734375 724.553270916 457.1015625 699.788622478 430.03515625 c 1
 765.698778728 370.214951602 765.698778728 285.592149021 765.698778728 250.0703125 c 0
 765.698778728 176.553710938 765.394091228 37.9619140625 607.745388309 0.931640625 c 0
 558.917141304 -12.1962890625 491.84677424 -12.1962890625 421.731418048 -12.1962890625 c 0
 246.965036501 -12.1962890625 162.670898438 -2.5830078125 114.650390625 89.951171875 c 0
 87.845703125 141.610568315 87.845703125 196.860289957 87.845703125 241.178710938 c 1
 219.563934919 259.036132812 l 1
 226.928554282 186.14453125 l 2
 231.143402637 144.427908598 262.056506636 121.328125 421.606927151 121.328125 c 0
 570.69788027 121.328125 600.312790363 141.609375 610.04683186 154.302734375 c 0
 620.386128439 167.783203125 624.920265244 198.26171875 624.920265244 254.28515625 c 0
 624.920265244 353.673157257 594.915428706 359.5 403.359182554 359.5 c 2xf4
EndSplineSet
Validated: 524289
EndChar

StartChar: four
Encoding: 52 52 4
Width: 923
Flags: W
HStem: 0 21G<507 651> 148.5 139<269.615 507 651 863.8>
VStem: 507 144<0 148.5 287.5 517.5>
LayerCount: 2
UndoRedoHistory
Layer: 1
Undoes
UndoOperation
Index: 0
Type: 12
WasModified: 0
WasOrder2: 0
Layer: 0
EndUndoOperation
EndUndoes
Redoes
EndRedoes
EndUndoRedoHistory
Fore
SplineSet
651 744.358398438 m 1
 269.614632602 287.5 l 1
 507 287.5 l 1
 507 517.5 l 1
 651 517.5 l 1
 651 287.5 l 1
 863.8 287.5 l 1
 863.8 148.5 l 1
 651 148.5 l 1
 651 0 l 1
 507 0 l 1
 507 148.5 l 1
 174.5 148.5 l 2
 129.479492188 148.5 75 173.161132812 75 231.788085938 c 0
 75 265.487304688 94.95703125 291.786132812 122.065429688 322.265625 c 0
 539 844.000976562 l 1
 651 744.358398438 l 1
EndSplineSet
Validated: 1
EndChar

StartChar: five
Encoding: 53 53 5
Width: 844
Flags: W
HStem: -12.1963 135.524<254.572 599.147> 409.5 134.886<278.935 597.274> 661 139<266.188 747.76>
VStem: 89 136.385<154.397 216.779> 127.961 138.227<528.75 661> 629.802 140.958<154.128 377.974>
LayerCount: 2
UndoRedoHistory
Layer: 1
Undoes
UndoOperation
Index: 0
Type: 12
WasModified: 0
WasOrder2: 0
Layer: 0
EndUndoOperation
EndUndoes
Redoes
EndRedoes
EndUndoRedoHistory
Fore
SplineSet
259.019033545 368.892578125 m 2xf4
 248.863445618 354.5 l 1
 127.9609375 354.5 l 1
 127.9609375 800 l 1
 747.7603375 800 l 1
 747.7603375 661 l 1
 266.188117258 661 l 1
 266.188117258 528.75 l 1xec
 303.331126063 540.969726562 356.407069347 544.385742188 427.253040163 544.385742188 c 0
 588.877113938 544.385742188 694.035728125 536.072265625 745.4165875 428.907226562 c 0
 770.70174375 376.168945312 770.761314062 314.862304688 770.761314062 278.390625 c 0
 770.7603375 274.573242188 l 2
 770.7603375 168.8125 762.312095312 29.2080078125 608.300034014 -0.07421875 c 0
 560.677244393 -10.517578125 493.646270734 -12.1962890625 424.158471654 -12.1962890625 c 2
 416.492455906 -12.1962890625 l 2
 414.589050672 -12.1962890625 412.689738782 -12.1962890625 410.794520238 -12.1962890625 c 0
 260.513922989 -12.1962890625 108.883789062 -12.1962890625 92.103515625 180.205078125 c 2
 89 215.794921875 l 1
 225.384839722 234.9765625 l 1
 230.007044433 177.350585938 230.521987182 170.9375 238.97392509 157.983398438 c 0
 256.467242528 131.172851562 307.253368849 123.328125 424.034033978 123.328125 c 0
 503.205867688 123.328125 567.764461214 126.177734375 598.421974851 143.68359375 c 0
 611.343026382 151.060546875 617.212882524 158.21484375 621.025423674 173.426757812 c 0
 626.174032498 194.247070312 629.802373143 237.099609375 629.802373143 273.828125 c 0
 629.802373143 352.395507812 623.376640806 391.225585938 561.063656122 401.858398438 c 0
 533.36808663 406.583984375 479.900819603 409.5 427.253040163 409.5 c 0
 322.726211397 409.5 282.545122238 402.239257812 259.019033545 368.892578125 c 2xf4
EndSplineSet
Validated: 1
EndChar

StartChar: six
Encoding: 54 54 6
Width: 847
Flags: W
HStem: -12.1963 133.524<257.05 596.44> 420.943 133.886<250.631 594.363> 674.443 133.886<249.705 590.559>
VStem: 73.0088 145.115<159.046 517.504> 627.432 141.944<158.673 389.474>
LayerCount: 2
UndoRedoHistory
Layer: 1
Undoes
UndoOperation
Index: 0
Type: 12
WasModified: 0
WasOrder2: 0
Layer: 0
EndUndoOperation
EndUndoes
Redoes
EndRedoes
EndUndoRedoHistory
Fore
SplineSet
558.185958414 413.266601562 m 0
 530.602455498 418.012695312 477.338578057 420.943359375 424.89418263 420.943359375 c 0
 270.47907203 420.943359375 239.454889635 406.061523438 226.392248173 366.567382812 c 0
 221.063979382 350.458007812 218.123821854 325.877929688 218.123821854 292.239257812 c 0
 218.123821854 232.814453125 225.962878854 195.640625 229.965418756 179.981445312 c 0
 236.583431197 154.091796875 257.241411455 134.185546875 289.745895694 128.592773438 c 0
 326.243105679 122.314453125 368.685240582 121.328125 424.472991774 121.328125 c 0
 489.513856258 121.328125 543.29134119 123.216796875 576.096792876 133.022460938 c 0
 602.627727576 140.951171875 611.888201485 150.16796875 616.67505601 165.2421875 c 0
 624.223777566 189.184570312 627.432245861 245.129882812 627.432245861 268.109375 c 0
 627.432245861 290.194335938 624.303108659 345.112304688 616.59490707 369.985351562 c 0
 610.241058991 390.331054688 592.85282833 407.303710938 558.185958414 413.266601562 c 0
603.625500089 642.499023438 m 0
 588.986868764 661.379882812 552.389881527 674.443359375 424.89418263 674.443359375 c 0
 371.703911358 674.443359375 317.474975257 671.912109375 289.633032902 667.724609375 c 0
 258.089518092 662.983398438 236.18023296 650.602539062 230.22467604 626.73046875 c 0
 224.243765884 601.342773438 219.901001912 573.677734375 217.113787108 531.763671875 c 1
 223.685176846 534.83203125 230.242668659 537.391601562 236.866406025 539.345703125 c 0
 275.449941978 550.732421875 349.296557816 554.829101562 424.89418263 554.829101562 c 0
 513.041659262 554.829101562 610.144553126 553.2109375 671.127061562 520.735351562 c 0
 752.682725625 478.931640625 769.376085 395.393554688 769.376085 271.934570312 c 0
 769.376085 96.017578125 733.793077188 13.486328125 574.89946586 -5.546875 c 0
 533.216292344 -11.240234375 484.089899448 -12.1962890625 424.597304415 -12.1962890625 c 0
 422.117594366 -12.1962890625 419.650969858 -12.1962890625 417.196613044 -12.1962890625 c 0
 263.879870054 -12.1962890625 149.862304688 -11.2490234375 100.842773438 109.048828125 c 0
 73.7734375 175.479492188 73.0087890625 240.872070312 73.0087890625 349.516601562 c 0
 73.0087890625 542.966796875 82.7021484375 641.91015625 104.797851562 692.1015625 c 0
 151.71875 798.68359375 246.197214717 808.329101562 424.89418263 808.329101562 c 0
 622.190611609 808.329101562 721.315538125 791.928710938 753.375108438 648.71484375 c 2
 761.533311562 612.267578125 l 1
 624.500209623 581.057617188 l 1
 611.175039491 631.770507812 610.780837564 633.26953125 603.625500089 642.499023438 c 0
EndSplineSet
Validated: 1
EndChar

StartChar: eight
Encoding: 56 56 7
Width: 850
Flags: W
HStem: -12.1963 133.524<255.095 595.842> 380.943 135.885<256.617 593.714> 674.443 133.886<257.216 593.503>
VStem: 82 143.057<151.072 350.098> 100 139.693<534.456 655.532> 610.33 139.693<532.947 655.371> 624.966 143.057<149.909 350.136>
LayerCount: 2
UndoRedoHistory
Layer: 1
Undoes
UndoOperation
Index: 0
Type: 12
WasModified: 0
WasOrder2: 0
Layer: 0
EndUndoOperation
EndUndoes
Redoes
EndRedoes
EndUndoRedoHistory
Fore
SplineSet
267.200468498 136.376953125 m 0xf2
 296.680767802 123.848632812 349.5507744 121.328125 425.43386881 121.328125 c 0
 500.412257726 121.328125 553.627771761 123.877929688 583.092515043 136.51171875 c 0
 601.792491051 144.530273438 624.966114389 156.208007812 624.966114389 249.036132812 c 0
 624.966114389 291.276367188 617.160203383 320.9609375 611.545298153 336.006835938 c 0
 599.14305487 369.23828125 564.82155775 380.943359375 425.0114 380.943359375 c 0
 285.872607414 380.943359375 250.938694266 369.397460938 238.479139323 336.006835938 c 0
 232.863415355 320.961914062 225.056685611 291.276367188 225.056685611 249.036132812 c 0
 225.056685611 155.984375 248.39405655 144.368164062 267.200468498 136.376953125 c 0xf2
606.601758086 559.784179688 m 0
 608.70837097 565.65234375 610.330290955 584.5078125 610.330290955 596.140625 c 0
 610.330290955 645.032226562 600.24262001 650.91015625 583.734405638 657.9296875 c 0
 561.006238652 667.594726562 511.333403958 674.443359375 425.0114 674.443359375 c 0
 256.538862212 674.443359375 248.995828982 650.182617188 244.26761701 636.887695312 c 0
 241.332441266 628.633789062 239.692509045 614.862304688 239.692509045 596.140625 c 0xec
 239.692509045 562.421875 244.482126367 533.852539062 282.312734573 523.69140625 c 0
 301.024172913 518.666015625 341.312632606 516.828125 425.43386881 516.828125 c 0
 570.134348657 516.828125 592.15430727 519.55859375 606.601758086 559.784179688 c 0
712.291354688 730.037109375 m 0
 722.906589062 715.853515625 750.0228 671.966796875 750.0228 595.693359375 c 0xec
 750.0228 544.712890625 742.377292188 489.995117188 693.385104688 449.737304688 c 1
 719.923190625 431.172851562 744.239596875 401.119140625 758.196628125 342.120117188 c 0
 765.834323438 309.833984375 768.0228 279.030273438 768.0228 258.358398438 c 0
 768.0228 79.376953125 720.137057812 8.4853515625 568.788343378 -6.955078125 c 0
 528.156832462 -11.7763671875 481.092497049 -12.1962890625 425.309420634 -12.1962890625 c 0
 337.205842778 -12.1962890625 247.348528119 -12.1962890625 189.830078125 14.08984375 c 0
 106.15234375 50.291015625 82 130.2578125 82 258.057617188 c 0xf2
 82 275.252929688 83.134765625 361.147460938 124.349609375 418.407226562 c 0
 132.494140625 429.72265625 143.291992188 440.268554688 156.637695312 449.545898438 c 1
 107.614257812 489.8515625 100 544.634765625 100 595.580078125 c 0
 100 617.651367188 102.359375 682.705078125 137.73046875 729.994140625 c 0
 187.861328125 797.016601562 264.912095778 808.329101562 425.0114 808.329101562 c 0
 586.301968018 808.329101562 662.536471875 796.51953125 712.291354688 730.037109375 c 0
EndSplineSet
Validated: 1
EndChar

StartChar: nine
Encoding: 57 57 8
Width: 823
Flags: W
HStem: -12.3291 133.886<236.067 574.471> 265.171 133.886<232.814 575.385> 674.672 133.524<227.144 567.53>
VStem: 62.9219 137.559<428.581 647.802> 608.182 140.097<429.755 636.631>
LayerCount: 2
UndoRedoHistory
Layer: 1
Undoes
UndoOperation
Index: 0
Type: 12
WasModified: 0
WasOrder2: 0
Layer: 0
EndUndoOperation
EndUndoes
Redoes
EndRedoes
EndUndoRedoHistory
Fore
SplineSet
536.522460938 667.469726562 m 0
 499.998046875 673.6953125 457.52734375 674.671875 401.705078125 674.671875 c 0
 317.109375 674.671875 261.290039062 670.831054688 233.940429688 657.469726562 c 0
 209.943359375 645.744140625 200.48046875 625.75390625 200.48046875 542.521484375 c 0
 200.48046875 455.2421875 210.904296875 431.08203125 235.494140625 418.02734375 c 0
 262.916015625 403.469726562 318.783203125 399.056640625 401.283203125 399.056640625 c 0
 557.329101562 399.056640625 587.291015625 414.109375 600.0859375 453.633789062 c 0
 605.344726562 469.881835938 608.181640625 494.62109375 608.181640625 528.34765625 c 0
 608.181640625 529.245117188 608.181640625 530.134765625 608.181640625 531.016601562 c 0
 608.181640625 553.3203125 607.9609375 571.180664062 596.333007812 616.578125 c 0
 589.723632812 642.190429688 569.072265625 661.921875 536.522460938 667.469726562 c 0
222.440429688 153.502929688 m 0
 237.065429688 134.651367188 273.588867188 121.556640625 401.283203125 121.556640625 c 0
 454.5 121.556640625 508.759765625 124.176757812 536.600585938 128.5078125 c 0
 571.27734375 133.8984375 590.243164062 149.328125 596.068359375 173.494140625 c 0
 600.97265625 194.626953125 604.8046875 240.467773438 607.321289062 285.322265625 c 1
 600.745117188 282.427734375 594.134765625 280.134765625 587.661132812 278.421875 c 0
 550.116210938 268.485351562 476.724609375 265.170898438 401.283203125 265.170898438 c 0
 231.484375 265.170898438 136.109375 273.9140625 85.1259765625 377.337890625 c 0
 65.2724609375 417.61328125 62.921875 475.28125 62.921875 538.668945312 c 0
 62.921875 626.717773438 62.921875 765.853515625 218.01953125 796.072265625 c 0
 265.498046875 806.518554688 332.31640625 808.196289062 401.581054688 808.196289062 c 0
 404.080078125 808.196289062 406.565429688 808.196289062 409.037109375 808.196289062 c 0
 562.400390625 808.196289062 671.428710938 807.2421875 720.443359375 686.951171875 c 0
 747.513671875 620.520507812 748.278320312 555.127929688 748.278320312 446.483398438 c 0
 748.278320312 253.032226562 738.583984375 154.088867188 716.48828125 103.8984375 c 0
 669.56640625 -2.68359375 580.08984375 -12.3291015625 401.283203125 -12.3291015625 c 0
 203.950195312 -12.3291015625 108.973632812 4.0419921875 76.9228515625 147.288085938 c 2
 68.76953125 183.727539062 l 1
 201.552734375 214.946289062 l 1
 214.887695312 164.2265625 215.280273438 162.732421875 222.440429688 153.502929688 c 0
EndSplineSet
Validated: 1
EndChar

StartChar: seven
Encoding: 55 55 9
Width: 838
Flags: W
HStem: 0 21G<262.718 434.976> 665 135<80 594.201>
LayerCount: 2
UndoRedoHistory
Layer: 1
Undoes
UndoOperation
Index: 0
Type: 12
WasModified: 0
WasOrder2: 0
Layer: 0
EndUndoOperation
EndUndoes
Redoes
EndRedoes
EndUndoRedoHistory
Fore
SplineSet
80 665 m 5
 80 800 l 5
 683.9 800 l 6
 739.134375 800 766.4 765.681640625 766.4 732.206054688 c 0
 766.4 706.814453125 758.546484375 689.885742188 741.072851562 661.788085938 c 6
 425.43671875 0 l 5
 262.71796875 0 l 5
 594.201187266 665 l 5
 80 665 l 5
EndSplineSet
Validated: 1
EndChar

StartChar: colon
Encoding: 58 58 10
Width: 305
Flags: W
HStem: -25 182<85.555 219.445> 263 182<85.555 219.445>
VStem: 61.5 182<-0.944985 132.945 287.055 420.945>
LayerCount: 2
UndoRedoHistory
Layer: 1
Undoes
UndoOperation
Index: 0
Type: 12
WasModified: 0
WasOrder2: 0
Layer: 0
EndUndoOperation
EndUndoes
Redoes
EndRedoes
EndUndoRedoHistory
Fore
SplineSet
61.5 367.5 m 2
 61.5 410.236328125 96.263671875 445 139 445 c 2
 166 445 l 2
 208.736328125 445 243.5 410.236328125 243.5 367.5 c 2
 243.5 355 243.5 328 243.5 340.5 c 2
 243.5 297.763671875 208.736328125 263 166 263 c 2
 139 263 l 2
 96.263671875 263 61.5 297.763671875 61.5 340.5 c 2
 61.5 328 61.5 355 61.5 367.5 c 2
61.5 79.5 m 2
 61.5 122.236328125 96.263671875 157 139 157 c 2
 166 157 l 2
 208.736328125 157 243.5 122.236328125 243.5 79.5 c 2
 243.5 92 243.5 65 243.5 52.5 c 2
 243.5 9.763671875 208.736328125 -25 166 -25 c 2
 139 -25 l 2
 96.263671875 -25 61.5 9.763671875 61.5 52.5 c 2
 61.5 65 61.5 92 61.5 79.5 c 2
EndSplineSet
Validated: 5
EndChar

StartChar: semicolon
Encoding: 59 59 11
Width: 305
Flags: W
HStem: -132.645 86.3828<73.3959 109.957> 263 182<87.6702 221.56>
VStem: 63.6152 182<-1.34106 129.994 287.055 420.945>
LayerCount: 2
UndoRedoHistory
Layer: 1
Undoes
UndoOperation
Index: 0
Type: 12
WasModified: 1
WasOrder2: 0
Layer: 0
EndUndoOperation
EndUndoes
Redoes
EndRedoes
EndUndoRedoHistory
Fore
SplineSet
63.615234375 367.5 m 2
 63.615234375 410.236328125 98.37890625 445 141.115234375 445 c 2
 168.115234375 445 l 2
 210.8515625 445 245.615234375 410.236328125 245.615234375 367.5 c 2
 245.615234375 355 245.615234375 328 245.615234375 340.5 c 2
 245.615234375 297.763671875 210.8515625 263 168.115234375 263 c 2
 141.115234375 263 l 2
 98.37890625 263 63.615234375 297.763671875 63.615234375 340.5 c 2
 63.615234375 328 63.615234375 355 63.615234375 367.5 c 2
63.615234375 79.5 m 2
 63.615234375 122.236328125 98.37890625 157 141.115234375 157 c 2
 163.115234375 157 l 2
 208.735351562 157 245.615234375 120.120117188 245.615234375 74.5 c 2
 245.615234375 87 245.615234375 51 245.615234375 38.5 c 2
 245.615234375 -22.974609375 221.748046875 -67.2353515625 188.612304688 -94.02734375 c 0
 162.711914062 -114.96875 133.778320312 -124.21875 109.95703125 -127.622070312 c 0
 74.7958984375 -132.64453125 l 1
 57.51953125 -46.26171875 l 1
 95.6904296875 -32.380859375 109.663085938 -27.19921875 114.623046875 -20.3359375 c 1
 84.8974609375 -9.490234375 63.615234375 19.060546875 63.615234375 52.5 c 2
 63.615234375 65 63.615234375 92 63.615234375 79.5 c 2
EndSplineSet
Validated: 37
EndChar

StartChar: comma
Encoding: 44 44 12
Width: 305
Flags: W
HStem: -132.645 78.9268<73.2637 109.957>
VStem: 63.6152 182<-12.6744 107.366>
LayerCount: 2
UndoRedoHistory
Layer: 1
Undoes
UndoOperation
Index: 0
Type: 12
WasModified: 1
WasOrder2: 0
Layer: 0
EndUndoOperation
EndUndoes
Redoes
EndRedoes
EndUndoRedoHistory
Fore
SplineSet
63.615234375 61.189453125 m 2
 63.615234375 100.237304688 98.37890625 132 141.115234375 132 c 2
 163.115234375 132 l 2
 208.735351562 132 245.615234375 98.359375 245.615234375 56.74609375 c 2
 245.615234375 51.9541015625 245.615234375 22.0009765625 245.615234375 23.908203125 c 2
 245.615234375 -32.166015625 221.748046875 -72.5400390625 188.612304688 -96.978515625 c 0
 162.711914062 -116.080078125 133.778320312 -124.517578125 109.95703125 -127.622070312 c 0
 74.7958984375 -132.64453125 l 1
 57.51953125 -53.7177734375 l 1
 95.6904296875 -41.03515625 109.663085938 -36.30078125 114.623046875 -30.029296875 c 1
 84.8974609375 -20.1201171875 63.615234375 5.9658203125 63.615234375 36.51953125 c 2
 63.615234375 33.33984375 63.615234375 55.8798828125 63.615234375 61.189453125 c 2
EndSplineSet
Validated: 37
EndChar

StartChar: period
Encoding: 46 46 13
Width: 305
Flags: W
HStem: -50 182<85.555 219.445>
VStem: 61.5 182<-25.945 107.945>
LayerCount: 2
UndoRedoHistory
Layer: 1
Undoes
UndoOperation
Index: 0
Type: 12
WasModified: 0
WasOrder2: 0
Layer: 0
EndUndoOperation
EndUndoes
Redoes
EndRedoes
EndUndoRedoHistory
Fore
SplineSet
61.5 54.5 m 6
 61.5 97.236328125 96.263671875 132 139 132 c 6
 166 132 l 6
 208.736328125 132 243.5 97.236328125 243.5 54.5 c 6
 243.5 42 243.5 15 243.5 27.5 c 6
 243.5 -15.236328125 208.736328125 -50 166 -50 c 6
 139 -50 l 6
 96.263671875 -50 61.5 -15.236328125 61.5 27.5 c 6
 61.5 15 61.5 42 61.5 54.5 c 6
EndSplineSet
Validated: 5
EndChar

StartChar: parenleft
Encoding: 40 40 15
Width: 385
Flags: W
VStem: 66.3623 143.893<28.2587 571.364>
LayerCount: 2
UndoRedoHistory
Layer: 1
Undoes
UndoOperation
Index: 0
Type: 12
WasModified: 1
WasOrder2: 0
Layer: 0
EndUndoOperation
EndUndoes
Redoes
EndRedoes
EndUndoRedoHistory
Fore
SplineSet
210.254882812 300 m 0
 210.254882812 237.711914062 211.14453125 83.0908203125 235.837890625 14.763671875 c 0
 259.48046875 -48.619140625 301.744140625 -92.0009765625 347.553710938 -119.759765625 c 2
 377.114257812 -138.51953125 l 1
 317.57421875 -248.142578125 l 1
 284.895507812 -231.223632812 l 2
 209.756835938 -193.586914062 143.383789062 -128.994140625 105.853515625 -33.8994140625 c 0
 73.458984375 49.8203125 66.3623046875 149.044921875 66.3623046875 299 c 0
 66.3623046875 449.934570312 73.4560546875 549.16796875 105.853515625 632.899414062 c 0
 143.383789062 727.994140625 209.756835938 792.586914062 284.895507812 830.223632812 c 2
 317.862304688 847.291992188 l 1
 376.856445312 736.35546875 l 1
 347.553710938 717.759765625 l 2
 301.463867188 689.840820312 259.428710938 647.458007812 235.837890625 584.236328125 c 0
 217.803710938 534.337890625 210.254882812 439.797851562 210.254882812 300 c 0
EndSplineSet
Validated: 1
EndChar

StartChar: parenright
Encoding: 41 41 16
Width: 385
Flags: W
VStem: 176.783 143.893<27.5715 570.843>
LayerCount: 2
UndoRedoHistory
Layer: 1
Undoes
UndoOperation
Index: 0
Type: 12
WasModified: 1
WasOrder2: 0
Layer: 0
EndUndoOperation
EndUndoes
Redoes
EndRedoes
EndUndoRedoHistory
Fore
SplineSet
176.783203125 300 m 0
 176.783203125 364.93359375 175.807617188 516.149414062 151.200195312 584.236328125 c 0
 127.609375 647.458007812 85.57421875 689.840820312 39.484375 717.759765625 c 2
 10.181640625 736.35546875 l 1
 69.17578125 847.291992188 l 1
 102.142578125 830.223632812 l 2
 177.28125 792.586914062 243.653320312 727.994140625 281.184570312 632.899414062 c 0
 313.560546875 549.223632812 320.67578125 450.8984375 320.67578125 299 c 0
 320.67578125 149.044921875 313.579101562 49.8203125 281.184570312 -33.8994140625 c 0
 243.654296875 -128.994140625 177.28125 -193.586914062 102.142578125 -231.223632812 c 6
 69.4638671875 -248.142578125 l 5
 9.923828125 -138.51953125 l 5
 39.484375 -119.759765625 l 6
 85.2939453125 -92.0009765625 127.557617188 -48.6201171875 151.200195312 14.763671875 c 0
 169.0390625 64.1240234375 176.783203125 159.12890625 176.783203125 300 c 0
EndSplineSet
Validated: 1
EndChar

StartChar: plus
Encoding: 43 43 17
Width: 770
VWidth: 1050
Flags: W
HStem: 230.5 139<85 310.313 459.687 685>
VStem: 310.313 149.373<25 230.5 369.5 575>
LayerCount: 2
UndoRedoHistory
Layer: 1
Undoes
UndoOperation
Index: 0
Type: 12
WasModified: 1
WasOrder2: 0
Layer: 0
EndUndoOperation
EndUndoes
Redoes
EndRedoes
EndUndoRedoHistory
Fore
SplineSet
310.313432836 369.5 m 5
 310.313432836 575 l 5
 459.686567164 575 l 5
 459.686567164 369.5 l 5
 685 369.5 l 5
 685 230.5 l 5
 459.686567164 230.5 l 5
 459.686567164 25 l 5
 310.313432836 25 l 5
 310.313432836 230.5 l 5
 85 230.5 l 5
 85 369.5 l 5
 310.313432836 369.5 l 5
EndSplineSet
Validated: 1
EndChar

StartChar: quotesingle
Encoding: 39 39 18
Width: 246
Flags: W
HStem: 571.1 253.9
VStem: 49 147<584.475 825>
LayerCount: 2
UndoRedoHistory
Layer: 1
Undoes
UndoOperation
Index: 0
Type: 12
WasModified: 0
WasOrder2: 0
Layer: 0
HStem: 571.1 253.9
VStem: 49 147<584.475 825>
EndUndoOperation
EndUndoes
Redoes
EndRedoes
EndUndoRedoHistory
Fore
SplineSet
196 691.400390625 m 2
 196 668 195.574544979 650.00982237 194.34375 635.900390625 c 0
 193.147460938 622.186523438 189 571 139.299804688 571.099609375 c 6
 105.700195312 571.099609375 l 6
 56 571.099609375 51.8525390625 622.186523438 50.65625 635.900390625 c 0
 49.4248046875 650.009765625 49 667.591796875 49 691.400390625 c 2
 49 825 l 1
 196 825 l 1
 196 691.400390625 l 2
EndSplineSet
Validated: 33
EndChar

StartChar: equal
Encoding: 61 61 19
Width: 770
Flags: W
HStem: 110 128.04<85 685> 259.64 130.36<85 685>
LayerCount: 2
UndoRedoHistory
Layer: 1
Undoes
UndoOperation
Index: 0
Type: 12
WasModified: 1
WasOrder2: 0
Layer: 0
EndUndoOperation
EndUndoes
Redoes
EndRedoes
EndUndoRedoHistory
Fore
SplineSet
85 110 m 1
 85 238.040039062 l 1
 685 238.040039062 l 1
 685 110 l 1
 85 110 l 1
85 259.639648438 m 1
 85 390 l 1
 685 390 l 1
 685 259.639648438 l 1
 85 259.639648438 l 1
EndSplineSet
Validated: 1
EndChar

StartChar: less
Encoding: 60 60 20
Width: 770
Flags: W
LayerCount: 2
UndoRedoHistory
Layer: 1
Undoes
UndoOperation
Index: 0
Type: 12
WasModified: 1
WasOrder2: 0
Layer: 0
EndUndoOperation
EndUndoes
Redoes
EndRedoes
EndUndoRedoHistory
Fore
SplineSet
675 121.638671875 m 5
 675 -29.525390625 l 5
 91 189.9140625 l 5
 91 310.0859375 l 5
 675 529.525390625 l 5
 675 378.361328125 l 5
 319.277184561 250 l 5
 675 121.638671875 l 5
EndSplineSet
Validated: 1
EndChar

StartChar: greater
Encoding: 62 62 21
Width: 770
Flags: W
LayerCount: 2
UndoRedoHistory
Layer: 1
Undoes
UndoOperation
Index: 0
Type: 12
WasModified: 1
WasOrder2: 0
Layer: 0
EndUndoOperation
EndUndoes
Redoes
EndRedoes
EndUndoRedoHistory
Fore
SplineSet
95 378.361328125 m 5
 95 529.525390625 l 5
 679 310.0859375 l 5
 679 189.9140625 l 5
 95 -29.525390625 l 5
 95 121.638671875 l 5
 450.722815439 250 l 5
 95 378.361328125 l 5
EndSplineSet
Validated: 1
EndChar

StartChar: hyphen
Encoding: 45 45 22
Width: 450
VWidth: 1050
Flags: W
HStem: 215 145<5 445>
LayerCount: 2
UndoRedoHistory
Layer: 1
Undoes
UndoOperation
Index: 0
Type: 12
WasModified: 1
WasOrder2: 0
Layer: 0
EndUndoOperation
EndUndoes
Redoes
EndRedoes
EndUndoRedoHistory
Fore
SplineSet
445 215 m 5
 5 215 l 5
 5 360 l 5
 445 360 l 5
 445 215 l 5
EndSplineSet
Validated: 1
EndChar

StartChar: slash
Encoding: 47 47 23
Width: 590
Flags: W
HStem: 785 20G<394.208 555.267>
LayerCount: 2
UndoRedoHistory
Layer: 1
Undoes
UndoOperation
Index: 0
Type: 12
WasModified: 1
WasOrder2: 0
Layer: 0
EndUndoOperation
EndUndoes
Redoes
EndRedoes
EndUndoRedoHistory
Fore
SplineSet
44.1171875 -205 m 5
 401.280545081 805 l 5
 555.266601562 805 l 5
 198.103243981 -205 l 5
 44.1171875 -205 l 5
EndSplineSet
Validated: 1
EndChar

StartChar: backslash
Encoding: 92 92 24
Width: 551
Flags: W
HStem: 785 20G<44.1172 207.971>
LayerCount: 2
UndoRedoHistory
Layer: 1
Undoes
UndoOperation
Index: 0
Type: 12
WasModified: 1
WasOrder2: 0
Layer: 0
EndUndoOperation
EndUndoes
Redoes
EndRedoes
EndUndoRedoHistory
Fore
SplineSet
201.666652831 805 m 5
 520.0390625 -205 l 5
 362.489597169 -205 l 5
 44.1171875 805 l 5
 201.666652831 805 l 5
EndSplineSet
Validated: 1
EndChar

StartChar: O
Encoding: 79 79 25
Width: 927
Flags: W
HStem: -12.1963 143.524<251.809 670.191> 664.443 143.869<252.113 669.887>
VStem: 61 152.613<170.761 384.1 384.109 624.901> 708.387 152.613<170.761 624.901>
LayerCount: 2
UndoRedoHistory
Layer: 1
Undoes
UndoOperation
Index: 0
Type: 12
WasModified: 0
WasOrder2: 0
Layer: 0
HStem: -12.1963 143.524<251.809 670.191> 664.443 143.869<252.113 669.887>
VStem: 61 152.613<170.761 384.1 384.109 624.901> 708.387 152.613<170.761 384.1 384.104 624.901>
EndUndoOperation
EndUndoes
Redoes
EndRedoes
EndUndoRedoHistory
Fore
SplineSet
461 131.328125 m 4
 538.756835938 131.328125 606.765625 134.66015625 638.708984375 140.048828125 c 4
 670.620117188 145.432617188 689.483398438 160.365234375 693.611328125 183.510742188 c 4
 704.512695312 244.7109375 708.38671875 300.744140625 708.38671875 397.189453125 c 4
 708.38671875 500.216796875 704.865234375 555.209960938 694.529296875 613.58984375 c 4
 690.40234375 636.737304688 671.536132812 651.673828125 639.625976562 657.056640625 c 4
 618.923828125 660.549804688 524.879882812 664.443359375 461 664.443359375 c 4
 397.11983296 664.443359375 303.075736838 660.549780233 282.374101694 657.056640625 c 4
 250.464376103 651.672277237 231.597533142 636.737311218 227.470455782 613.58984375 c 4
 217.13472194 555.209919765 213.613193899 500.216368357 213.613193899 397.189453125 c 4
 213.613193899 300.743753301 217.48774911 244.711056308 228.388673349 183.510742188 c 4
 232.516458191 160.36528927 251.379570141 145.43273732 283.290672234 140.048828125 c 4
 315.234065404 134.659470913 383.243510825 131.328125 461 131.328125 c 4
461 808.3125 m 4
 807.991210938 808.3359375 861 784.817382812 861 397.046875 c 4
 861 397 861 384.099609375 861 384.099609375 c 6
 861 0.181640625 799.935546875 -12.1962890625 461 -12.1962890625 c 4
 122.064697275 -12.1962890625 61 0.181814551013 61 384.099609375 c 6
 61 384.099609375 60.9765715374 397.022786697 61 397.046875 c 4
 61 784.817354559 114.008737085 808.336335906 461 808.3125 c 4
EndSplineSet
Validated: 33
EndChar

StartChar: N
Encoding: 78 78 26
Width: 922
Flags: W
HStem: 0 21G<71 228.112 649.529 845.422> 780 20G<71 269.006 690.422 845.422>
VStem: 71 157.112<0 624.505> 690.422 155<175.495 800>
LayerCount: 2
UndoRedoHistory
Layer: 1
Undoes
UndoOperation
Index: 0
Type: 12
WasModified: 0
WasOrder2: 0
Layer: 0
EndUndoOperation
EndUndoes
Redoes
EndRedoes
EndUndoRedoHistory
Fore
SplineSet
255.063038793 800 m 4
 690.422413793 175.495117188 l 5
 690.422413793 800 l 5
 845.422413793 800 l 5
 845.422413793 0 l 6
 663.471632544 0 l 4
 228.112068966 624.504882812 l 5
 228.112068966 0 l 5
 71 0 l 5
 71 800 l 6
 255.063038793 800 l 4
EndSplineSet
Validated: 1
EndChar

StartChar: H
Encoding: 72 72 27
Width: 903
Flags: W
HStem: 0 21G<72 217 681 826> 362.5 139<217 681> 780 20G<72 217 681 826>
VStem: 72 145<0 362.5 501.5 800> 681 145<0 362.5 501.5 800>
LayerCount: 2
UndoRedoHistory
Layer: 1
Undoes
UndoOperation
Index: 0
Type: 12
WasModified: 0
WasOrder2: 0
Layer: 0
EndUndoOperation
EndUndoes
Redoes
EndRedoes
EndUndoRedoHistory
Fore
SplineSet
217 501.5 m 5
 681 501.5 l 5
 681 800 l 5
 826 800 l 5
 826 0 l 5
 681 0 l 5
 681 362.5 l 5
 217 362.5 l 5
 217 0 l 5
 72 0 l 5
 72 800 l 5
 217 800 l 5
 217 501.5 l 5
EndSplineSet
Validated: 1
EndChar

StartChar: I
Encoding: 73 73 28
Width: 294
Flags: W
HStem: 0 21G<72 217> 780 20G<72 217>
VStem: 72 145<0 800>
LayerCount: 2
UndoRedoHistory
Layer: 1
Undoes
UndoOperation
Index: 0
Type: 12
WasModified: 0
WasOrder2: 0
Layer: 0
EndUndoOperation
EndUndoes
Redoes
EndRedoes
EndUndoRedoHistory
Fore
SplineSet
217 0 m 5
 72 0 l 5
 72 800 l 5
 217 800 l 5
 217 0 l 5
EndSplineSet
Validated: 1
EndChar

StartChar: J
Encoding: 74 74 29
Width: 800
Flags: W
HStem: -12.1963 133.524<231.238 539.949> 780 20G<575.875 722.434>
VStem: 52 145.724<153.825 234.565> 575.875 146.55<153.564 800>
LayerCount: 2
UndoRedoHistory
Layer: 1
Undoes
UndoOperation
Index: 0
Type: 1
WasModified: 1
WasOrder2: 0
Layer: 2
Width: 884
VWidth: 1000
LBearingChange: 0
UnicodeEnc: 0
InstructionsLength: 0
SplineSet
701.3515625 94.62109375 m 0
 654.15625 -11.677734375 512.501953125 -12.1962890625 384.192382812 -12.1962890625 c 0
 383.203125 -12.1962890625 382.21484375 -12.1962890625 381.227539062 -12.1962890625 c 0
 246.142578125 -12.1962890625 135.30859375 -11.8447265625 86.1318359375 85.1982421875 c 0
 64.7802734375 127.333984375 60.2880859375 164.771484375 52 233.86328125 c 1
 197.723632812 248.475585938 l 1
 204.3046875 196.123046875 206.356445312 179.795898438 214.051757812 163.155273438 c 0
 224.598632812 140.350585938 243.940429688 121.328125 384.2578125 121.328125 c 0
 515.56640625 121.328125 545.313476562 137.254882812 558.444335938 158.702148438 c 0
 574.458984375 184.859375 575.875 238.044921875 575.875 314.287109375 c 2
 575.875 800 l 1
 722.43359375 800 l 1
 722.424804688 292.540039062 l 2
 722.424804688 157.217773438 710.681640625 115.634765625 701.3515625 94.62109375 c 0
EndSplineSet
EndUndoOperation
EndUndoes
Redoes
EndRedoes
EndUndoRedoHistory
Fore
SplineSet
701.3515625 94.62109375 m 0
 654.15625 -11.677734375 512.501953125 -12.1962890625 384.192382812 -12.1962890625 c 0
 383.203125 -12.1962890625 382.21484375 -12.1962890625 381.227539062 -12.1962890625 c 0
 246.142578125 -12.1962890625 135.30859375 -11.8447265625 86.1318359375 85.1982421875 c 0
 64.7802734375 127.333984375 60.2880859375 164.771484375 52 233.86328125 c 1
 197.723632812 248.475585938 l 1
 204.3046875 196.123046875 206.356445312 179.795898438 214.051757812 163.155273438 c 0
 224.598632812 140.350585938 243.940429688 121.328125 384.2578125 121.328125 c 0
 515.56640625 121.328125 545.313476562 137.254882812 558.444335938 158.702148438 c 0
 574.458984375 184.859375 575.875 238.044921875 575.875 314.287109375 c 2
 575.875 800 l 1
 722.43359375 800 l 1
 722.424804688 292.540039062 l 2
 722.424804688 157.217773438 710.681640625 115.634765625 701.3515625 94.62109375 c 0
EndSplineSet
Validated: 1
EndChar

StartChar: M
Encoding: 77 77 30
Width: 1143
Flags: W
HStem: 0 21G<71 226 483.505 655.302 912.8 1067.81> 780 20G<71 262.989 878.33 1068>
VStem: 71 155<0 599> 912.8 155<0 599>
LayerCount: 2
UndoRedoHistory
Layer: 1
Undoes
UndoOperation
Index: 0
Type: 12
WasModified: 0
WasOrder2: 0
Layer: 0
HStem: 0 21G<71 226 483.505 654.266 911.772 1067.8> 780 20G<71 262.989 848.29 1037.77>
VStem: 71 155<0 599> 912.8 155<0 136.136>
EndUndoOperation
EndUndoes
Redoes
EndRedoes
EndUndoRedoHistory
Fore
SplineSet
492.4 0 m 2
 226 599 l 1
 226 0 l 1
 71 0 l 1
 71 800 l 2
 253.2 800 l 0
 569.4 154 l 1
 888.200195312 800 l 4
 1068 800 l 6
 1067.8 0 l 1
 912.8 0 l 1
 913 599 l 5
 646.4 0 l 2
 492.4 0 l 2
EndSplineSet
Validated: 1
EndChar

StartChar: L
Encoding: 76 76 31
Width: 865
Flags: W
HStem: 0 149<227 807> 780 20G<72 227>
VStem: 72 155<149 800>
LayerCount: 2
UndoRedoHistory
Layer: 1
Undoes
UndoOperation
Index: 0
Type: 12
WasModified: 0
WasOrder2: 0
Layer: 0
EndUndoOperation
EndUndoes
Redoes
EndRedoes
EndUndoRedoHistory
Fore
SplineSet
807 0 m 5
 72 0 l 1
 72 800 l 1
 227 800 l 1
 227 149 l 1
 807 149 l 5
 807 0 l 5
EndSplineSet
Validated: 1
EndChar

StartChar: C
Encoding: 67 67 32
Width: 897
Flags: MW
HStem: -12.1963 133.524<244.372 661.765> 674.443 133.886<242.695 656.973>
VStem: 61 141.766<162.574 633.158> 690 140<545.742 646.133> 694.65 141.231<155.804 264.703>
LayerCount: 2
UndoRedoHistory
Layer: 1
Undoes
UndoOperation
Index: 0
Type: 12
WasModified: 0
WasOrder2: 0
Layer: 0
HStem: -12.1963 133.524<244.372 661.765> 674.443 133.886<242.695 656.973>
VStem: 61 141.766<162.574 633.158> 685.931 140.609<545.742 646.133> 694.65 141.231<155.804 264.703>
EndUndoOperation
EndUndoes
Redoes
EndRedoes
EndUndoRedoHistory
Fore
SplineSet
679.010387523 -0.05078125 m 5xe0
 631.118518726 -10.8564453125 537.355247262 -12.1962890625 450.972199349 -12.1962890625 c 4
 223.234959689 -12.1962890625 105.570634471 -5.20973118204 72.4326171875 172.802734375 c 4
 61 234.221786849 61 304.6235327 61 397.041015625 c 4
 61 601.80078125 63.5673828125 757.002929688 224.155386198 793.067382812 c 4
 262.941351974 803.595703125 388.678824782 808.329101562 451.2621135 808.329101562 c 4
 472.942336447 808.329101562 627.348604877 807.72792487 673.100036842 795.021484375 c 4
 711.095438397 786.028320312 774.714589975 761.47265625 803.6618556 694.83203125 c 4
 820.77513685 655.435546875 822.598379038 621.014648438 826.539785288 546.604492188 c 5
 685.93097127 529.2890625 l 5
 681.654475035 626.572484859 680.426573145 654.505281144 622.813330979 665.869140625 c 4
 598.251024478 670.716796875 501.96379452 674.443359375 451.2621135 674.443359375 c 4
 400.330612579 674.443359375 299.606153146 669.529296875 274.146493318 665.090820312 c 4
 241.861263626 659.462890625 221.006122672 639.461914062 216.51854396 613.459960938 c 4
 205.169663666 547.203125 202.765893672 491.059570312 202.765893672 397.17578125 c 4
 202.765893672 304.317382812 205.165603244 248.185546875 216.516107706 181.920898438 c 4
 221.003686419 155.919921875 241.861263626 135.90234375 274.148117487 130.2734375 c 4
 308.803821711 124.231445312 380.753692562 121.328125 450.851198765 121.328125 c 4
 521.283283764 121.328125 596.405156506 122.798828125 630.063621016 129.44140625 c 4
 662.090607851 135.759765625 681.408472926 156.297851562 688.591359953 184.513671875 c 4
 691.236319031 195.030273438 692.736239024 226.373046875 694.65032209 273.219726562 c 5
 836.451744457 264.703125 l 5
 835.881431957 252.381835938 l 6
 831.777916333 163.74609375 825.903892895 29.9375 679.07535428 -0.03515625 c 5
 679.07535428 12.46484375 679.010387523 12.44921875 679.010387523 -0.05078125 c 5xe0
EndSplineSet
Validated: 1
EndChar

StartChar: Q
Encoding: 81 81 33
Width: 973
Flags: W
HStem: -12.1963 143.524<244.853 533.76> 664.443 143.886<245.898 664.274>
VStem: 61 152.339<161.932 629.826> 696.342 165.575<164.809 631.342>
LayerCount: 2
UndoRedoHistory
Layer: 1
Undoes
UndoOperation
Index: 0
Type: 12
WasModified: 0
WasOrder2: 0
Layer: 0
EndUndoOperation
EndUndoes
Redoes
EndRedoes
EndUndoRedoHistory
Fore
SplineSet
686.039607341 202.166992188 m 0
 693.704055007 246.068359375 696.34242925 306.265625 696.34242925 397.189453125 c 0
 696.34242925 489.120117188 693.702421845 549.309570312 682.475245284 613.62890625 c 0
 678.679775311 635.37109375 661.940674843 651.361328125 628.861782173 657.060546875 c 0
 605.272381017 661.126953125 505.687839367 664.443359375 455.611806533 664.443359375 c 0
 404.840862997 664.443359375 304.368697452 661.1640625 280.566985153 657.061523438 c 0
 247.489725645 651.361328125 230.746542271 635.372070312 226.951072298 613.62890625 c 0
 215.795754893 549.333007812 213.338661703 489.147460938 213.338661703 397.189453125 c 0
 213.338661703 306.237304688 215.797388057 246.026367188 226.954338624 181.723632812 c 0
 234.772851906 136.93561368 276.021703851 131.328125 455.204332455 131.328125 c 0
 482.573688538 131.328125 509.914464277 131.473632812 535.116613538 132.018554688 c 1
 409.867732341 282 l 1
 575.509625086 282 l 1
 673.867732341 163 l 1
 678.667732341 169 681.839763827 178.099658786 686.039607341 202.166992188 c 0
61 383.913085938 m 2
 61 397.046875 l 2
 61 628.518554688 69.8056640625 759.825195312 229.29139436 794.934570312 c 0
 277.987404764 808.255859375 445.718107267 808.329101562 455.611806533 808.329101562 c 0
 457.121665393 808.330078125 l 0
 474.501782196 808.330078125 633.198645561 808.021484375 680.240262212 794.905273438 c 0
 741.081899016 781.590820312 807.008591842 751.108398438 831.754068001 684.206054688 c 0
 857.423301778 614.806640625 861.917561215 508.609375 861.917561215 390.822265625 c 0
 861.917561215 187.040039062 848.333730966 96.3828125 795.272276828 43.4169921875 c 1
 989.172886233 -149 l 1
 783.542086174 -149 l 1
 648.029395485 -5.0244140625 l 1
 597.954995814 -11.07421875 525.106143143 -12.1962890625 455.32518649 -12.1962890625 c 0
 369.420015103 -12.1962890625 278.977917905 -12.01953125 230.030400454 0.1826171875 c 0
 62.068359375 33.9169921875 61 181.973632812 61 383.913085938 c 2
EndSplineSet
Validated: 1
EndChar

StartChar: asterisk
Encoding: 42 42 34
Width: 450
VWidth: 1050
Flags: W
VStem: 148.833 158.839<380.205 474.868>
LayerCount: 2
UndoRedoHistory
Layer: 1
Undoes
UndoOperation
Index: 0
Type: 12
WasModified: 1
WasOrder2: 0
Layer: 0
EndUndoOperation
EndUndoes
Redoes
EndRedoes
EndUndoRedoHistory
Fore
SplineSet
148.833377641 474.868164062 m 5
 307.672184572 474.868164062 l 5
 307.672184572 380.205078125 l 5
 400.307617188 409.650390625 l 5
 442.911132812 290.409179688 l 5
 352.28515625 260.96484375 l 5
 408.286132812 194.001953125 l 5
 292.780905779 112.970703125 l 5
 228.251655962 187.291015625 l 5
 163.726906721 112.971679688 l 5
 48.220703125 194.000976562 l 5
 104.220703125 260.96484375 l 5
 13.5966796875 290.408203125 l 5
 56.1953125 409.651367188 l 5
 148.833377641 380.205078125 l 5
 148.833377641 474.868164062 l 5
EndSplineSet
Validated: 1
EndChar

StartChar: bracketleft
Encoding: 91 91 35
Width: 395
Flags: W
HStem: -205 140<241 365> 665 140<241 365>
VStem: 90 275<-205 -65 665 805> 90 151<-65 665>
LayerCount: 2
UndoRedoHistory
Layer: 1
Undoes
UndoOperation
Index: 0
Type: 12
WasModified: 1
WasOrder2: 0
Layer: 0
EndUndoOperation
EndUndoes
Redoes
EndRedoes
EndUndoRedoHistory
Fore
SplineSet
90 -205 m 5xe0
 90 805 l 5
 365 805 l 5
 365 665 l 5xe0
 241 665 l 5
 241 -65 l 5xd0
 365 -65 l 5
 365 -205 l 5
 90 -205 l 5xe0
EndSplineSet
Validated: 1
EndChar

StartChar: bracketright
Encoding: 93 93 36
Width: 395
Flags: W
HStem: -205 140<30 154> 665 140<30 154>
VStem: 30 275<-205 -65 665 805> 154 151<-65 665>
LayerCount: 2
UndoRedoHistory
Layer: 1
Undoes
UndoOperation
Index: 0
Type: 12
WasModified: 1
WasOrder2: 0
Layer: 0
EndUndoOperation
EndUndoes
Redoes
EndRedoes
EndUndoRedoHistory
Fore
SplineSet
30 805 m 5xe0
 305 805 l 5
 305 -205 l 5
 30 -205 l 5
 30 -65 l 5xe0
 154 -65 l 5
 154 665 l 5xd0
 30 665 l 5
 30 805 l 5xe0
EndSplineSet
Validated: 1
EndChar

StartChar: underscore
Encoding: 95 95 37
Width: 610
Flags: W
HStem: -120 145<-15 625>
LayerCount: 2
UndoRedoHistory
Layer: 1
Undoes
UndoOperation
Index: 0
Type: 12
WasModified: 1
WasOrder2: 0
Layer: 0
EndUndoOperation
EndUndoes
Redoes
EndRedoes
EndUndoRedoHistory
Fore
SplineSet
-15 -120 m 5
 -15 25 l 5
 625 25 l 5
 625 -120 l 5
 -15 -120 l 5
EndSplineSet
Validated: 1
EndChar

StartChar: percent
Encoding: 37 37 38
Width: 853
Flags: W
HStem: 0 118.821<583.474 680.635> 248.604 118.821<583.476 680.633> 416.135 118.821<172.474 269.635> 664.739 118.821<172.476 269.633>
VStem: 58 109.773<537.882 661.816> 274.316 109.773<537.885 661.812> 469 109.773<121.747 245.681> 685.316 109.773<121.75 245.677>
LayerCount: 2
UndoRedoHistory
Layer: 1
Undoes
UndoOperation
Index: 0
Type: 1
WasModified: 0
WasOrder2: 0
Layer: 1
Width: 966
VWidth: 1000
LBearingChange: 0
UnicodeEnc: 0
InstructionsLength: 0
SplineSet
287.97265625 507.145507812 m 4
 359.165039062 507.145507812 364.07421875 513 364.07421875 599.84765625 c 4
 364.07421875 686.6953125 359.165039062 692.549804688 287.97265625 692.549804688 c 4
 216.780273438 692.549804688 211.87109375 686.6953125 211.87109375 599.84765625 c 4
 211.87109375 513 216.780273438 507.145507812 287.97265625 507.145507812 c 4
288 416.134765625 m 5
 425.592773438 416.236328125 451.017578125 452.628481716 451.017578125 599.84765625 c 4
 451.017578125 747.078858953 425.582779278 783.458796254 288 783.560546875 c 5
 150.369140625 783.46875 124.927734375 747.098364391 124.927734375 599.84765625 c 4
 124.927734375 452.608979336 150.359375 416.2265625 288 416.134765625 c 5
EndSplineSet
EndUndoOperation
EndUndoes
Redoes
EndRedoes
EndUndoRedoHistory
Fore
SplineSet
632.044921875 118.821289062 m 0
 681.879882812 118.821289062 685.31640625 122.919921875 685.31640625 183.712890625 c 0
 685.31640625 244.505859375 681.879882812 248.604492188 632.044921875 248.604492188 c 0
 582.209960938 248.604492188 578.7734375 244.505859375 578.7734375 183.712890625 c 0
 578.7734375 122.919921875 582.209960938 118.821289062 632.044921875 118.821289062 c 0
632.072265625 0 m 1
 494.431640625 0.091796875 469 36.474609375 469 183.712890625 c 0
 469 330.963867188 494.44140625 367.333984375 632.072265625 367.42578125 c 1
 769.655273438 367.32421875 795.08984375 330.944335938 795.08984375 183.712890625 c 0
 795.08984375 36.494140625 769.665039062 0.1015625 632.072265625 0 c 1
221.044921875 534.956054688 m 4
 270.879882812 534.956054688 274.31640625 539.0546875 274.31640625 599.84765625 c 4
 274.31640625 660.640625 270.879882812 664.739257812 221.044921875 664.739257812 c 4
 171.209960938 664.739257812 167.7734375 660.640625 167.7734375 599.84765625 c 4
 167.7734375 539.0546875 171.209960938 534.956054688 221.044921875 534.956054688 c 4
221.072265625 416.134765625 m 5
 83.431640625 416.2265625 58 452.609375 58 599.84765625 c 4
 58 747.098632812 83.44140625 783.46875 221.072265625 783.560546875 c 5
 358.655273438 783.458984375 384.08984375 747.079101562 384.08984375 599.84765625 c 4
 384.08984375 452.62890625 358.665039062 416.236328125 221.072265625 416.134765625 c 5
93.0380859375 0 m 1
 621.622070312 780 l 1
 759.162109375 780 l 1
 230.578125 0 l 1
 93.0380859375 0 l 1
EndSplineSet
Validated: 1
EndChar

StartChar: B
Encoding: 66 66 39
Width: 861
Flags: W
HStem: 0 134<218.095 621.619> 362.5 142<218.095 596.697> 665 135<218.095 593.71>
VStem: 72 146.095<134 362.5 504.5 665> 615.455 147.204<524.291 645.276> 655.648 142.964<165.364 325.219>
LayerCount: 2
UndoRedoHistory
Layer: 1
Undoes
UndoOperation
Index: 0
Type: 12
WasModified: 0
WasOrder2: 0
Layer: 0
EndUndoOperation
EndUndoes
Redoes
EndRedoes
EndUndoRedoHistory
Fore
SplineSet
712.782850126 442.317382812 m 1xf8
 808.210584501 390.440429688 798.611762533 285.982421875 798.611762533 243.310546875 c 0
 798.611762533 242.905273438 798.611762533 242.504882812 798.611762533 242.110351562 c 0xf4
 798.611762533 148.532226562 776.636176595 59.734375 672.208399464 24.07421875 c 0
 609.966528021 -0.0869140625 534.492058888 0 438.37678415 0 c 2
 72 0 l 1
 72 800 l 1
 436.577889667 800 l 2
 542.759960595 799.87109375 666.212356338 797.205078125 724.924451689 722.138671875 c 0
 736.051404813 707.295898438 762.659803251 663.771484375 762.659803251 588.919921875 c 0
 762.659803251 532.1796875 753.851209501 480.580078125 712.782850126 442.317382812 c 1xf8
218.094570928 665 m 1
 218.094570928 504.5 l 1
 440.21482049 504.5 l 2
 502.582475919 504.5 558.416703152 505.262695312 587.680133538 519.743164062 c 0
 609.064634414 530.32421875 612.480576839 543.553710938 614.161230298 561.899414062 c 0
 615.019089317 571.267578125 615.455357925 582.1015625 615.455357925 588.456054688 c 0xf8
 615.455357925 636.055664062 599.034533713 645.60546875 578.191495184 652.678710938 c 0
 552.427999124 661.421875 505.752966287 665 438.37678415 665 c 2
 218.094570928 665 l 1
218.094570928 362.5 m 1
 218.094570928 134 l 1
 437.456950526 134 l 2
 604.200443301 134 635.304356392 153.252929688 647.541894702 182.251953125 c 0
 652.636044221 194.323242188 655.647520797 213.2421875 655.647520797 240.016601562 c 0xf4
 655.647520797 284.33203125 650.224742776 305.34375 646.082229641 312.140625 c 0
 616.421672505 361.126953125 526.367677321 362.5 440.21482049 362.5 c 2
 218.094570928 362.5 l 1
EndSplineSet
Validated: 33
EndChar

StartChar: P
Encoding: 80 80 40
Width: 820
Flags: W
HStem: 0 21G<72 229.149> 357.5 148<229.149 578.767> 651 149<229.149 576.097>
VStem: 72 157.149<0 357.5 505.5 651> 593.421 155.027<523.457 631.206>
LayerCount: 2
UndoRedoHistory
Layer: 1
Undoes
UndoOperation
Index: 0
Type: 12
WasModified: 1
WasOrder2: 0
Layer: 0
HStem: 0 21G<72 229.149> 357.5 148<229.149 608.767> 651 149<229.149 606.097>
VStem: 72 157.149<0 357.5 505.5 651> 623.421 155.027<523.457 631.206>
CopiedFrom: Two Weekend Go Bold
EndUndoOperation
UndoOperation
Index: 1
Type: 1
WasModified: 1
WasOrder2: 0
Layer: 2
Width: 850
VWidth: 1000
LBearingChange: 0
UnicodeEnc: 0
InstructionsLength: 0
SplineSet
72 800 m 1
 394.942382812 800 l 2
 552.64453125 799.813476562 748.448242188 799.612304688 748.448242188 583.29296875 c 0
 748.448242188 469.407226562 712.05859375 405.055664062 593.088867188 373.64453125 c 0
 544.295898438 358.217773438 482.16015625 357.5 400 357.5 c 2
 229.149122807 357.5 l 1
 229.149122807 0 l 1
 72 0 l 1
 72 800 l 1
586.189453125 537.282226562 m 0
 590.236328125 545.473632812 593.420898438 560.462890625 593.420898438 583.401367188 c 0
 593.420898438 621.209960938 581.591796875 631.124023438 555.030273438 638.918945312 c 0
 526.091796875 647.412109375 473.375976562 651 396.771484375 651 c 2
 229.149122807 651 l 1
 229.149122807 505.5 l 1
 398.64453125 505.5 l 2
 548.858398438 505.5 575.638671875 515.922851562 586.189453125 537.282226562 c 0
EndSplineSet
EndUndoOperation
UndoOperation
Index: 2
Type: 1
WasModified: 0
WasOrder2: 0
Layer: 2
Width: 850
VWidth: 1000
LBearingChange: 0
UnicodeEnc: 0
InstructionsLength: 0
SplineSet
72 800 m 1
 424.942382812 800 l 6
 582.64453125 799.813476562 778.448242188 799.612304688 778.448242188 583.29296875 c 4
 778.448242188 469.407226562 742.05859375 405.055664062 623.088867188 373.64453125 c 4
 574.295898438 358.217773438 512.16015625 357.5 430 357.5 c 6
 229.149122807 357.5 l 1
 229.149122807 0 l 1
 72 0 l 1
 72 800 l 1
616.189453125 537.282226562 m 4
 620.236328125 545.473632812 623.420898438 560.462890625 623.420898438 583.401367188 c 4
 623.420898438 621.209960938 611.591796875 631.124023438 585.030273438 638.918945312 c 4
 556.091796875 647.412109375 503.375976562 651 426.771484375 651 c 6
 229.149122807 651 l 1
 229.149122807 505.5 l 1
 428.64453125 505.5 l 6
 578.858398438 505.5 605.638671875 515.922851562 616.189453125 537.282226562 c 4
EndSplineSet
EndUndoOperation
UndoOperation
Index: 3
Type: 3
WasModified: 0
WasOrder2: 0
Layer: 2
HStem: 0 21G<72 229.149> 357.5 148<229.149 608.767> 651 149<229.149 606.097>
VStem: 72 157.149<0 357.5 505.5 651> 623.421 155.027<523.457 631.206>
EndUndoOperation
UndoOperation
Index: 4
Type: 2
WasModified: 0
WasOrder2: 0
Layer: 2
Width: 850
VWidth: 1000
LBearingChange: 0
UnicodeEnc: 0
InstructionsLength: 0
SplineSet
72 800 m 1
 424.942382812 800 l 6
 582.64453125 799.813476562 778.448242188 799.612304688 778.448242188 583.29296875 c 4
 778.448242188 469.407226562 742.05859375 405.055664062 623.088867188 373.64453125 c 4
 574.295898438 358.217773438 512.16015625 357.5 430 357.5 c 6
 229.149122807 357.5 l 1
 229.149122807 0 l 1
 72 0 l 1
 72 800 l 1
616.189453125 537.282226562 m 4
 620.236328125 545.473632812 623.420898438 560.462890625 623.420898438 583.401367188 c 4
 623.420898438 621.209960938 611.591796875 631.124023438 585.030273438 638.918945312 c 4
 556.091796875 647.412109375 503.375976562 651 426.771484375 651 c 6
 229.149122807 651 l 1
 229.149122807 505.5 l 1
 428.64453125 505.5 l 6
 578.858398438 505.5 605.638671875 515.922851562 616.189453125 537.282226562 c 4
EndSplineSet
EndUndoOperation
UndoOperation
Index: 5
Type: 3
WasModified: 0
WasOrder2: 0
Layer: 2
HStem: 0 21G<72 229.149> 357.5 148<229.149 608.767> 651 149<229.149 606.097>
VStem: 72 157.149<0 357.5 505.5 651> 623.421 155.027<523.457 631.206>
EndUndoOperation
UndoOperation
Index: 6
Type: 2
WasModified: 0
WasOrder2: 0
Layer: 2
Width: 850
VWidth: 1000
LBearingChange: 0
UnicodeEnc: 0
InstructionsLength: 0
SplineSet
72 800 m 1
 424.942382812 800 l 6
 582.64453125 799.813476562 778.448242188 799.612304688 778.448242188 583.29296875 c 4
 778.448242188 469.407226562 742.05859375 405.055664062 623.088867188 373.64453125 c 4
 574.295898438 358.217773438 512.16015625 357.5 430 357.5 c 6
 229.149122807 357.5 l 1
 229.149122807 0 l 1
 72 0 l 1
 72 800 l 1
616.189453125 537.282226562 m 4
 620.236328125 545.473632812 623.420898438 560.462890625 623.420898438 583.401367188 c 4
 623.420898438 621.209960938 611.591796875 631.124023438 585.030273438 638.918945312 c 4
 556.091796875 647.412109375 503.375976562 651 426.771484375 651 c 6
 229.149122807 651 l 1
 229.149122807 505.5 l 1
 428.64453125 505.5 l 6
 578.858398438 505.5 605.638671875 515.922851562 616.189453125 537.282226562 c 4
EndSplineSet
EndUndoOperation
UndoOperation
Index: 7
Type: 12
WasModified: 0
WasOrder2: 0
Layer: 0
EndUndoOperation
EndUndoes
Redoes
EndRedoes
EndUndoRedoHistory
Fore
SplineSet
72 800 m 1
 394.942382812 800 l 2
 552.64453125 799.813476562 748.448242188 799.612304688 748.448242188 583.29296875 c 0
 748.448242188 469.407226562 712.05859375 405.055664062 593.088867188 373.64453125 c 0
 544.295898438 358.217773438 482.16015625 357.5 400 357.5 c 2
 229.149122807 357.5 l 1
 229.149122807 0 l 1
 72 0 l 1
 72 800 l 1
586.189453125 537.282226562 m 0
 590.236328125 545.473632812 593.420898438 560.462890625 593.420898438 583.401367188 c 0
 593.420898438 621.209960938 581.591796875 631.124023438 555.030273438 638.918945312 c 0
 526.091796875 647.412109375 473.375976562 651 396.771484375 651 c 2
 229.149122807 651 l 1
 229.149122807 505.5 l 1
 398.64453125 505.5 l 2
 548.858398438 505.5 575.638671875 515.922851562 586.189453125 537.282226562 c 0
EndSplineSet
Validated: 524289
EndChar

StartChar: R
Encoding: 82 82 41
Width: 846
Flags: W
HStem: 0 21G<72 227 643.76 846.82> 357.5 148<227.167 572.776> 651 149<227 601.67>
VStem: 72 155<0 357.5 505.5 651> 620.577 160.528<518.567 631.847>
LayerCount: 2
UndoRedoHistory
Layer: 1
Undoes
UndoOperation
Index: 0
Type: 12
WasModified: 0
WasOrder2: 0
Layer: 0
HStem: 0 21G<72 227 673.76 876.82> 357.5 148<227 603.056> 651 149<227 630.955>
VStem: 72 155<0 357.5 505.5 651> 650.577 160.528<522.043 631.847>
CopiedFrom: Two Weekend Go Bold
EndUndoOperation
UndoOperation
Index: 1
Type: 1
WasModified: 0
WasOrder2: 0
Layer: 2
Width: 876
VWidth: 1000
LBearingChange: 0
UnicodeEnc: 0
InstructionsLength: 0
SplineSet
453.26244791 800 m 2
 616.582244598 799.806619026 781.10546875 799.606445312 781.10546875 584.854492188 c 0
 781.10546875 517.344726562 767.506835938 459.166992188 712.803710938 419.3671875 c 1
 782.661132812 352.485351562 746.10546875 185.077148438 762.881835938 112.482421875 c 0
 767.125976562 94.1162109375 782.758789062 70.62109375 788.8984375 62.0546875 c 0
 796.8203125 51 802.279296875 43.470703125 822.530273438 23.7041015625 c 2
 846.8203125 0 l 1
 649.720703125 0 l 1
 637.799804688 6 626.161132812 22.5244140625 614.740234375 77.3662109375 c 0
 599.16796875 152.147460938 617.669921875 293.083007812 586.931640625 327.139648438 c 0
 586.580078125 327.528320312 575.022460938 338.518554688 541.282226562 348.236328125 c 0
 512.99609375 356.3828125 534.266259355 357.5 456.94108003 357.5 c 2
 457 358 227 357.5 227 357.5 c 1
 227 0 l 1
 72 0 l 1
 72 800 l 1
 72 800 453 800 453.26244791 800 c 2
612.998046875 536.571289062 m 0
 617.165039062 544.923828125 620.577148438 560.09765625 620.577148438 583.401367188 c 0
 620.577148438 620.5390625 608.392578125 631.772460938 579.118164062 639.88671875 c 0
 549.34765625 648.139648438 527.257759334 651 455.079343413 651 c 2
 455 651 227 651 227 651 c 1
 227 505.5 l 1
 227 505.5 457 506 456.94108003 505.5 c 2
 602.984435987 505.5 601.930664062 514.375976562 612.998046875 536.571289062 c 0
EndSplineSet
EndUndoOperation
UndoOperation
Index: 2
Type: 1
WasModified: 0
WasOrder2: 0
Layer: 2
Width: 876
VWidth: 1000
LBearingChange: 0
UnicodeEnc: 0
InstructionsLength: 0
SplineSet
453.26244791 800 m 2
 616.582244598 799.806619026 811.105633591 799.606330901 811.105633591 584.854492188 c 4
 811.105633591 517.344726562 797.507000779 459.166992188 742.803875779 419.3671875 c 5
 812.661442044 352.485277095 776.105861365 185.077545504 792.881445313 112.482421875 c 4
 797.125585937 94.1162109375 812.758957548 70.6215626451 818.898046875 62.0546875 c 4
 826.819921875 51 832.279684089 43.4710700317 852.529882813 23.7041015625 c 6
 876.819921875 0 l 5
 679.7203125 0 l 5
 667.8 6 656.160766491 22.5246034817 644.740647312 77.3662109375 c 4
 629.168314693 152.147545466 647.670406078 293.083312187 616.931683186 327.139648438 c 4
 616.580427794 327.528320312 605.022215496 338.518554688 571.282598864 348.236328125 c 4
 542.996159915 356.3828125 534.266259355 357.5 456.94108003 357.5 c 2
 227 357.5 l 1
 227 0 l 1
 72 0 l 1
 72 800 l 1
 453.26244791 800 l 2
642.998486999 536.571289062 m 4
 647.164558635 544.923828125 650.577465636 560.09765625 650.577465636 583.401367188 c 4
 650.577465636 620.5390625 638.392308134 631.772460938 609.118534288 639.88671875 c 4
 579.347356235 648.139648438 527.257759334 651 455.079343413 651 c 2
 227 651 l 1
 227 505.5 l 1
 456.94108003 505.5 l 2
 602.984435987 505.5 631.930205389 514.375976562 642.998486999 536.571289062 c 4
EndSplineSet
EndUndoOperation
UndoOperation
Index: 3
Type: 3
WasModified: 0
WasOrder2: 0
Layer: 2
HStem: 0 21G<72 227 673.76 876.82> 357.5 148<227 603.056> 651 149<227 630.955>
VStem: 72 155<0 357.5 505.5 651> 650.577 160.528<522.043 631.847>
EndUndoOperation
UndoOperation
Index: 4
Type: 2
WasModified: 0
WasOrder2: 0
Layer: 2
Width: 876
VWidth: 1000
LBearingChange: 0
UnicodeEnc: 0
InstructionsLength: 0
SplineSet
453.26244791 800 m 2
 616.582244598 799.806619026 811.105633591 799.606330901 811.105633591 584.854492188 c 4
 811.105633591 517.344726562 797.507000779 459.166992188 742.803875779 419.3671875 c 5
 812.661442044 352.485277095 776.105861365 185.077545504 792.881445313 112.482421875 c 4
 797.125585937 94.1162109375 812.758957548 70.6215626451 818.898046875 62.0546875 c 4
 826.819921875 51 832.279684089 43.4710700317 852.529882813 23.7041015625 c 6
 876.819921875 0 l 5
 679.7203125 0 l 5
 667.8 6 656.160766491 22.5246034817 644.740647312 77.3662109375 c 4
 629.168314693 152.147545466 647.670406078 293.083312187 616.931683186 327.139648438 c 4
 616.580427794 327.528320312 605.022215496 338.518554688 571.282598864 348.236328125 c 4
 542.996159915 356.3828125 534.266259355 357.5 456.94108003 357.5 c 2
 227 357.5 l 1
 227 0 l 1
 72 0 l 1
 72 800 l 1
 453.26244791 800 l 2
642.998486999 536.571289062 m 4
 647.164558635 544.923828125 650.577465636 560.09765625 650.577465636 583.401367188 c 4
 650.577465636 620.5390625 638.392308134 631.772460938 609.118534288 639.88671875 c 4
 579.347356235 648.139648438 527.257759334 651 455.079343413 651 c 2
 227 651 l 1
 227 505.5 l 1
 456.94108003 505.5 l 2
 602.984435987 505.5 631.930205389 514.375976562 642.998486999 536.571289062 c 4
EndSplineSet
EndUndoOperation
UndoOperation
Index: 5
Type: 12
WasModified: 0
WasOrder2: 0
Layer: 0
EndUndoOperation
EndUndoes
Redoes
EndRedoes
EndUndoRedoHistory
Fore
SplineSet
453.26244791 800 m 6
 616.582244598 799.806619026 781.10546875 799.606445312 781.10546875 584.854492188 c 4
 781.10546875 517.344726562 767.506835938 459.166992188 712.803710938 419.3671875 c 5
 782.661132812 352.485351562 746.10546875 185.077148438 762.881835938 112.482421875 c 4
 767.125976562 94.1162109375 782.758789062 70.62109375 788.8984375 62.0546875 c 4
 796.8203125 51 802.279296875 43.470703125 822.530273438 23.7041015625 c 6
 846.8203125 0 l 5
 649.720703125 0 l 5
 637.799804688 6 626.161132812 22.5244140625 614.740234375 77.3662109375 c 4
 599.16796875 152.147460938 617.669921875 293.083007812 586.931640625 327.139648438 c 4
 586.580078125 327.528320312 575.022460938 338.518554688 541.282226562 348.236328125 c 4
 512.99609375 356.3828125 534.266259355 357.5 456.94108003 357.5 c 6
 457 358 227 357.5 227 357.5 c 5
 227 0 l 5
 72 0 l 5
 72 800 l 5
 72 800 453 800 453.26244791 800 c 6
612.998046875 536.571289062 m 4
 617.165039062 544.923828125 620.577148438 560.09765625 620.577148438 583.401367188 c 4
 620.577148438 620.5390625 608.392578125 631.772460938 579.118164062 639.88671875 c 4
 549.34765625 648.139648438 527.257759334 651 455.079343413 651 c 6
 455 651 227 651 227 651 c 5
 227 505.5 l 5
 227 505.5 457 506 456.94108003 505.5 c 6
 602.984435987 505.5 601.930664062 514.375976562 612.998046875 536.571289062 c 4
EndSplineSet
Validated: 524321
EndChar

StartChar: question
Encoding: 63 63 42
Width: 610
Flags: W
HStem: 0 130<222 381> 697.499 133.501<199.068 407.405>
VStem: 34 147.256<542 677.75> 222 159<0 130 202 315.123> 429.839 146.161<528.605 676.529>
LayerCount: 2
UndoRedoHistory
Layer: 1
Undoes
UndoOperation
Index: 0
Type: 12
WasModified: 1
WasOrder2: 0
Layer: 0
HStem: 0 130<222 381> 697.499 133.501<199.068 407.405>
VStem: 34 147.256<542 677.75> 222 159<0 130 202 315.123> 429.839 146.164<530.916 587.919 587.922 676.41>
EndUndoOperation
EndUndoes
Redoes
EndRedoes
EndUndoRedoHistory
Fore
SplineSet
222 130 m 5
 381 130 l 5
 381 0 l 5
 222 0 l 5
 222 130 l 5
222 202 m 1
 222.685860441 280.5 l 2
 222.686710813 341.518554679 257.561140151 381.25390625 286.248389402 408.53515625 c 0
 411.512353512 530.578125 l 2
 418.861970554 537.739257812 429.839017013 547.5390625 429.839017013 596.5 c 0
 429.839017013 649.08984375 419.265491466 669.473632812 404.034972592 679.84765625 c 0
 390.403631582 689.1328125 360.7070477 697.499023438 306.090119548 697.499023438 c 0
 194.629977683 697.499023438 181.256293826 665.5 181.256293826 635.5 c 2
 181.256293826 542 l 1
 34 542 l 1
 34 635.5 l 2
 34 742.260742188 121.84375 807.568359375 192.143905571 821.24609375 c 0
 231.03842392 828.512695312 261.084229067 831 304.999867795 831 c 0
 377.641084938 831 476.59375 829.15234375 534.83203125 749.536132812 c 0
 568.084960938 704.077148438 576 652.666992188 576 591.510742188 c 0
 576 565.177729676 576 493.804889851 522.328125 438.944335938 c 2
 404.533251714 318.227539062 l 0
 391.567347565 306.526367188 380.770628421 285.541991672 380.772364631 258.5 c 2
 381 202 l 1
 222 202 l 1
EndSplineSet
Validated: 33
EndChar

StartChar: exclam
Encoding: 33 33 43
Width: 305
Flags: MW
HStem: 0 130<73 232>
VStem: 73 159<0 130 424.057 825>
LayerCount: 2
UndoRedoHistory
Layer: 1
Undoes
UndoOperation
Index: 0
Type: 12
WasModified: 0
WasOrder2: 0
Layer: 0
HStem: 0 130<73 232>
VStem: 73 159<0 130 424.057 825> 87.3428 127.788<176 351.943>
EndUndoOperation
EndUndoes
Redoes
EndRedoes
EndUndoRedoHistory
Fore
SplineSet
73 130 m 5
 232 130 l 5
 232 0 l 5
 73 0 l 5
 73 130 l 5
73 600 m 5
 73 825 l 5
 232 825 l 5
 232 600 l 6
 215.130859375 176 l 5
 87.3427734375 176 l 5
 73 600 l 5
EndSplineSet
Validated: 1
EndChar

StartChar: quotedbl
Encoding: 34 34 44
Width: 406
Flags: W
HStem: 571.1 253.9<63.0585 171.942 233.058 341.942>
VStem: 49 137<584.431 825> 219 137<584.475 825>
LayerCount: 2
UndoRedoHistory
Layer: 1
Undoes
UndoOperation
Index: 0
Type: 12
WasModified: 1
WasOrder2: 0
Layer: 0
HStem: 571.1 253.9<63.0585 105.7 105.724 181.942 223.058 265.7 265.724 341.942>
VStem: 49 147<584.475 825> 209 147<584.475 825>
EndUndoOperation
EndUndoes
Redoes
EndRedoes
EndUndoRedoHistory
Fore
SplineSet
356 691.400390625 m 2
 356 668 355.574537603 650.009737814 354.34375 635.900390625 c 0
 353.147460938 622.186523438 349 571 299.299804688 571.099609375 c 2
 275.700195312 571.099609375 l 2
 226 571.099609375 221.852539062 622.185546875 220.65625 635.899414062 c 0
 219.424804688 650.009765625 219 667.591796875 219 691.400390625 c 2
 219 825 l 1
 356 825 l 1
 356 691.400390625 l 2
186 691.400390625 m 2
 186 668 185.57421875 650.009765625 184.34375 635.900390625 c 0
 183.147460938 622.186523438 179 571 129.299804688 571.099609375 c 2
 105.700195312 571.099609375 l 2
 56 571 51.8525390625 622.186523438 50.65625 635.900390625 c 0
 49.4248046875 650.009765625 49 667.591796875 49 691.400390625 c 2
 49 825 l 1
 186 825 l 1
 186 691.400390625 l 2
EndSplineSet
Validated: 33
EndChar

StartChar: U
Encoding: 85 85 45
Width: 940
Flags: W
HStem: -12.1963 143.524<258.859 677.141> 780 20G<67 219 717 869>
VStem: 67 152<170.828 800> 717 152<170.828 800>
LayerCount: 2
UndoRedoHistory
Layer: 1
Undoes
UndoOperation
Index: 0
Type: 12
WasModified: 0
WasOrder2: 0
Layer: 0
HStem: -12.1963 143.524<250.689 685.312> 780 20G<67 219 717 869>
VStem: 67 152<162.37 800> 717 152<162.37 800>
EndUndoOperation
EndUndoes
Redoes
EndRedoes
EndUndoRedoHistory
Fore
SplineSet
468 131.328125 m 4
 717 131.328125 717 131.328125 717 338.874023438 c 6
 717 800 l 5
 869 800 l 5
 869 330.774414062 l 6
 869 261.1015625 867.890625 211.124023438 862.501953125 170.815429688 c 4
 838.040039062 -12.1962890625 703.311523438 -12.1962890625 468 -12.1962890625 c 4
 232.688580908 -12.1962890625 97.9599609375 -12.1962890625 73.498046875 170.815429688 c 4
 68.1102593884 211.124141658 67 261.1015625 67 330.774414062 c 6
 67 800 l 5
 219 800 l 5
 219 338.874023438 l 6
 219 131.328125 219 131.328125 468 131.328125 c 4
EndSplineSet
Validated: 1
EndChar

StartChar: grave
Encoding: 96 96 46
Width: 395
Flags: W
VStem: 42.9863 298.987
LayerCount: 2
UndoRedoHistory
Layer: 1
Undoes
UndoOperation
Index: 0
Type: 1
WasModified: 0
WasOrder2: 0
Layer: 2
Width: 395
VWidth: 1000
LBearingChange: 0
UnicodeEnc: 0
InstructionsLength: 0
EndUndoOperation
EndUndoes
Redoes
EndRedoes
EndUndoRedoHistory
Fore
SplineSet
159.768554688 658.16796875 m 6
 42.986328125 825 l 5
 246.525390625 825 l 5
 330.376953125 698.973632812 l 4
 336.775390625 685.924804688 341.973632812 673.3203125 341.973632812 658.727539062 c 4
 341.973632812 650.608398438 340.453125 633.134765625 322.14453125 620.748046875 c 5
 308.779296875 611.260742188 l 6
 289.56090411 597.618576053 230.236328125 592.002929688 210.176251634 607.153809481 c 4
 205.846679688 610.423828125 182.479532237 625.723660847 159.768554688 658.16796875 c 6
EndSplineSet
Validated: 33
EndChar

StartChar: V
Encoding: 86 86 47
Width: 860
Flags: W
HStem: 0 21G<363.566 575.658> 780 20G<42 209.595 694.32 860.812>
LayerCount: 2
UndoRedoHistory
Layer: 1
Undoes
UndoOperation
Index: 0
Type: 12
WasModified: 0
WasOrder2: 0
Layer: 0
EndUndoOperation
EndUndoes
Redoes
EndRedoes
EndUndoRedoHistory
Fore
SplineSet
371.81171875 0 m 0
 42 800 l 1
 201.2359375 800 l 1
 470.328026843 156.180664062 l 1
 701.5015625 800 l 1
 860.811718752 800 l 1
 568.345898437 0 l 2
 371.81171875 0 l 0
EndSplineSet
Validated: 1
EndChar

StartChar: W
Encoding: 87 87 48
Width: 1225
Flags: W
HStem: 0 21G<269.597 472.328 797.937 1000.33> 780 20G<42 212.532 533.319 719.495 1035.35 1204.75>
LayerCount: 2
UndoRedoHistory
Layer: 1
Undoes
UndoOperation
Index: 0
Type: 12
WasModified: 0
WasOrder2: 0
Layer: 0
EndUndoOperation
EndUndoes
Redoes
EndRedoes
EndUndoRedoHistory
Fore
SplineSet
803.405273438 0 m 2
 627.868554688 642 l 1
 467.327148438 0 l 2
 275.432617188 0 l 2
 42 800 l 1
 206.870117188 800 l 1
 378.514214508 193.649414062 l 1
 538.599023438 800 l 2
 713.777929687 800 l 2
 887.367826749 192.725585938 l 1
 1040.39453125 800 l 1
 1204.74609375 800 l 1
 995.088867188 0 l 2
 803.405273438 0 l 2
EndSplineSet
Validated: 1
EndChar

StartChar: A
Encoding: 65 65 49
Width: 910
Flags: W
HStem: 0 21G<45 222.825 683.721 863.149> 200.5 143<350.446 556.099> 791.42 20G<390.748 523.809>
LayerCount: 2
UndoRedoHistory
Layer: 1
Undoes
UndoOperation
Index: 0
Type: 1
WasModified: 1
WasOrder2: 0
Layer: 2
Width: 905
VWidth: 1000
LBearingChange: 0
UnicodeEnc: 0
InstructionsLength: 0
SplineSet
350.446123997 343.5 m 1
 556.099188502 343.5 l 1
 453.273063966 613.215820312 l 1
 350.446123997 343.5 l 1
295.928707597 200.5 m 1
 214.724609375 -0 l 1
 45 0 l 1
 390.748046875 810.98828125 l 1
 515.233398438 811.419921875 l 1
 863.148828125 0 l 1
 691.820703125 0 l 1
 610.616604903 200.5 l 1
 295.928707597 200.5 l 1
EndSplineSet
EndUndoOperation
EndUndoes
Redoes
EndRedoes
EndUndoRedoHistory
Fore
SplineSet
350.446123997 343.5 m 5
 556.099188502 343.5 l 5
 453.273063966 613.215820312 l 5
 350.446123997 343.5 l 5
295.928707597 200.5 m 5
 214.724609375 -0 l 5
 45 0 l 5
 390.748046875 810.98828125 l 5
 515.233398438 811.419921875 l 5
 863.148828125 0 l 5
 691.820703125 0 l 5
 610.616604903 200.5 l 5
 295.928707597 200.5 l 5
EndSplineSet
Validated: 1
EndChar

StartChar: plusminus
Encoding: 177 177 50
Width: 720
Flags: W
HStem: -142.5 149<67.5 652.5> 206.5 149<67.5 285.5 434.5 652.5>
VStem: 285.5 149<17.75 206.5 355.5 544.25>
LayerCount: 2
UndoRedoHistory
Layer: 1
Undoes
UndoOperation
Index: 0
Type: 12
WasModified: 1
WasOrder2: 0
Layer: 0
CopiedFrom: Two Weekend Go Bold
EndUndoOperation
UndoOperation
Index: 1
Type: 1
WasModified: 1
WasOrder2: 0
Layer: 2
Width: 720
VWidth: 1000
LBearingChange: 0
UnicodeEnc: 0
InstructionsLength: 0
SplineSet
67.5 -142.5 m 1
 67.5 6.5 l 1
 652.5 6.5 l 1
 652.5 -142.5 l 1
 67.5 -142.5 l 1
285.5 543.25 m 5
 434.5 543.25 l 5
 434.5 354.5 l 5
 652.5 354.5 l 5
 652.5 205.5 l 5
 434.5 205.5 l 5
 434.5 16.75 l 5
 285.5 16.75 l 5
 285.5 205.5 l 5
 67.5 205.5 l 5
 67.5 354.5 l 5
 285.5 354.5 l 5
 285.5 543.25 l 5
EndSplineSet
EndUndoOperation
UndoOperation
Index: 2
Type: 1
WasModified: 1
WasOrder2: 0
Layer: 2
Width: 720
VWidth: 1000
LBearingChange: 0
UnicodeEnc: 0
InstructionsLength: 0
SplineSet
67.5 -142.5 m 1
 67.5 6.5 l 1
 652.5 6.5 l 1
 652.5 -142.5 l 1
 67.5 -142.5 l 1
285.5 542.25 m 5
 434.5 542.25 l 5
 434.5 353.5 l 5
 652.5 353.5 l 5
 652.5 204.5 l 5
 434.5 204.5 l 5
 434.5 15.75 l 5
 285.5 15.75 l 5
 285.5 204.5 l 5
 67.5 204.5 l 5
 67.5 353.5 l 5
 285.5 353.5 l 5
 285.5 542.25 l 5
EndSplineSet
EndUndoOperation
UndoOperation
Index: 3
Type: 1
WasModified: 1
WasOrder2: 0
Layer: 2
Width: 720
VWidth: 1000
LBearingChange: 0
UnicodeEnc: 0
InstructionsLength: 0
SplineSet
67.5 -142.5 m 1
 67.5 6.5 l 1
 652.5 6.5 l 1
 652.5 -142.5 l 1
 67.5 -142.5 l 1
285.5 541.25 m 5
 434.5 541.25 l 5
 434.5 352.5 l 5
 652.5 352.5 l 5
 652.5 203.5 l 5
 434.5 203.5 l 5
 434.5 14.75 l 5
 285.5 14.75 l 5
 285.5 203.5 l 5
 67.5 203.5 l 5
 67.5 352.5 l 5
 285.5 352.5 l 5
 285.5 541.25 l 5
EndSplineSet
EndUndoOperation
UndoOperation
Index: 4
Type: 1
WasModified: 1
WasOrder2: 0
Layer: 2
Width: 720
VWidth: 1000
LBearingChange: 0
UnicodeEnc: 0
InstructionsLength: 0
SplineSet
67.5 -142.5 m 1
 67.5 6.5 l 1
 652.5 6.5 l 1
 652.5 -142.5 l 1
 67.5 -142.5 l 1
285.5 540.25 m 5
 434.5 540.25 l 5
 434.5 351.5 l 5
 652.5 351.5 l 5
 652.5 202.5 l 5
 434.5 202.5 l 5
 434.5 13.75 l 5
 285.5 13.75 l 5
 285.5 202.5 l 5
 67.5 202.5 l 5
 67.5 351.5 l 5
 285.5 351.5 l 5
 285.5 540.25 l 5
EndSplineSet
EndUndoOperation
UndoOperation
Index: 5
Type: 1
WasModified: 1
WasOrder2: 0
Layer: 2
Width: 720
VWidth: 1000
LBearingChange: 0
UnicodeEnc: 0
InstructionsLength: 0
SplineSet
67.5 -142.5 m 1
 67.5 6.5 l 1
 652.5 6.5 l 1
 652.5 -142.5 l 1
 67.5 -142.5 l 1
285.5 539.25 m 5
 434.5 539.25 l 5
 434.5 350.5 l 5
 652.5 350.5 l 5
 652.5 201.5 l 5
 434.5 201.5 l 5
 434.5 12.75 l 5
 285.5 12.75 l 5
 285.5 201.5 l 5
 67.5 201.5 l 5
 67.5 350.5 l 5
 285.5 350.5 l 5
 285.5 539.25 l 5
EndSplineSet
EndUndoOperation
UndoOperation
Index: 6
Type: 1
WasModified: 1
WasOrder2: 0
Layer: 2
Width: 720
VWidth: 1000
LBearingChange: 0
UnicodeEnc: 0
InstructionsLength: 0
SplineSet
67.5 -142.5 m 1
 67.5 6.5 l 1
 652.5 6.5 l 1
 652.5 -142.5 l 1
 67.5 -142.5 l 1
285.5 538.25 m 5
 434.5 538.25 l 5
 434.5 349.5 l 5
 652.5 349.5 l 5
 652.5 200.5 l 5
 434.5 200.5 l 5
 434.5 11.75 l 5
 285.5 11.75 l 5
 285.5 200.5 l 5
 67.5 200.5 l 5
 67.5 349.5 l 5
 285.5 349.5 l 5
 285.5 538.25 l 5
EndSplineSet
EndUndoOperation
UndoOperation
Index: 7
Type: 1
WasModified: 1
WasOrder2: 0
Layer: 2
Width: 720
VWidth: 1000
LBearingChange: 0
UnicodeEnc: 0
InstructionsLength: 0
SplineSet
67.5 -142.5 m 1
 67.5 6.5 l 1
 652.5 6.5 l 1
 652.5 -142.5 l 1
 67.5 -142.5 l 1
285.5 537.25 m 5
 434.5 537.25 l 5
 434.5 348.5 l 5
 652.5 348.5 l 5
 652.5 199.5 l 5
 434.5 199.5 l 5
 434.5 10.75 l 5
 285.5 10.75 l 5
 285.5 199.5 l 5
 67.5 199.5 l 5
 67.5 348.5 l 5
 285.5 348.5 l 5
 285.5 537.25 l 5
EndSplineSet
EndUndoOperation
UndoOperation
Index: 8
Type: 1
WasModified: 1
WasOrder2: 0
Layer: 2
Width: 720
VWidth: 1000
LBearingChange: 0
UnicodeEnc: 0
InstructionsLength: 0
SplineSet
67.5 -142.5 m 1
 67.5 6.5 l 1
 652.5 6.5 l 1
 652.5 -142.5 l 1
 67.5 -142.5 l 1
285.5 536.25 m 5
 434.5 536.25 l 5
 434.5 347.5 l 5
 652.5 347.5 l 5
 652.5 198.5 l 5
 434.5 198.5 l 5
 434.5 9.75 l 5
 285.5 9.75 l 5
 285.5 198.5 l 5
 67.5 198.5 l 5
 67.5 347.5 l 5
 285.5 347.5 l 5
 285.5 536.25 l 5
EndSplineSet
EndUndoOperation
UndoOperation
Index: 9
Type: 1
WasModified: 1
WasOrder2: 0
Layer: 2
Width: 720
VWidth: 1000
LBearingChange: 0
UnicodeEnc: 0
InstructionsLength: 0
SplineSet
67.5 -142.5 m 1
 67.5 6.5 l 1
 652.5 6.5 l 1
 652.5 -142.5 l 1
 67.5 -142.5 l 1
285.5 535.25 m 5
 434.5 535.25 l 5
 434.5 346.5 l 5
 652.5 346.5 l 5
 652.5 197.5 l 5
 434.5 197.5 l 5
 434.5 8.75 l 5
 285.5 8.75 l 5
 285.5 197.5 l 5
 67.5 197.5 l 5
 67.5 346.5 l 5
 285.5 346.5 l 5
 285.5 535.25 l 5
EndSplineSet
EndUndoOperation
UndoOperation
Index: 10
Type: 1
WasModified: 1
WasOrder2: 0
Layer: 2
Width: 720
VWidth: 1000
LBearingChange: 0
UnicodeEnc: 0
InstructionsLength: 0
SplineSet
67.5 -142.5 m 1
 67.5 6.5 l 1
 652.5 6.5 l 1
 652.5 -142.5 l 1
 67.5 -142.5 l 1
285.5 534.25 m 5
 434.5 534.25 l 5
 434.5 345.5 l 5
 652.5 345.5 l 5
 652.5 196.5 l 5
 434.5 196.5 l 5
 434.5 7.75 l 5
 285.5 7.75 l 5
 285.5 196.5 l 5
 67.5 196.5 l 5
 67.5 345.5 l 5
 285.5 345.5 l 5
 285.5 534.25 l 5
EndSplineSet
EndUndoOperation
UndoOperation
Index: 11
Type: 1
WasModified: 1
WasOrder2: 0
Layer: 2
Width: 720
VWidth: 1000
LBearingChange: 0
UnicodeEnc: 0
InstructionsLength: 0
SplineSet
67.5 -142.5 m 1
 67.5 6.5 l 1
 652.5 6.5 l 1
 652.5 -142.5 l 1
 67.5 -142.5 l 1
285.5 533.25 m 5
 434.5 533.25 l 5
 434.5 344.5 l 5
 652.5 344.5 l 5
 652.5 195.5 l 5
 434.5 195.5 l 5
 434.5 6.75 l 5
 285.5 6.75 l 5
 285.5 195.5 l 5
 67.5 195.5 l 5
 67.5 344.5 l 5
 285.5 344.5 l 5
 285.5 533.25 l 5
EndSplineSet
EndUndoOperation
UndoOperation
Index: 12
Type: 1
WasModified: 1
WasOrder2: 0
Layer: 2
Width: 720
VWidth: 1000
LBearingChange: 0
UnicodeEnc: 0
InstructionsLength: 0
SplineSet
67.5 -142.5 m 1
 67.5 6.5 l 1
 652.5 6.5 l 1
 652.5 -142.5 l 1
 67.5 -142.5 l 1
285.5 532.25 m 5
 434.5 532.25 l 5
 434.5 343.5 l 5
 652.5 343.5 l 5
 652.5 194.5 l 5
 434.5 194.5 l 5
 434.5 5.75 l 5
 285.5 5.75 l 5
 285.5 194.5 l 5
 67.5 194.5 l 5
 67.5 343.5 l 5
 285.5 343.5 l 5
 285.5 532.25 l 5
EndSplineSet
EndUndoOperation
UndoOperation
Index: 13
Type: 1
WasModified: 1
WasOrder2: 0
Layer: 2
Width: 720
VWidth: 1000
LBearingChange: 0
UnicodeEnc: 0
InstructionsLength: 0
SplineSet
67.5 -142.5 m 1
 67.5 6.5 l 1
 652.5 6.5 l 1
 652.5 -142.5 l 1
 67.5 -142.5 l 1
285.5 531.25 m 5
 434.5 531.25 l 5
 434.5 342.5 l 5
 652.5 342.5 l 5
 652.5 193.5 l 5
 434.5 193.5 l 5
 434.5 4.75 l 5
 285.5 4.75 l 5
 285.5 193.5 l 5
 67.5 193.5 l 5
 67.5 342.5 l 5
 285.5 342.5 l 5
 285.5 531.25 l 5
EndSplineSet
EndUndoOperation
UndoOperation
Index: 14
Type: 1
WasModified: 1
WasOrder2: 0
Layer: 2
Width: 720
VWidth: 1000
LBearingChange: 0
UnicodeEnc: 0
InstructionsLength: 0
SplineSet
67.5 -142.5 m 1
 67.5 6.5 l 1
 652.5 6.5 l 1
 652.5 -142.5 l 1
 67.5 -142.5 l 1
285.5 530.25 m 5
 434.5 530.25 l 5
 434.5 341.5 l 5
 652.5 341.5 l 5
 652.5 192.5 l 5
 434.5 192.5 l 5
 434.5 3.75 l 5
 285.5 3.75 l 5
 285.5 192.5 l 5
 67.5 192.5 l 5
 67.5 341.5 l 5
 285.5 341.5 l 5
 285.5 530.25 l 5
EndSplineSet
EndUndoOperation
UndoOperation
Index: 15
Type: 1
WasModified: 1
WasOrder2: 0
Layer: 2
Width: 720
VWidth: 1000
LBearingChange: 0
UnicodeEnc: 0
InstructionsLength: 0
SplineSet
67.5 -142.5 m 1
 67.5 6.5 l 1
 652.5 6.5 l 1
 652.5 -142.5 l 1
 67.5 -142.5 l 1
285.5 529.25 m 5
 434.5 529.25 l 5
 434.5 340.5 l 5
 652.5 340.5 l 5
 652.5 191.5 l 5
 434.5 191.5 l 5
 434.5 2.75 l 5
 285.5 2.75 l 5
 285.5 191.5 l 5
 67.5 191.5 l 5
 67.5 340.5 l 5
 285.5 340.5 l 5
 285.5 529.25 l 5
EndSplineSet
EndUndoOperation
UndoOperation
Index: 16
Type: 1
WasModified: 1
WasOrder2: 0
Layer: 2
Width: 720
VWidth: 1000
LBearingChange: 0
UnicodeEnc: 0
InstructionsLength: 0
SplineSet
67.5 -142.5 m 1
 67.5 6.5 l 1
 652.5 6.5 l 1
 652.5 -142.5 l 1
 67.5 -142.5 l 1
285.5 528.25 m 5
 434.5 528.25 l 5
 434.5 339.5 l 5
 652.5 339.5 l 5
 652.5 190.5 l 5
 434.5 190.5 l 5
 434.5 1.75 l 5
 285.5 1.75 l 5
 285.5 190.5 l 5
 67.5 190.5 l 5
 67.5 339.5 l 5
 285.5 339.5 l 5
 285.5 528.25 l 5
EndSplineSet
EndUndoOperation
UndoOperation
Index: 17
Type: 1
WasModified: 1
WasOrder2: 0
Layer: 2
Width: 720
VWidth: 1000
LBearingChange: 0
UnicodeEnc: 0
InstructionsLength: 0
SplineSet
67.5 -142.5 m 1
 67.5 6.5 l 1
 652.5 6.5 l 1
 652.5 -142.5 l 1
 67.5 -142.5 l 1
285.5 527.25 m 5
 434.5 527.25 l 5
 434.5 338.5 l 5
 652.5 338.5 l 5
 652.5 189.5 l 5
 434.5 189.5 l 5
 434.5 0.75 l 5
 285.5 0.75 l 5
 285.5 189.5 l 5
 67.5 189.5 l 5
 67.5 338.5 l 5
 285.5 338.5 l 5
 285.5 527.25 l 5
EndSplineSet
EndUndoOperation
UndoOperation
Index: 18
Type: 1
WasModified: 1
WasOrder2: 0
Layer: 2
Width: 720
VWidth: 1000
LBearingChange: 0
UnicodeEnc: 0
InstructionsLength: 0
SplineSet
67.5 -142.5 m 1
 67.5 6.5 l 1
 652.5 6.5 l 1
 652.5 -142.5 l 1
 67.5 -142.5 l 1
285.5 526.25 m 5
 434.5 526.25 l 5
 434.5 337.5 l 5
 652.5 337.5 l 5
 652.5 188.5 l 5
 434.5 188.5 l 5
 434.5 -0.25 l 5
 285.5 -0.25 l 5
 285.5 188.5 l 5
 67.5 188.5 l 5
 67.5 337.5 l 5
 285.5 337.5 l 5
 285.5 526.25 l 5
EndSplineSet
EndUndoOperation
UndoOperation
Index: 19
Type: 1
WasModified: 1
WasOrder2: 0
Layer: 2
Width: 720
VWidth: 1000
LBearingChange: 0
UnicodeEnc: 0
InstructionsLength: 0
SplineSet
67.5 -142.5 m 1
 67.5 6.5 l 1
 652.5 6.5 l 1
 652.5 -142.5 l 1
 67.5 -142.5 l 1
285.5 525.25 m 5
 434.5 525.25 l 5
 434.5 336.5 l 5
 652.5 336.5 l 5
 652.5 187.5 l 5
 434.5 187.5 l 5
 434.5 -1.25 l 5
 285.5 -1.25 l 5
 285.5 187.5 l 5
 67.5 187.5 l 5
 67.5 336.5 l 5
 285.5 336.5 l 5
 285.5 525.25 l 5
EndSplineSet
EndUndoOperation
UndoOperation
Index: 20
Type: 1
WasModified: 1
WasOrder2: 0
Layer: 2
Width: 720
VWidth: 1000
LBearingChange: 0
UnicodeEnc: 0
InstructionsLength: 0
SplineSet
67.5 -142.5 m 1
 67.5 6.5 l 1
 652.5 6.5 l 1
 652.5 -142.5 l 1
 67.5 -142.5 l 1
285.5 524.25 m 5
 434.5 524.25 l 5
 434.5 335.5 l 5
 652.5 335.5 l 5
 652.5 186.5 l 5
 434.5 186.5 l 5
 434.5 -2.25 l 5
 285.5 -2.25 l 5
 285.5 186.5 l 5
 67.5 186.5 l 5
 67.5 335.5 l 5
 285.5 335.5 l 5
 285.5 524.25 l 5
EndSplineSet
EndUndoOperation
UndoOperation
Index: 21
Type: 1
WasModified: 1
WasOrder2: 0
Layer: 2
Width: 720
VWidth: 1000
LBearingChange: 0
UnicodeEnc: 0
InstructionsLength: 0
SplineSet
67.5 -142.5 m 1
 67.5 6.5 l 1
 652.5 6.5 l 1
 652.5 -142.5 l 1
 67.5 -142.5 l 1
285.5 523.25 m 5
 434.5 523.25 l 5
 434.5 334.5 l 5
 652.5 334.5 l 5
 652.5 185.5 l 5
 434.5 185.5 l 5
 434.5 -3.25 l 5
 285.5 -3.25 l 5
 285.5 185.5 l 5
 67.5 185.5 l 5
 67.5 334.5 l 5
 285.5 334.5 l 5
 285.5 523.25 l 5
EndSplineSet
EndUndoOperation
UndoOperation
Index: 22
Type: 1
WasModified: 1
WasOrder2: 0
Layer: 2
Width: 720
VWidth: 1000
LBearingChange: 0
UnicodeEnc: 0
InstructionsLength: 0
SplineSet
67.5 -142.5 m 1
 67.5 6.5 l 1
 652.5 6.5 l 1
 652.5 -142.5 l 1
 67.5 -142.5 l 1
285.5 522.25 m 5
 434.5 522.25 l 5
 434.5 333.5 l 5
 652.5 333.5 l 5
 652.5 184.5 l 5
 434.5 184.5 l 5
 434.5 -4.25 l 5
 285.5 -4.25 l 5
 285.5 184.5 l 5
 67.5 184.5 l 5
 67.5 333.5 l 5
 285.5 333.5 l 5
 285.5 522.25 l 5
EndSplineSet
EndUndoOperation
UndoOperation
Index: 23
Type: 1
WasModified: 1
WasOrder2: 0
Layer: 2
Width: 720
VWidth: 1000
LBearingChange: 0
UnicodeEnc: 0
InstructionsLength: 0
SplineSet
67.5 -142.5 m 1
 67.5 6.5 l 1
 652.5 6.5 l 1
 652.5 -142.5 l 1
 67.5 -142.5 l 1
285.5 521.25 m 5
 434.5 521.25 l 5
 434.5 332.5 l 5
 652.5 332.5 l 5
 652.5 183.5 l 5
 434.5 183.5 l 5
 434.5 -5.25 l 5
 285.5 -5.25 l 5
 285.5 183.5 l 5
 67.5 183.5 l 5
 67.5 332.5 l 5
 285.5 332.5 l 5
 285.5 521.25 l 5
EndSplineSet
EndUndoOperation
UndoOperation
Index: 24
Type: 1
WasModified: 1
WasOrder2: 0
Layer: 2
Width: 720
VWidth: 1000
LBearingChange: 0
UnicodeEnc: 0
InstructionsLength: 0
SplineSet
67.5 -142.5 m 1
 67.5 6.5 l 1
 652.5 6.5 l 1
 652.5 -142.5 l 1
 67.5 -142.5 l 1
285.5 520.25 m 5
 434.5 520.25 l 5
 434.5 331.5 l 5
 652.5 331.5 l 5
 652.5 182.5 l 5
 434.5 182.5 l 5
 434.5 -6.25 l 5
 285.5 -6.25 l 5
 285.5 182.5 l 5
 67.5 182.5 l 5
 67.5 331.5 l 5
 285.5 331.5 l 5
 285.5 520.25 l 5
EndSplineSet
EndUndoOperation
UndoOperation
Index: 25
Type: 1
WasModified: 1
WasOrder2: 0
Layer: 2
Width: 720
VWidth: 1000
LBearingChange: 0
UnicodeEnc: 0
InstructionsLength: 0
SplineSet
67.5 -142.5 m 1
 67.5 6.5 l 1
 652.5 6.5 l 1
 652.5 -142.5 l 1
 67.5 -142.5 l 1
285.5 519.25 m 5
 434.5 519.25 l 5
 434.5 330.5 l 5
 652.5 330.5 l 5
 652.5 181.5 l 5
 434.5 181.5 l 5
 434.5 -7.25 l 5
 285.5 -7.25 l 5
 285.5 181.5 l 5
 67.5 181.5 l 5
 67.5 330.5 l 5
 285.5 330.5 l 5
 285.5 519.25 l 5
EndSplineSet
EndUndoOperation
UndoOperation
Index: 26
Type: 1
WasModified: 1
WasOrder2: 0
Layer: 2
Width: 720
VWidth: 1000
LBearingChange: 0
UnicodeEnc: 0
InstructionsLength: 0
SplineSet
67.5 -142.5 m 1
 67.5 6.5 l 1
 652.5 6.5 l 1
 652.5 -142.5 l 1
 67.5 -142.5 l 1
285.5 518.25 m 5
 434.5 518.25 l 5
 434.5 329.5 l 5
 652.5 329.5 l 5
 652.5 180.5 l 5
 434.5 180.5 l 5
 434.5 -8.25 l 5
 285.5 -8.25 l 5
 285.5 180.5 l 5
 67.5 180.5 l 5
 67.5 329.5 l 5
 285.5 329.5 l 5
 285.5 518.25 l 5
EndSplineSet
EndUndoOperation
UndoOperation
Index: 27
Type: 1
WasModified: 1
WasOrder2: 0
Layer: 2
Width: 720
VWidth: 1000
LBearingChange: 0
UnicodeEnc: 0
InstructionsLength: 0
SplineSet
67.5 -142.5 m 1
 67.5 6.5 l 1
 652.5 6.5 l 1
 652.5 -142.5 l 1
 67.5 -142.5 l 1
285.5 517.25 m 5
 434.5 517.25 l 5
 434.5 328.5 l 5
 652.5 328.5 l 5
 652.5 179.5 l 5
 434.5 179.5 l 5
 434.5 -9.25 l 5
 285.5 -9.25 l 5
 285.5 179.5 l 5
 67.5 179.5 l 5
 67.5 328.5 l 5
 285.5 328.5 l 5
 285.5 517.25 l 5
EndSplineSet
EndUndoOperation
UndoOperation
Index: 28
Type: 1
WasModified: 1
WasOrder2: 0
Layer: 2
Width: 720
VWidth: 1000
LBearingChange: 0
UnicodeEnc: 0
InstructionsLength: 0
SplineSet
67.5 -142.5 m 1
 67.5 6.5 l 1
 652.5 6.5 l 1
 652.5 -142.5 l 1
 67.5 -142.5 l 1
285.5 516.25 m 5
 434.5 516.25 l 5
 434.5 327.5 l 5
 652.5 327.5 l 5
 652.5 178.5 l 5
 434.5 178.5 l 5
 434.5 -10.25 l 5
 285.5 -10.25 l 5
 285.5 178.5 l 5
 67.5 178.5 l 5
 67.5 327.5 l 5
 285.5 327.5 l 5
 285.5 516.25 l 5
EndSplineSet
EndUndoOperation
UndoOperation
Index: 29
Type: 1
WasModified: 1
WasOrder2: 0
Layer: 2
Width: 720
VWidth: 1000
LBearingChange: 0
UnicodeEnc: 0
InstructionsLength: 0
SplineSet
67.5 -142.5 m 1
 67.5 6.5 l 1
 652.5 6.5 l 1
 652.5 -142.5 l 1
 67.5 -142.5 l 1
285.5 515.25 m 5
 434.5 515.25 l 5
 434.5 326.5 l 5
 652.5 326.5 l 5
 652.5 177.5 l 5
 434.5 177.5 l 5
 434.5 -11.25 l 5
 285.5 -11.25 l 5
 285.5 177.5 l 5
 67.5 177.5 l 5
 67.5 326.5 l 5
 285.5 326.5 l 5
 285.5 515.25 l 5
EndSplineSet
EndUndoOperation
UndoOperation
Index: 30
Type: 1
WasModified: 1
WasOrder2: 0
Layer: 2
Width: 720
VWidth: 1000
LBearingChange: 0
UnicodeEnc: 0
InstructionsLength: 0
SplineSet
67.5 -142.5 m 1
 67.5 6.5 l 1
 652.5 6.5 l 1
 652.5 -142.5 l 1
 67.5 -142.5 l 1
285.5 514.25 m 5
 434.5 514.25 l 5
 434.5 325.5 l 5
 652.5 325.5 l 5
 652.5 176.5 l 5
 434.5 176.5 l 5
 434.5 -12.25 l 5
 285.5 -12.25 l 5
 285.5 176.5 l 5
 67.5 176.5 l 5
 67.5 325.5 l 5
 285.5 325.5 l 5
 285.5 514.25 l 5
EndSplineSet
EndUndoOperation
UndoOperation
Index: 31
Type: 1
WasModified: 1
WasOrder2: 0
Layer: 2
Width: 720
VWidth: 1000
LBearingChange: 0
UnicodeEnc: 0
InstructionsLength: 0
SplineSet
67.5 -142.5 m 1
 67.5 6.5 l 1
 652.5 6.5 l 1
 652.5 -142.5 l 1
 67.5 -142.5 l 1
285.5 513.25 m 5
 434.5 513.25 l 5
 434.5 324.5 l 5
 652.5 324.5 l 5
 652.5 175.5 l 5
 434.5 175.5 l 5
 434.5 -13.25 l 5
 285.5 -13.25 l 5
 285.5 175.5 l 5
 67.5 175.5 l 5
 67.5 324.5 l 5
 285.5 324.5 l 5
 285.5 513.25 l 5
EndSplineSet
EndUndoOperation
UndoOperation
Index: 32
Type: 1
WasModified: 0
WasOrder2: 0
Layer: 2
Width: 720
VWidth: 1000
LBearingChange: 0
UnicodeEnc: 0
InstructionsLength: 0
SplineSet
67.5 -142.5 m 1
 67.5 6.5 l 1
 652.5 6.5 l 1
 652.5 -142.5 l 1
 67.5 -142.5 l 1
285.5 542.5 m 5
 434.5 542.5 l 5
 434.5 324.5 l 1
 652.5 324.5 l 1
 652.5 175.5 l 1
 434.5 175.5 l 1
 434.5 -42.5 l 5
 285.5 -42.5 l 5
 285.5 175.5 l 1
 67.5 175.5 l 1
 67.5 324.5 l 1
 285.5 324.5 l 1
 285.5 542.5 l 5
EndSplineSet
EndUndoOperation
UndoOperation
Index: 33
Type: 3
WasModified: 0
WasOrder2: 0
Layer: 2
EndUndoOperation
UndoOperation
Index: 34
Type: 2
WasModified: 0
WasOrder2: 0
Layer: 2
Width: 720
VWidth: 1000
LBearingChange: 0
UnicodeEnc: 0
InstructionsLength: 0
SplineSet
67.5 -142.5 m 1
 67.5 6.5 l 1
 652.5 6.5 l 1
 652.5 -142.5 l 1
 67.5 -142.5 l 1
285.5 542.5 m 5
 434.5 542.5 l 5
 434.5 324.5 l 1
 652.5 324.5 l 1
 652.5 175.5 l 1
 434.5 175.5 l 1
 434.5 -42.5 l 5
 285.5 -42.5 l 5
 285.5 175.5 l 1
 67.5 175.5 l 1
 67.5 324.5 l 1
 285.5 324.5 l 1
 285.5 542.5 l 5
EndSplineSet
EndUndoOperation
UndoOperation
Index: 35
Type: 2
WasModified: 0
WasOrder2: 0
Layer: 2
Width: 720
VWidth: 1000
LBearingChange: 0
UnicodeEnc: 0
InstructionsLength: 0
SplineSet
67.5 -142.5 m 1
 67.5 6.5 l 1
 652.5 6.5 l 1
 652.5 -142.5 l 1
 67.5 -142.5 l 1
285.5 542.5 m 5
 434.5 542.5 l 5
 434.5 324.5 l 1
 652.5 324.5 l 1
 652.5 175.5 l 1
 434.5 175.5 l 1
 434.5 -42.5 l 5
 285.5 -42.5 l 5
 285.5 175.5 l 1
 67.5 175.5 l 1
 67.5 324.5 l 1
 285.5 324.5 l 1
 285.5 542.5 l 5
EndSplineSet
EndUndoOperation
UndoOperation
Index: 36
Type: 1
WasModified: 0
WasOrder2: 0
Layer: 2
Width: 720
VWidth: 1000
LBearingChange: 0
UnicodeEnc: 0
InstructionsLength: 0
SplineSet
85 -125 m 1xb0
 85 -11 l 1
 635 -11 l 1
 635 -125 l 1
 85 -125 l 1xb0
303 525 m 1
 417 525 l 1
 417 307 l 1
 635 307 l 1
 635 193 l 1
 417 193 l 1
 417 -25 l 1
 303 -25 l 1x70
 303 193 l 1
 85 193 l 1
 85 307 l 1
 303 307 l 1
 303 525 l 1
EndSplineSet
EndUndoOperation
EndUndoes
Redoes
EndRedoes
EndUndoRedoHistory
Fore
SplineSet
67.5 -142.5 m 1
 67.5 6.5 l 1
 652.5 6.5 l 1
 652.5 -142.5 l 1
 67.5 -142.5 l 1
285.5 544.25 m 1
 434.5 544.25 l 1
 434.5 355.5 l 1
 652.5 355.5 l 1
 652.5 206.5 l 1
 434.5 206.5 l 1
 434.5 17.75 l 1
 285.5 17.75 l 1
 285.5 206.5 l 1
 67.5 206.5 l 1
 67.5 355.5 l 1
 285.5 355.5 l 1
 285.5 544.25 l 1
EndSplineSet
Validated: 524289
EndChar

StartChar: exclamdown
Encoding: 161 161 51
Width: 305
Flags: W
HStem: 470 130<73 232>
VStem: 73 159<-225 175.943 470 600> 87.3428 127.788<248.057 424>
LayerCount: 2
UndoRedoHistory
Layer: 1
Undoes
UndoOperation
Index: 0
Type: 1
WasModified: 1
WasOrder2: 0
Layer: 1
Width: 305
VWidth: 1000
LBearingChange: 0
UnicodeEnc: 0
InstructionsLength: 0
SplineSet
117 -225 m 5xa0
 117 120 l 6xa0
 117 122.600585062 122.008554724 353.050246518 129.416047976 379.761945666 c 4
 130.571951238 383.930176285 135.995961936 399 154 399 c 6
 206 399 l 6
 229.442657629 399 231.69318781 376.256898421 232.718509666 365.895340371 c 4x90
 236.874122464 323.900114186 243 166.22507516 243 120 c 6
 243 -225 l 5
 117 -225 l 5xa0
166.5 468 m 6
 130.668249297 468 101.5 497.168249297 101.5 533 c 6
 101.5 560 l 6
 101.5 595.831750703 130.668249297 625 166.5 625 c 6
 193.5 625 l 6
 229.331750703 625 258.5 595.831750703 258.5 560 c 6
 258.5 533 l 6xc0
 258.5 497.168249297 229.331750703 468 193.5 468 c 6
 166.5 468 l 6
EndSplineSet
EndUndoOperation
UndoOperation
Index: 1
Type: 12
WasModified: 1
WasOrder2: 0
Layer: 0
VStem: 73 159<0 175.943> 87.3428 127.788<248.057 424>
EndUndoOperation
EndUndoes
Redoes
EndRedoes
EndUndoRedoHistory
Fore
SplineSet
73 470 m 1xc0
 73 600 l 1
 232 600 l 1
 232 470 l 1
 73 470 l 1xc0
73 0 m 1
 87.3427734375 424 l 1
 215.130859375 424 l 1xa0
 232 0 l 2
 232 -225 l 1
 73 -225 l 1
 73 0 l 1
EndSplineSet
Validated: 524289
EndChar

StartChar: questiondown
Encoding: 191 191 52
Width: 610
Flags: W
HStem: -231 133.501<202.595 410.933> 470 130<229 388>
VStem: 34 146.161<-76.5288 71.3949> 229 159<284.877 398 470 600> 428.744 147.256<-77.7495 58>
LayerCount: 2
UndoRedoHistory
Layer: 1
Undoes
UndoOperation
Index: 0
Type: 1
WasModified: 1
WasOrder2: 0
Layer: 1
Width: 610
VWidth: 1000
LBearingChange: 0
UnicodeEnc: 0
InstructionsLength: 0
SplineSet
279 -122.499023438 m 4xec
 354.846058821 -122.499023438 406 -106.055686323 406 -48 c 6
 406 33 l 5
 526 33 l 5
 526 -48 l 6
 526 -147.169075903 443.813345401 -208.703689947 381.008907902 -221.497186475 c 4
 346.004995486 -228.62768803 319.812552595 -231 280 -231 c 4
 213.050597188 -231 126.814428148 -228.559221188 72.7633108914 -154.666989647 c 4
 41.7652216804 -112.29010455 34 -64.2220659852 34 -4 c 4
 34 -2.91195943658 33.9970612156 -1.71595828412 33.9970612156 -0.419245204165 c 4
 33.9970612156 25.4381258295 35.9414265247 90.5857002334 84.1062875889 139.816583795 c 4
 122.674665994 179.238587813 159.655772784 220.208334395 197.470795705 260.363929371 c 4
 212.11261154 274.770195215 223 298.949229101 223 329 c 6
 223 343 l 6
 223 353.55616899 223.573109762 367.82954786 225.4798966 380.364598726 c 4
 226.788690198 388.96849403 230.90062563 416 256 416 c 6
 311 416 l 6
 333.592744847 416 343 396.783860827 343 342 c 6
 343 307 l 6
 343 250.736736816 313.77869642 214.156259536 288.09746103 187.529185107 c 6
 173.203303629 65.4863397724 l 6
 164.60343988 56.3512615195 152.995117188 41.7892395787 152.995117188 -9 c 4
 152.995117188 -62.465830047 162.705575468 -88.2674009486 181.720839553 -102.388846791 c 4
 197.903916868 -114.407004879 227.814293366 -122.499023438 279 -122.499023438 c 4xec
294.5 468 m 6
 267.5 468 l 6
 231.668249297 468 202.5 497.168249297 202.5 533 c 6
 202.5 560 l 6
 202.5 595.831750703 231.668249297 625 267.5 625 c 6
 294.5 625 l 6
 330.331750703 625 359.5 595.831750703 359.5 560 c 6
 359.5 533 l 6xf4
 359.5 497.168249297 330.331750703 468 294.5 468 c 6
EndSplineSet
EndUndoOperation
EndUndoes
Redoes
EndRedoes
EndUndoRedoHistory
Fore
SplineSet
388 470 m 1
 229 470 l 1
 229 600 l 1
 388 600 l 1
 388 470 l 1
388 398 m 1
 387.314453125 319.5 l 2
 387.313476562 258.481445312 352.438476562 218.74609375 323.751953125 191.46484375 c 0
 198.487304688 69.421875 l 6
 191.137695312 62.2607421875 180.161132812 52.4609375 180.161132812 3.5 c 0
 180.161132812 -49.08984375 190.734375 -69.4736328125 205.96484375 -79.84765625 c 0
 219.596679688 -89.1328125 249.29296875 -97.4990234375 303.91015625 -97.4990234375 c 0
 415.370117188 -97.4990234375 428.744140625 -65.5 428.744140625 -35.5 c 2
 428.744140625 58 l 1
 576 58 l 1
 576 -35.5 l 2
 576 -142.260742188 488.15625 -207.568359375 417.856445312 -221.24609375 c 0
 378.961914062 -228.512695312 348.916015625 -231 305 -231 c 0
 232.359375 -231 133.40625 -229.15234375 75.16796875 -149.536132812 c 0
 41.9150390625 -104.077148438 34 -52.6669921875 34 8.4892578125 c 0
 34 34.8222703198 34 106.195110149 87.671875 161.055664062 c 2
 205.466796875 281.772460938 l 1
 218.432617188 293.473632812 229.229492188 314.458007812 229.227539062 341.5 c 2
 229 398 l 1
 388 398 l 1
EndSplineSet
Validated: 33
EndChar

StartChar: multiply
Encoding: 215 215 53
Width: 720
Flags: W
LayerCount: 2
UndoRedoHistory
Layer: 1
Undoes
UndoOperation
Index: 0
Type: 12
WasModified: 0
WasOrder2: 0
Layer: 0
EndUndoOperation
EndUndoes
Redoes
EndRedoes
EndUndoRedoHistory
Fore
SplineSet
111.108398438 409.149414062 m 1
 205.850585938 503.891601562 l 1
 360 349.7421875 l 1
 514.149414062 503.891601562 l 1
 608.891601562 409.149414062 l 1
 454.7421875 255 l 1
 608.891601562 100.850585938 l 1
 514.149414062 6.1083984375 l 1
 360 160.2578125 l 1
 205.850585938 6.1083984375 l 1
 111.108398438 100.850585938 l 1
 265.2578125 255 l 1
 111.108398438 409.149414062 l 1
EndSplineSet
Validated: 1
EndChar

StartChar: divide
Encoding: 247 247 54
Width: 720
Flags: W
HStem: -28 177<293.492 426.508> 190 134<75 645> 365 177<293.492 426.508>
VStem: 271.5 177<-6.0083 127.008 386.992 520.008>
CounterMasks: 1 e0
LayerCount: 2
UndoRedoHistory
Layer: 1
Undoes
UndoOperation
Index: 0
Type: 12
WasModified: 1
WasOrder2: 0
Layer: 0
EndUndoOperation
EndUndoes
Redoes
EndRedoes
EndUndoRedoHistory
Fore
SplineSet
346.5 365 m 2
 305.14453125 365 271.5 398.64453125 271.5 440 c 2
 271.5 467 l 2
 271.5 508.35546875 305.14453125 542 346.5 542 c 2
 373.5 542 l 2
 414.85546875 542 448.5 508.35546875 448.5 467 c 2
 448.5 440 l 2
 448.5 398.64453125 414.85546875 365 373.5 365 c 2
 346.5 365 l 2
75 190 m 1
 75 324 l 1
 645 324 l 1
 645 190 l 1
 75 190 l 1
346.5 149 m 2
 373.5 149 l 2
 414.85546875 149 448.5 115.35546875 448.5 74 c 2
 448.5 47 l 2
 448.5 5.64453125 414.85546875 -28 373.5 -28 c 2
 346.5 -28 l 2
 305.14453125 -28 271.5 5.64453125 271.5 47 c 2
 271.5 74 l 2
 271.5 115.35546875 305.14453125 149 346.5 149 c 2
EndSplineSet
Validated: 1
EndChar

StartChar: acute
Encoding: 180 180 55
Width: 400
Flags: W
VStem: 57.4834 298.987
LayerCount: 2
UndoRedoHistory
Layer: 1
Undoes
UndoOperation
Index: 0
Type: 12
WasModified: 0
WasOrder2: 0
Layer: 0
VStem: 57.4834 298.987
CopiedFrom: Two Weekend Go Bold
EndUndoOperation
UndoOperation
Index: 1
Type: 1
WasModified: 1
WasOrder2: 0
Layer: 2
Width: 357
VWidth: 1000
LBearingChange: 0
UnicodeEnc: 0
InstructionsLength: 0
SplineSet
239.688476562 658.16796875 m 2
 216.977539062 625.723632812 193.610351562 610.423828125 189.28125 607.154296875 c 0
 169.220703125 592.002929688 109.896484375 597.618164062 90.677734375 611.260742188 c 2
 77.3125 620.748046875 l 1
 59.00390625 633.134765625 57.4833984375 650.608398438 57.4833984375 658.727539062 c 0
 57.4833984375 673.3203125 62.681640625 685.924804688 69.080078125 698.973632812 c 0
 152.931640625 825 l 1
 356.470703125 825 l 1
 239.688476562 658.16796875 l 2
EndSplineSet
EndUndoOperation
UndoOperation
Index: 2
Type: 1
WasModified: 0
WasOrder2: 0
Layer: 2
Width: 360
VWidth: 1000
LBearingChange: 0
UnicodeEnc: 0
InstructionsLength: 0
SplineSet
239.688476562 658.16796875 m 2
 216.977539062 625.723632812 193.610351562 610.423828125 189.28125 607.154296875 c 0
 169.220703125 592.002929688 109.896484375 597.618164062 90.677734375 611.260742188 c 2
 77.3125 620.748046875 l 1
 59.00390625 633.134765625 57.4833984375 650.608398438 57.4833984375 658.727539062 c 0
 57.4833984375 673.3203125 62.681640625 685.924804688 69.080078125 698.973632812 c 0
 152.931640625 825 l 1
 356.470703125 825 l 1
 239.688476562 658.16796875 l 2
EndSplineSet
EndUndoOperation
UndoOperation
Index: 3
Type: 12
WasModified: 0
WasOrder2: 0
Layer: 0
VStem: 57.4834 298.987
CopiedFrom: Two Weekend Go Bold
EndUndoOperation
UndoOperation
Index: 4
Type: 12
WasModified: 0
WasOrder2: 0
Layer: 0
CopiedFrom: Two Weekend Go Bold
EndUndoOperation
UndoOperation
Index: 5
Type: 1
WasModified: 0
WasOrder2: 0
Layer: 2
Width: 360
VWidth: 1000
LBearingChange: 0
UnicodeEnc: 0
InstructionsLength: 0
SplineSet
239.688476562 658.16796875 m 2
 356.470703125 825 l 5
 152.931640625 825 l 5
 69.080078125 698.973632812 l 0
 62.681640625 685.924804688 57.4833984375 673.3203125 57.4833984375 658.727539062 c 0
 57.4833984375 650.608398438 59.00390625 633.134765625 77.3125 620.748046875 c 1
 90.677734375 611.260742188 l 2
 109.896484375 597.618164062 169.220703125 592.002929688 189.28125 607.154296875 c 0
 193.610351562 610.423828125 216.977539062 625.723632812 239.688476562 658.16796875 c 2
EndSplineSet
EndUndoOperation
UndoOperation
Index: 6
Type: 12
WasModified: 1
WasOrder2: 0
Layer: 0
HStem: 601.469 223.531<152.932 159.537>
VStem: 65.1357 247.878
CopiedFrom: Two Weekend Go Bold
EndUndoOperation
UndoOperation
Index: 7
Type: 1
WasModified: 1
WasOrder2: 0
Layer: 2
Width: 360
VWidth: 1000
LBearingChange: 0
UnicodeEnc: 0
InstructionsLength: 0
SplineSet
239.688476562 658.16796875 m 2
 356.470703125 825 l 1
 152.931640625 825 l 1
 69.080078125 698.973632812 l 0
 62.681640625 685.924804688 57.4833984375 673.3203125 57.4833984375 658.727539062 c 0
 57.4833984375 650.608398438 59.00390625 633.134765625 77.3125 620.748046875 c 1
 90.677734375 611.260742188 l 2
 109.896484375 597.618164062 169.220703125 592.002929688 189.28125 607.154296875 c 0
 193.610351562 610.423828125 216.977539062 625.723632812 239.688476562 658.16796875 c 2
112 601.46875 m 4
 103.171796064 601.46875 95.8600137729 603.912663251 90.0107187166 608.787075798 c 6
 78.4194066881 618.446502488 l 6
 66.4665344761 627.763428292 65.1357421875 641.134796005 65.1357421875 649 c 4
 65.1357421875 662.470954844 68.7489517716 686.345136531 111.61445109 756.947726931 c 6
 152.931902596 825 l 5
 313.013649365 825 l 5
 215.49463061 685.687116066 l 6
 193.456759623 654.204853094 150.756374691 601.46875 112 601.46875 c 4
EndSplineSet
EndUndoOperation
UndoOperation
Index: 8
Type: 1
WasModified: 1
WasOrder2: 0
Layer: 2
Width: 360
VWidth: 1000
LBearingChange: 0
UnicodeEnc: 0
InstructionsLength: 0
SplineSet
225.19140625 658.16796875 m 6
 341.973632812 825 l 5
 138.434570312 825 l 5
 54.5830078125 698.973632812 l 4
 48.1845703125 685.924804688 42.986328125 673.3203125 42.986328125 658.727539062 c 4
 42.986328125 650.608398438 44.5068359375 633.134765625 62.8154296875 620.748046875 c 5
 76.1806640625 611.260742188 l 6
 95.3994140625 597.618164062 154.723632812 592.002929688 174.784179688 607.154296875 c 4
 179.11328125 610.423828125 202.48046875 625.723632812 225.19140625 658.16796875 c 6
112 601.46875 m 0
 103.171796064 601.46875 95.8600137729 603.912663251 90.0107187166 608.787075798 c 2
 78.4194066881 618.446502488 l 2
 66.4665344761 627.763428292 65.1357421875 641.134796005 65.1357421875 649 c 0
 65.1357421875 662.470954844 68.7489517716 686.345136531 111.61445109 756.947726931 c 2
 152.931902596 825 l 1
 313.013649365 825 l 1
 215.49463061 685.687116066 l 2
 193.456759623 654.204853094 150.756374691 601.46875 112 601.46875 c 0
EndSplineSet
EndUndoOperation
UndoOperation
Index: 9
Type: 1
WasModified: 1
WasOrder2: 0
Layer: 2
Width: 360
VWidth: 1000
LBearingChange: 0
UnicodeEnc: 0
InstructionsLength: 0
SplineSet
159.768554688 658.16796875 m 6
 42.986328125 825 l 5
 246.525390625 825 l 5
 330.376953125 698.973632812 l 4
 336.775390625 685.924804688 341.973632812 673.3203125 341.973632812 658.727539062 c 4
 341.973632812 650.608398438 340.453125 633.134765625 322.14453125 620.748046875 c 5
 308.779296875 611.260742188 l 6
 289.56090411 597.618576053 230.236328125 592.002929688 210.176251634 607.153809481 c 4
 205.846679688 610.423828125 182.479532237 625.723660847 159.768554688 658.16796875 c 6
112 601.46875 m 0
 103.171796064 601.46875 95.8600137729 603.912663251 90.0107187166 608.787075798 c 2
 78.4194066881 618.446502488 l 2
 66.4665344761 627.763428292 65.1357421875 641.134796005 65.1357421875 649 c 0
 65.1357421875 662.470954844 68.7489517716 686.345136531 111.61445109 756.947726931 c 2
 152.931902596 825 l 1
 313.013649365 825 l 1
 215.49463061 685.687116066 l 2
 193.456759623 654.204853094 150.756374691 601.46875 112 601.46875 c 0
EndSplineSet
EndUndoOperation
UndoOperation
Index: 10
Type: 3
WasModified: 1
WasOrder2: 0
Layer: 2
HStem: 601.469 223.531<152.932 159.537>
VStem: 65.1357 247.878
EndUndoOperation
UndoOperation
Index: 11
Type: 2
WasModified: 1
WasOrder2: 0
Layer: 2
Width: 360
VWidth: 1000
LBearingChange: 0
UnicodeEnc: 0
InstructionsLength: 0
SplineSet
159.768554688 658.16796875 m 6
 42.986328125 825 l 5
 246.525390625 825 l 5
 330.376953125 698.973632812 l 4
 336.775390625 685.924804688 341.973632812 673.3203125 341.973632812 658.727539062 c 4
 341.973632812 650.608398438 340.453125 633.134765625 322.14453125 620.748046875 c 5
 308.779296875 611.260742188 l 6
 289.56090411 597.618576053 230.236328125 592.002929688 210.176251634 607.153809481 c 4
 205.846679688 610.423828125 182.479532237 625.723660847 159.768554688 658.16796875 c 6
112 601.46875 m 0
 103.171796064 601.46875 95.8600137729 603.912663251 90.0107187166 608.787075798 c 2
 78.4194066881 618.446502488 l 2
 66.4665344761 627.763428292 65.1357421875 641.134796005 65.1357421875 649 c 0
 65.1357421875 662.470954844 68.7489517716 686.345136531 111.61445109 756.947726931 c 2
 152.931902596 825 l 1
 313.013649365 825 l 1
 215.49463061 685.687116066 l 2
 193.456759623 654.204853094 150.756374691 601.46875 112 601.46875 c 0
EndSplineSet
EndUndoOperation
UndoOperation
Index: 12
Type: 3
WasModified: 0
WasOrder2: 0
Layer: 2
HStem: 601.469 223.531<152.932 159.537>
VStem: 65.1357 247.878
EndUndoOperation
EndUndoes
Redoes
EndRedoes
EndUndoRedoHistory
Fore
SplineSet
239.688476562 658.16796875 m 2
 216.977539062 625.723632812 193.610351562 610.423828125 189.28125 607.154296875 c 0
 169.220703125 592.002929688 109.896484375 597.618164062 90.677734375 611.260742188 c 2
 77.3125 620.748046875 l 1
 59.00390625 633.134765625 57.4833984375 650.608398438 57.4833984375 658.727539062 c 0
 57.4833984375 673.3203125 62.681640625 685.924804688 69.080078125 698.973632812 c 0
 152.931640625 825 l 1
 356.470703125 825 l 1
 239.688476562 658.16796875 l 2
EndSplineSet
Validated: 524321
EndChar

StartChar: periodcentered
Encoding: 183 183 56
Width: 360
Flags: W
LayerCount: 2
UndoRedoHistory
Layer: 1
Undoes
UndoOperation
Index: 0
Type: 1
WasModified: 0
WasOrder2: 0
Layer: 2
Width: 360
VWidth: 1000
LBearingChange: 0
UnicodeEnc: 0
InstructionsLength: 0
SplineSet
166.5 328.5 m 2
 193.5 328.5 l 2
 229.331750703 328.5 258.5 299.331750703 258.5 263.5 c 2
 258.5 236.5 l 2
 258.5 200.668249297 229.331750703 171.5 193.5 171.5 c 2
 166.5 171.5 l 2
 130.668249297 171.5 101.5 200.668249297 101.5 236.5 c 2
 101.5 263.5 l 2
 101.5 299.331750703 130.668249297 328.5 166.5 328.5 c 2
EndSplineSet
EndUndoOperation
EndUndoes
Redoes
EndRedoes
EndUndoRedoHistory
Fore
SplineSet
166.5 333.5 m 2
 193.5 333.5 l 2
 232.093651212 333.5 263.5 302.093651212 263.5 263.5 c 2
 263.5 236.5 l 2
 263.5 197.906348788 232.093651212 166.5 193.5 166.5 c 2
 166.5 166.5 l 2
 127.906348788 166.5 96.5 197.906348788 96.5 236.5 c 2
 96.5 263.5 l 2
 96.5 302.093651212 127.906348788 333.5 166.5 333.5 c 2
EndSplineSet
Validated: 1
EndChar

StartChar: quotedblright
Encoding: 256 8221 57
Width: 440
Flags: W
HStem: 559.094 68.6809<56.9822 84.1669 236.982 264.167>
VStem: 49.25 162<684.222 806.292> 229.25 162<684.222 806.292>
LayerCount: 2
UndoRedoHistory
Layer: 1
Undoes
UndoOperation
Index: 0
Type: 12
WasModified: 1
WasOrder2: 0
Layer: 0
EndUndoOperation
EndUndoes
Redoes
EndRedoes
EndUndoRedoHistory
Fore
SplineSet
296.75 827.5 m 2
 318.75 827.5 l 2
 358.860744956 827.5 391.25 795.110744956 391.25 755 c 2
 391.25 719 l 2
 391.25 695.157519182 384.886476675 580.023009785 264.166899876 562.777355957 c 2
 238.382193181 559.093826429 l 1
 224.646008482 627.774749925 l 1
 270.354701712 644.396092918 279.015286355 647.545396424 283.382358237 666.830064207 c 1
 252.548753718 673.052197323 229.25 700.361428186 229.25 733 c 2
 229.25 760 l 2
 229.25 797.212700958 259.537299042 827.5 296.75 827.5 c 2
116.75 827.5 m 2
 138.75 827.5 l 2
 178.860744956 827.5 211.25 795.110744956 211.25 755 c 2
 211.25 719 l 2
 211.25 695.157519182 204.886476675 580.023009785 84.1668998759 562.777355957 c 2
 58.3821931808 559.093826429 l 1
 44.6460084817 627.774749925 l 1
 90.3547017121 644.396092918 99.0152863547 647.545396424 103.382358237 666.830064207 c 1
 72.5487537179 673.052197323 49.25 700.361428186 49.25 733 c 2
 49.25 760 l 2
 49.25 797.212700958 79.5372990425 827.5 116.75 827.5 c 2
EndSplineSet
Validated: 1
EndChar

StartChar: quotedblleft
Encoding: 257 8220 58
Width: 440
Flags: W
HStem: 763.225 68.6809<175.833 203.018 355.833 383.018>
VStem: 48.75 162<584.708 706.778> 228.75 162<584.708 706.778>
LayerCount: 2
UndoRedoHistory
Layer: 1
Undoes
UndoOperation
Index: 0
Type: 12
WasModified: 1
WasOrder2: 0
Layer: 0
EndUndoOperation
EndUndoes
Redoes
EndRedoes
EndUndoRedoHistory
Fore
SplineSet
143.25 563.5 m 2
 121.25 563.5 l 2
 81.1392550439 563.5 48.75 595.889255044 48.75 636 c 2
 48.75 672 l 2
 48.75 695.842480819 55.1135233249 810.976990215 175.833100124 828.222644043 c 2
 201.617806819 831.906173571 l 1
 215.353991518 763.225250075 l 1
 169.645298288 746.603907082 160.984713645 743.454603576 156.617641763 724.169935793 c 1
 187.451246282 717.947802677 210.75 690.638571814 210.75 658 c 2
 210.75 631 l 2
 210.75 593.787299042 180.462700958 563.5 143.25 563.5 c 2
323.25 563.5 m 2
 301.25 563.5 l 2
 261.139255044 563.5 228.75 595.889255044 228.75 636 c 2
 228.75 672 l 2
 228.75 695.842480818 235.113523325 810.976990215 355.833100124 828.222644043 c 2
 381.617806819 831.906173571 l 1
 395.353991518 763.225250075 l 1
 349.645298288 746.603907082 340.984713645 743.454603576 336.617641763 724.169935793 c 1
 367.451246282 717.947802677 390.75 690.638571814 390.75 658 c 2
 390.75 631 l 2
 390.75 593.787299042 360.462700958 563.5 323.25 563.5 c 2
EndSplineSet
Validated: 1
EndChar

StartChar: D
Encoding: 68 68 59
Width: 906
Flags: W
HStem: 0 135<218.005 662.755> 665 135<218.005 646.953>
VStem: 72 146.005<135 665> 697.369 141.781<171.162 603.29>
LayerCount: 2
UndoRedoHistory
Layer: 1
Undoes
UndoOperation
Index: 0
Type: 12
WasModified: 0
WasOrder2: 0
Layer: 0
EndUndoOperation
EndUndoes
Redoes
EndRedoes
EndUndoRedoHistory
Fore
SplineSet
662.866339288 11.93359375 m 0
 615.514781079 1.275390625 536.460075536 0 450.098010697 0 c 2
 72 0 l 1
 72 800 l 1
 438.562427379 800 l 2
 458.196079578 800 608.62918774 799.64453125 654.216480264 787.439453125 c 0
 713.39962998 773.249023438 771.347418426 745.833984375 798.200934052 686.919921875 c 0
 839.114019989 597.159179688 839.150152802 426.646484375 839.150152802 387.397460938 c 0
 839.150152802 277.27734375 832.146246552 186.868164062 808.774176239 122.783203125 c 0
 784.963629364 57.49609375 724.500738739 23.701171875 662.866339288 11.93359375 c 0
446.46545998 665 m 2
 218.00483735 665 l 1
 218.00483735 135 l 1
 448.281735338 135 l 2
 518.858051254 135 590.786618712 136.52734375 624.911466525 142.432617188 c 0
 660.36093574 148.567382812 678.514750164 164.53125 682.685275953 188.529296875 c 0
 694.336255737 255.68359375 697.369069893 295.479492188 697.369069893 387.763671875 c 0
 697.369069893 480.203125 691.547236932 543.162109375 675.085362238 607.313476562 c 0
 668.668668622 632.321289062 647.580370833 649.227539062 611.565296407 656.198242188 c 0
 587.106121576 660.931640625 497.06924816 665 446.46545998 665 c 2
EndSplineSet
Validated: 1
EndChar

StartChar: at
Encoding: 64 64 60
Width: 885
Flags: W
HStem: -37.1963 119.462<224.553 675.26> 111.409 129.431<345.48 506.839> 534.243 129.647<346.206 524.523> 713.506 119.766<221.655 661.263>
VStem: 46.0088 128.899<132.315 665.441> 194.804 137.295<252.698 519.331> 538.347 135.251<293.023 518.112 647.61 660.167> 707.165 128.899<251.439 665.744>
LayerCount: 2
UndoRedoHistory
Layer: 1
Undoes
UndoOperation
Index: 0
Type: 12
WasModified: 0
WasOrder2: 0
Layer: 0
EndUndoOperation
EndUndoes
Redoes
EndRedoes
EndUndoRedoHistory
Fore
SplineSet
524.365234375 512.525390625 m 0
 510.256835938 526.709960938 465.206054688 534.243164062 435.466796875 534.243164062 c 0
 390.33984375 534.243164062 345.6875 531.20703125 339.302734375 499 c 0
 333.720703125 470.83203125 332.099097148 454.061523438 332.099097148 397.5078125 c 0
 332.099097148 342.2265625 334.567406547 307.307617188 338.666015625 278.092773438 c 0
 343.712474879 242.133867101 385 240.83984375 417.918249022 240.83984375 c 0
 498.662341784 240.83984375 524 272 533.151896268 292.350585938 c 5
 535.281434069 305.97265625 538.347479891 366.125976562 538.347479891 412 c 0
 538.347479891 514.685546875 529.674804688 507.185546875 524.365234375 512.525390625 c 0
444.040556136 833.271450113 m 0
 533.022553072 833.263211451 642.517886643 828.999584739 678.260760112 820.337890625 c 0
 713.443330531 810.385742188 782.896524912 785.501953125 808.370157724 706.340820312 c 0
 831.566446787 634.254882812 836.0635171 521.912109375 836.0635171 397.018554688 c 2
 836.0635171 397.018554688 836.0635171 392.124744927 836.0635171 391.999023438 c 2
 836.0635171 387.228515625 l 2
 836.0635171 291.264648438 836.0635171 180.487304688 743.63773585 141.54296875 c 1
 814.5400796 99.1201171875 l 1
 800.720743662 69.826171875 l 2
 752.147501474 -33.134765625 661.401579868 -37.1962890625 443.059010404 -37.1962890625 c 0
 363.42244017 -37.1962890625 266.294139601 -36.9462890625 210.173896512 -24.8798828125 c 0
 59.74609375 8.5283203125 46.0087890625 145.916015625 46.0087890625 397.193359375 c 0
 46.0087890625 668.515625 69.423828125 786.221679688 209.393133847 820.390625 c 0
 246.67283805 828.936998996 354.063302927 833.279780923 444.040556136 833.271450113 c 0
679.684252302 249.473632812 m 0
 702.599659268 249.473632812 707.164655024 269.600400074 707.164655024 393.178710938 c 0
 707.164655024 500.538085938 703.806255829 569.483398438 692.789664096 645.938476562 c 0
 688.366088824 676.643554688 668.214675712 696.091796875 628.014051017 702.8046875 c 0
 597.99286132 707.8203125 491.35595052 713.505859375 443.35869297 713.505859375 c 0
 394.212380798 713.505859375 288.901646789 709.78515625 259.516671779 704.935546875 c 0
 219.319100914 698.3046875 195.475810318 679.09375 190.917052148 648.760742188 c 0
 179.825539775 572.723632812 174.907651138 502.646484375 174.907651138 397.08203125 c 0
 174.907651138 292.926757812 180.630122316 225.016601562 191.784340011 148.549804688 c 0
 196.559920145 118.217773438 220.403210742 99.0068359375 260.60179955 92.375 c 0
 301.933359474 85.5556640625 375.900798768 82.265625 442.965359602 82.265625 c 0
 626.127801712 82.265625 668.869213383 87.0654296875 694.496551757 121.512695312 c 1
 688.107123997 120.76171875 681.499449151 120.395507812 674.680856412 120.395507812 c 0
 640.743434482 120.395507812 602.896295159 130.961914062 574.812251942 157.360351562 c 1
 538.318977472 132.670898438 494.10114055 111.409179688 418.648725278 111.409179688 c 0
 334.671643961 111.409179688 258.339929093 118.399414062 221.334629044 187.051757812 c 0
 196.725844936 232.704101562 194.803967608 295.60546875 194.803967608 397.419921875 c 0
 194.803967608 495.639648438 197.525390625 538.811523438 225.380859375 585.979492188 c 0
 265.841796875 654.493164062 343.462890625 663.890625 435.486328125 663.890625 c 0
 470.37109375 663.890625 504.823242188 661.423828125 538.78515625 647.610351562 c 1
 539.203125 660.166992188 l 1
 678.822265625 660.166992188 l 1
 677.395507812 614.833007812 673.598578883 512.729492188 673.598578883 344 c 0
 673.598578883 309.994140625 673.598578883 266.646484375 678.020525446 249.534179688 c 0
 678.478192844 249.498046875 679.030325398 249.473632812 679.684252302 249.473632812 c 0
EndSplineSet
Validated: 33
EndChar

StartChar: E
Encoding: 69 69 61
Width: 870
Flags: W
HStem: 0 139<218.061 808.412> 362.5 139<218.061 778.412> 661 139<218.061 803.412>
VStem: 72 146.061<139 362.5 501.5 661>
LayerCount: 2
UndoRedoHistory
Layer: 1
Undoes
UndoOperation
Index: 0
Type: 12
WasModified: 0
WasOrder2: 0
Layer: 0
EndUndoOperation
EndUndoes
Redoes
EndRedoes
EndUndoRedoHistory
Fore
SplineSet
218.061120543 661 m 5
 218.061120543 501.5 l 5
 778.412224109 501.5 l 5
 778.412224109 362.5 l 5
 218.061120543 362.5 l 5
 218.061120543 139 l 5
 808.412224109 139 l 5
 808.412224109 0 l 5
 72 0 l 5
 72 800 l 5
 803.412224109 800 l 5
 803.412224109 661 l 5
 218.061120543 661 l 5
EndSplineSet
Validated: 1
EndChar

StartChar: F
Encoding: 70 70 62
Width: 858
Flags: W
HStem: 0 21G<72 218.07> 362.5 139<218.07 763.414> 661 139<218.07 804.414>
VStem: 72 146.07<0 362.5 501.5 661>
LayerCount: 2
UndoRedoHistory
Layer: 1
Undoes
UndoOperation
Index: 0
Type: 12
WasModified: 0
WasOrder2: 0
Layer: 0
EndUndoOperation
EndUndoes
Redoes
EndRedoes
EndUndoRedoHistory
Fore
SplineSet
218.070205479 362.5 m 1
 218.070205479 0 l 1
 72 0 l 1
 72 800 l 1
 804.414041096 800 l 1
 804.414041096 661 l 1
 218.070205479 661 l 1
 218.070205479 501.5 l 1
 763.414041096 501.5 l 1
 763.414041096 362.5 l 1
 218.070205479 362.5 l 1
EndSplineSet
Validated: 1
EndChar

StartChar: G
Encoding: 71 71 63
Width: 907
Flags: W
HStem: -12.1963 133.524<242.389 668.494> 314 139<437.036 697.469> 674.443 133.797<239.615 658.892>
VStem: 61 141.761<166.667 633.272> 697.469 141.846<148.581 314 546 636.577>
LayerCount: 2
UndoRedoHistory
Layer: 1
Undoes
UndoOperation
Index: 0
Type: 12
WasModified: 0
WasOrder2: 0
Layer: 0
HStem: -12.1963 133.524<241.424 668.494> 314 139<437.036 697.469> 674.443 133.797<239.154 655.689>
VStem: 61 141.761<160.959 638.689> 697.469 141.846<148.581 314 546 630.896>
EndUndoOperation
EndUndoes
Redoes
EndRedoes
EndUndoRedoHistory
Fore
SplineSet
452 808.240401029 m 0
 548.448473146 808.225591025 644.379686852 803.310559226 676.436248391 794.991210938 c 0
 792 765 839 721 839 566 c 2
 839 546 l 1
 691.337264299 545.877929688 l 1
 690 637 677.296578713 653.578672298 625.176201567 663.869140625 c 0
 600.032919235 668.8359375 501.189161884 674.443359375 451.050365154 674.443359375 c 0
 399.680710247 674.443359375 298.838294608 671.17619618 274.081213876 666.857421875 c 0
 239.820974772 660.880859375 220.779209062 643.548828125 213.27734375 599.952148438 c 0
 205.209177891 552.778320312 202.761264037 491.006835938 202.761264037 397.17578125 c 0
 202.761264037 304.600585938 205.973186825 244.772460938 214.114257812 197.500976562 c 0
 221.681242989 153.599609375 240.726331096 136.25140498 274.987307363 130.2734375 c 0
 309.659997623 124.223632812 380.589417922 121.328125 450.639537821 121.328125 c 0
 612.443083421 121.328125 679.745878329 125.412102245 688.526425903 168.249023438 c 0
 696.157584217 205.478515625 697 255 697.46875 314 c 1
 437.036132812 314 l 1
 437.036132812 453 l 1
 839.314453125 453 l 1
 839.314453125 358.189453125 l 2
 839.314453125 249 837.238093163 151.768243611 821.140493408 104.158203125 c 0
 781.902840592 -11.8905412558 638.218333383 -12.1962890625 450.761324579 -12.1962890625 c 0
 364.318706931 -12.1962890625 273.147515391 -11.900390625 224.763259901 0.0771484375 c 0
 61 33.6346436376 61 178.452176336 61 397.041015625 c 0
 61 632.2734375 70.1435546875 760.459960938 224.125909196 795.067382812 c 0
 256.314872156 803.810944083 354.346793737 808.255396024 452 808.240401029 c 0
EndSplineSet
Validated: 33
EndChar

StartChar: S
Encoding: 83 83 64
Width: 919
Flags: W
HStem: -12.1963 143.524<249.186 681.413> 664.443 143.886<260.167 642.803>
VStem: 55 158<166.6 280> 84.8779 157.407<532.69 645.578> 669.257 161<552 637.133>
LayerCount: 2
UndoRedoHistory
Layer: 1
Undoes
UndoOperation
Index: 0
Type: 12
WasModified: 0
WasOrder2: 0
Layer: 0
EndUndoOperation
EndUndoes
Redoes
EndRedoes
EndUndoRedoHistory
Fore
SplineSet
458.905219112 664.443359375 m 0xd8
 255.896931467 664.443359375 242.285034591 653.201056231 242.285034591 590.241210938 c 0xd8
 242.285034591 534.599794078 242.285131918 521.212890625 432.528100669 488 c 0
 722.016772543 439.303710938 858.63298348 418.224703415 858.63298348 230.279296875 c 0
 858.63298348 32.6010843102 739.838103311 8.15879339324 691.743673789 0.01953125 c 0
 638.070817628 -10.9052734375 546.39567087 -12.1962890625 458.611021373 -12.1962890625 c 0
 370.713472465 -12.1962890625 278.139250826 -12.021484375 224.376674368 0.19921875 c 0
 79.8671875 31.2724609375 55 201.957052479 55 246.344726562 c 2
 55 280 l 1
 213 280 l 1xe8
 213 182.850517404 226.892502222 151.240708195 280.750770805 141.375 c 0
 315.339195092 134.65625 387.44895613 131.328125 458.488232962 131.328125 c 0
 703.26792014 131.328125 704.252394072 150.000238325 707.467944418 212.193359375 c 0
 710.249891343 266 686.245609042 284.343389976 614.142163168 306 c 0
 531.657006918 332 395.216747697 343.59904685 258.776538168 376.540039062 c 0
 202.322265625 388.240234375 153.655273438 422.602539062 124.067382812 451.330078125 c 0
 91.3017578125 483.143554688 84.8779296875 543.421875 84.8779296875 586.98046875 c 0
 84.8779296875 611.150390625 85.018403921 711.951530952 159.741210938 761.530273438 c 0
 216.66897511 799.301966886 285.406669149 808.329101562 458.905219112 808.329101562 c 0
 550.621570035 808.329101562 627.358558805 805.416015625 665.984167181 794.852539062 c 0
 804.862475668 761.979492188 830.257006918 668.322686966 830.257006918 593.655273438 c 2
 830.257006918 552 l 1
 669.257006918 552 l 1
 668.136786571 610.81156823 667.520028044 643.191390913 612.210259577 653.935546875 c 0
 584.713896174 659.27734375 528.903678735 664.443359375 458.905219112 664.443359375 c 0xd8
EndSplineSet
Validated: 33
EndChar

StartChar: T
Encoding: 84 84 65
Width: 958
Flags: W
HStem: -0.358398 21G<401.6 565.6> 651 149<48 401.6 565.6 904.8>
VStem: 401.6 164<-0.358398 651>
LayerCount: 2
UndoRedoHistory
Layer: 1
Undoes
UndoOperation
Index: 0
Type: 12
WasModified: 0
WasOrder2: 0
Layer: 0
EndUndoOperation
EndUndoes
Redoes
EndRedoes
EndUndoRedoHistory
Fore
SplineSet
904.8 651 m 1
 565.6 651 l 1
 565.6 634.392578125 565.6 16.2490234375 565.6 -0.3583984375 c 1
 401.6 -0.3583984375 l 1
 401.6 16.2490234375 401.6 634.392578125 401.6 651 c 1
 48 651 l 1
 48 633.5 48 782.5 48 800 c 1
 904.8 800 l 1
 904.8 782.5 904.8 633.5 904.8 651 c 1
EndSplineSet
Validated: 37
EndChar

StartChar: R.var
Encoding: 258 -1 66
Width: 872
Flags: W
HStem: -0 21G<69 204 642.832 868.577> 367.5 128<424.486 631.8> 671 129<204 629.549>
VStem: 69 135<0 671> 660.161 132.323<521.302 643.478>
LayerCount: 2
UndoRedoHistory
Layer: 1
Undoes
UndoOperation
Index: 0
Type: 12
WasModified: 0
WasOrder2: 0
Layer: 0
EndUndoOperation
EndUndoes
Redoes
EndRedoes
EndUndoRedoHistory
Fore
SplineSet
660.160586363 588.78515625 m 0
 660.160586363 653.724059527 632.960802313 671 448.943529217 671 c 2
 204 671 l 1
 204 0 l 1
 69 0 l 1
 69 800 l 1
 447.053569735 800 l 2
 613.622681636 799.8046875 792.483935547 798.18359375 792.483935547 588.392578125 c 0
 792.483935547 367.5 632.313528661 367.5 450.871048869 367.5 c 2
 424.485882825 367.5 l 1
 868.576708984 0 l 1
 665.924365234 -0 l 1
 278.621814839 335.434570312 l 2
 253.349795663 357.321289062 233.286689205 378.293945312 233.286689205 418.767578125 c 0
 233.286689205 464.89453125 274.283615162 495.5 315.003108042 495.5 c 2
 450.871048869 495.5 l 2
 641.889029777 495.5 660.160586363 508.566920401 660.160586363 588.78515625 c 0
EndSplineSet
Validated: 1
EndChar

StartChar: X
Encoding: 88 88 67
Width: 887
Flags: W
HStem: 0 21G<42 232.653 644.749 835.403> 780 20G<61.3105 248.853 628.55 816.093>
LayerCount: 2
UndoRedoHistory
Layer: 1
Undoes
UndoOperation
Index: 0
Type: 12
WasModified: 0
WasOrder2: 0
Layer: 0
HStem: 0 21G<42 232.042 645.36 835.403> 780 20G<61.3105 248.155 629.248 816.093>
EndUndoOperation
EndUndoes
Redoes
EndRedoes
EndUndoRedoHistory
Fore
SplineSet
438.702148438 309.287109375 m 1
 218.408203125 0 l 1
 42 0 l 1
 358.588671875 414.307617188 l 1
 61.310546875 800 l 1
 234.143359375 800 l 1
 438.702148438 521.876953125 l 1
 643.259765625 800 l 1
 816.092773438 800 l 1
 518.814453125 414.307617188 l 1
 835.403320312 0 l 1
 658.994140625 0 l 1
 438.702148438 309.287109375 l 1
EndSplineSet
Validated: 1
EndChar

StartChar: K
Encoding: 75 75 68
Width: 871
Flags: W
HStem: 0 21G<72 217 646.895 895.396> 780 20G<72 217 610.649 880.837>
VStem: 72 145<0 380.732 480.247 800>
LayerCount: 2
UndoRedoHistory
Layer: 1
Undoes
UndoOperation
Index: 0
Type: 12
WasModified: 0
WasOrder2: 0
Layer: 0
EndUndoOperation
EndUndoes
Redoes
EndRedoes
EndUndoRedoHistory
Fore
SplineSet
217 0 m 1
 72 0 l 1
 72 800 l 1
 217 800 l 1
 217 480.247070312 l 1
 636.9140625 800 l 1
 880.837109375 800 l 1
 358.124725344 446.010742188 l 1
 895.395703125 0 l 1
 668.0578125 0 l 1
 243.685859007 401.052734375 l 1
 217 380.732421875 l 1
 217 0 l 1
EndSplineSet
Validated: 1
EndChar

StartChar: asciicircum
Encoding: 94 94 69
Width: 494
Flags: W
HStem: 518 307
LayerCount: 2
UndoRedoHistory
Layer: 1
Undoes
UndoOperation
Index: 0
Type: 12
WasModified: 1
WasOrder2: 0
Layer: 0
EndUndoOperation
EndUndoes
Redoes
EndRedoes
EndUndoRedoHistory
Fore
SplineSet
29.025390625 518 m 1
 200.376905558 825 l 1
 318.244855849 825 l 1
 489.597265625 518 l 1
 334.470166356 518 l 1
 259.311328125 635.762695312 l 1
 184.15159505 518 l 1
 29.025390625 518 l 1
EndSplineSet
Validated: 1
EndChar

StartChar: bar
Encoding: 124 124 70
Width: 355
Flags: W
HStem: 785 20G<102 253>
VStem: 102 151<-205 805>
LayerCount: 2
UndoRedoHistory
Layer: 1
Undoes
UndoOperation
Index: 0
Type: 12
WasModified: 0
WasOrder2: 0
Layer: 0
EndUndoOperation
EndUndoes
Redoes
EndRedoes
EndUndoRedoHistory
Fore
SplineSet
102 805 m 5
 253 805 l 5
 253 -205 l 5
 102 -205 l 5
 102 805 l 5
EndSplineSet
Validated: 1
EndChar

StartChar: Y
Encoding: 89 89 71
Width: 856
Flags: W
HStem: 0 21G<346.045 506.222> 780 20G<40 219.773 632.473 812.396>
VStem: 346.045 160.177<0 380.231>
LayerCount: 2
UndoRedoHistory
Layer: 1
Undoes
UndoOperation
Index: 0
Type: 12
WasModified: 0
WasOrder2: 0
Layer: 0
HStem: 0 21G<346.045 506.222> 780 20G<40 219.592 632.655 812.396>
VStem: 346.045 160.177<0 380.231>
EndUndoOperation
EndUndoes
Redoes
EndRedoes
EndUndoRedoHistory
Fore
SplineSet
506.222070313 381.319335938 m 1
 506.222070313 0 l 1
 346.0453125 0 l 1
 346.0453125 380.231445312 l 1
 40 800 l 1
 205.5515625 800 l 1
 425.7109375 490.383789062 l 5
 646.750976562 800 l 1
 812.395507812 800 l 1
 506.222070313 381.319335938 l 1
EndSplineSet
Validated: 1
EndChar

StartChar: Z
Encoding: 90 90 72
Width: 813
Flags: W
HStem: 0 145<268.19 757.55> 655 145<68 536.3>
LayerCount: 2
UndoRedoHistory
Layer: 1
Undoes
UndoOperation
Index: 0
Type: 12
WasModified: 0
WasOrder2: 0
Layer: 0
CopiedFrom: Two Weekend Go Bold
EndUndoOperation
UndoOperation
Index: 1
Type: 1
WasModified: 0
WasOrder2: 0
Layer: 2
Width: 863
VWidth: 1000
LBearingChange: 0
UnicodeEnc: 0
InstructionsLength: 0
SplineSet
68 0 m 1
 68 145 l 1
 575 655 l 1
 68 655 l 1
 68 800 l 1
 807.5 800 l 1
 807.5 655 l 1
 277.1 145 l 1
 807.5 145 l 1
 807.5 0 l 1
 68 0 l 1
EndSplineSet
EndUndoOperation
UndoOperation
Index: 2
Type: 1
WasModified: 0
WasOrder2: 0
Layer: 2
Width: 919
VWidth: 1000
LBearingChange: 0
UnicodeEnc: 0
InstructionsLength: 0
SplineSet
68 0 m 1
 68 145 l 1
 618 655 l 1
 68 655 l 1
 68 800 l 1
 863 800 l 1
 863 655 l 1
 287 145 l 1
 863 145 l 1
 863 0 l 1
 68 0 l 1
EndSplineSet
EndUndoOperation
UndoOperation
Index: 3
Type: 1
WasModified: 1
WasOrder2: 0
Layer: 2
Width: 1058
VWidth: 1000
LBearingChange: 0
UnicodeEnc: 0
InstructionsLength: 0
EndUndoOperation
EndUndoes
Redoes
EndRedoes
EndUndoRedoHistory
Fore
SplineSet
68 0 m 1
 68 145 l 1
 536.3 655 l 1
 68 655 l 1
 68 800 l 1
 757.55 800 l 1
 757.55 655 l 1
 268.19 145 l 1
 757.55 145 l 1
 757.55 0 l 1
 68 0 l 1
EndSplineSet
Validated: 524289
EndChar

StartChar: o
Encoding: 111 111 73
Width: 830
Flags: W
HStem: -12.1963 143.524<247.543 582.381> 464.443 143.886<243.008 581.629>
VStem: 58 150.953<167.088 429.485> 612.709 152.023<162.41 437.012>
LayerCount: 2
UndoRedoHistory
Layer: 1
Undoes
UndoOperation
Index: 0
Type: 12
WasModified: 1
WasOrder2: 0
Layer: 0
HStem: -12.1963 143.524<245.321 582.381> 464.443 143.886<248.517 581.629>
VStem: 58 150.953<167.088 429.485> 612.709 152.023<162.41 437.012>
EndUndoOperation
EndUndoes
Redoes
EndRedoes
EndUndoRedoHistory
Fore
SplineSet
208.95320314 297.239257812 m 4
 208.95320314 156.659636605 208.95320314 131.328125 411.842184858 131.328125 c 4
 546.650779708 131.328125 577.422393647 143.837890625 592.071738117 161.88671875 c 4
 609.340207811 183.268554688 612.7086692 228.759765625 612.7086692 297.239257812 c 4
 612.7086692 401.267578125 606.354405056 430.444335938 580.356701736 444.934570312 c 4
 547.919501723 463.013671875 447.316682291 464.443359375 412.303861168 464.443359375 c 4
 318.33941438 464.443359375 273.838257235 457.29296875 252.514138721 447.971679688 c 4
 213.872047606 431.079931723 208.95320314 385.438874086 208.95320314 297.239257812 c 4
58 296.294921875 m 6
 58 305.224609375 l 6
 58 400.78515625 59.1806640625 559.278320312 229.62032075 594.966796875 c 4
 269.733777266 604.659179688 329.871555914 608.329101562 412.303861168 608.329101562 c 4
 596.707145843 608.329101562 719.016613526 596.247070312 752.523449464 448.95703125 c 4
 761.872082276 407.86328125 764.731457276 358.831054688 764.731457276 297.891601562 c 4
 764.731457276 200.426757812 764.427746339 32.767578125 592.095709772 0.1455078125 c 4
 539.562272662 -11.337890625 475.985893339 -12.1962890625 411.978912073 -12.1962890625 c 4
 249.047127196 -12.1962890625 144.404296875 -8.57421875 84.6875 101.86328125 c 4
 58.3369140625 150.595703125 58 218.118164062 58 296.294921875 c 6
EndSplineSet
Validated: 1
EndChar

StartChar: p
Encoding: 112 112 74
Width: 833
Flags: W
HStem: -200 21G<70 225> -12.1963 143.524<251.008 574.375> 464.443 143.886<258.272 582.029> 580 20G<70 225>
VStem: 70 155<-200 10.1758 155.485 435.188 583.765 600> 616.71 151.156<169.617 431.068>
LayerCount: 2
UndoRedoHistory
Layer: 1
Undoes
UndoOperation
Index: 0
Type: 1
WasModified: 0
WasOrder2: 0
Layer: 2
Width: 903
VWidth: 1000
LBearingChange: 0
UnicodeEnc: 0
InstructionsLength: 0
EndUndoOperation
EndUndoes
Redoes
EndRedoes
EndUndoRedoHistory
Fore
SplineSet
225 10.17578125 m 1xec
 225 -200 l 1
 70 -200 l 1
 70 600 l 1
 225 600 l 1xdc
 225 583.764648438 l 1
 269.512809636 600.30859375 330.11493115 608.329101562 419.6275908 608.329101562 c 0
 568.393850989 608.329101562 681.019229396 603.25390625 735.929385646 496.426757812 c 0
 767.826846584 434.370117188 767.865909084 378.6171875 767.865909084 297.122070312 c 0
 767.865909084 201.211914062 755.897159084 142.338867188 733.830752834 103.286132812 c 0
 678.217471584 4.8623046875 572.955051158 -12.1962890625 419.95556111 -12.1962890625 c 0
 331.80661452 -12.1962890625 271.84524154 -7.865234375 225 10.17578125 c 1xec
538.818435713 456.758789062 m 4
 504.681820269 461.541992188 478.373596963 464.443359375 419.6275908 464.443359375 c 4xec
 241.598693559 464.443359375 234.730977397 431.575195312 228.85432138 398.364257812 c 4
 225.68632479 380.46875 225.168006589 355.921875 225 326.096679688 c 4
 225 231.78125 225.106344596 210.655273438 228.848065816 186.92578125 c 4
 230.569239704 176.010742188 233.396754855 169.345703125 234.013374784 168.2734375 c 4
 256.697838943 137.215820312 307.731627738 131.328125 420.093183528 131.328125 c 4
 507.597806976 131.328125 551.165132721 140.828125 572.526991816 150.921875 c 4
 589.289223704 158.841796875 593.026476663 165.872070312 597.901348708 174.516601562 c 4
 612.294508957 200.131835938 616.710043837 212.10546875 616.710043837 297.239257812 c 4
 616.710043837 401.02734375 604.5876535 430.64453125 578.944307335 445.060546875 c 4
 569.400103221 450.42578125 556.356357599 454.302734375 538.818435713 456.758789062 c 4
EndSplineSet
Validated: 1
EndChar

StartChar: q
Encoding: 113 113 75
Width: 831
Flags: W
HStem: -200 21G<600.866 755.866> -12.1963 143.524<249.076 578.314> 464.443 143.886<248.577 568.105> 580 20G<600.866 755.866>
VStem: 58 151.156<167.088 429.453> 600.866 155<-200 10.1758 153.819 436.012 583.768 600>
LayerCount: 2
UndoRedoHistory
Layer: 1
Undoes
UndoOperation
Index: 0
Type: 1
WasModified: 0
WasOrder2: 0
Layer: 2
Width: 901
VWidth: 1000
LBearingChange: 0
UnicodeEnc: 0
InstructionsLength: 0
EndUndoOperation
EndUndoes
Redoes
EndRedoes
EndUndoRedoHistory
Fore
SplineSet
230.067323698 594.969726562 m 0xdc
 269.719559722 604.459960938 323.190337713 608.329101562 406.238318284 608.329101562 c 0xec
 497.477513734 608.329101562 557.401353327 599.920898438 600.865909084 583.767578125 c 1
 600.865909084 600 l 1
 755.865909084 600 l 1
 755.865909084 -200 l 1
 600.865909084 -200 l 1
 600.865909084 10.17578125 l 1
 554.017986588 -7.8662109375 494.055719956 -12.1962890625 405.910347974 -12.1962890625 c 0
 250.270116058 -12.1962890625 144.197265625 -8.189453125 84.6875 101.864257812 c 0
 58.3369140625 150.595703125 58 218.118164062 58 296.294921875 c 2
 58 296.294921875 58 301.109238916 58 301.237304688 c 2
 58 305.178710938 l 2
 58 400.73828125 59.16796875 559.27734375 230.067323698 594.969726562 c 0xdc
585.316363056 429.276367188 m 0
 573.652416231 444.825195312 541.698992795 464.443359375 406.238318284 464.443359375 c 0
 316.336026332 464.443359375 273.388895124 457.04296875 252.567695531 447.677734375 c 0
 236.455148699 440.430664062 232.313071352 433.157226562 224.234456633 420.045898438 c 0
 214.046823029 403.284179688 209.155865247 372.830078125 209.155865247 297.239257812 c 0
 209.155865247 210.76171875 210.889550264 200.635742188 223.903805367 176.844726562 c 0
 230.784032659 164.643554688 234.822446366 157.19140625 251.118191873 149.530273438 c 0
 272.179783872 139.627929688 315.704214318 131.328125 405.772725555 131.328125 c 0
 541.910788336 131.328125 579.568392938 147.55078125 590.502876031 163.368677543 c 0
 593.925807104 168.3203125 596.816771552 176.250976562 598.276999035 189.663085938 c 0
 600.081282566 206.232421875 600.726499361 230.362304688 600.865909084 260.750976562 c 2
 600.865909084 260.750976562 600.865909084 271.224609375 600.865909084 283.796875 c 0
 600.865909084 376.848632812 600.865909084 408.543945312 585.316363056 429.276367188 c 0
EndSplineSet
Validated: 1
EndChar

StartChar: c
Encoding: 99 99 76
Width: 794
Flags: W
HStem: -12.1963 143.524<245.87 557.238> 464.443 143.886<244.3 555.725>
VStem: 58 151.044<167.088 429.406>
LayerCount: 2
UndoRedoHistory
Layer: 1
Undoes
UndoOperation
Index: 0
Type: 1
WasModified: 0
WasOrder2: 0
Layer: 2
Width: 862
VWidth: 1000
LBearingChange: 0
UnicodeEnc: 0
InstructionsLength: 0
EndUndoOperation
EndUndoes
Redoes
EndRedoes
EndUndoRedoHistory
Fore
SplineSet
58 296.294921875 m 6
 58 305.111328125 l 6
 58 400.668945312 59.1494140625 559.276367188 230.037322387 594.97265625 c 4
 270.120808527 604.561523438 327.215400281 608.329101562 410.386741822 608.329101562 c 6
 415.460510656 608.329101562 l 6
 532.225039969 608.329101562 712.755131156 605.391837618 734.513651703 434.234375 c 6
 742.806620453 369 l 5
 589.806620453 369 l 5
 581.055223315 417.63671875 578.903897261 423.23828125 574.046507127 429.708007812 c 4
 565.595271606 440.969726562 533.241758657 464.443359375 410.386741822 464.443359375 c 4
 317.942281884 464.443359375 273.961307821 457.169921875 252.745509958 447.811523438 c 4
 214.155169452 430.79105274 209.044136354 386.028915306 209.044136354 297.239257812 c 4
 209.044136354 210.763671875 210.770713709 200.647460938 223.773915933 176.865234375 c 4
 236.447420576 154.402091575 249.465546539 131.328125 405.808952147 131.328125 c 4
 556.656620453 131.328125 568.851601333 156 575.788261078 179.515625 c 5
 589.806620453 231 l 5
 742.806620453 231 l 5
 740.806620453 217 733.806620453 186 725.590800141 156.678710938 c 4
 679.891581391 -6.4169921875 573.728617433 -12.1962890625 405.946081034 -12.1962890625 c 4
 250.229996277 -12.1962890625 144.20703125 -8.20703125 84.6875 101.864257812 c 4
 58.3369140625 150.595703125 58 218.118164062 58 296.294921875 c 6
EndSplineSet
Validated: 1
EndChar

StartChar: d
Encoding: 100 100 77
Width: 833
Flags: W
HStem: -12.1963 143.524<248.679 573.686> 0 21G<598.726 756.216> 464.443 143.886<248.22 566.131> 791 20G<598.726 756.216>
VStem: 58 150.998<167.088 429.453> 598.726 157.49<0 10.1758 154.26 436.012 583.768 811>
LayerCount: 2
UndoRedoHistory
Layer: 1
Undoes
UndoOperation
Index: 0
Type: 1
WasModified: 0
WasOrder2: 0
Layer: 2
Width: 902
VWidth: 1000
LBearingChange: 0
UnicodeEnc: 0
InstructionsLength: 0
EndUndoOperation
EndUndoes
Redoes
EndRedoes
EndUndoRedoHistory
Fore
SplineSet
58 296.294921875 m 6xbc
 58 305.178710938 l 6
 58 400.73828125 59.16796875 559.27734375 229.803820036 594.969726562 c 4
 269.255382996 604.459960938 322.455554688 608.329101562 405.083243885 608.329101562 c 4
 495.860693649 608.329101562 555.481269121 599.920898438 598.725858326 583.767578125 c 5
 598.725858326 811 l 5
 756.215740204 811 l 5
 756.215740204 0 l 5
 598.725858326 0 l 5x7c
 598.725858326 10.17578125 l 5
 552.115025012 -7.8662109375 492.456216974 -12.1962890625 404.756933376 -12.1962890625 c 4
 249.904369581 -12.1962890625 144.197265625 -8.189453125 84.6875 101.864257812 c 4
 58.3369140625 150.595703125 58 218.118164062 58 296.294921875 c 6xbc
583.255005844 429.276367188 m 4
 571.650088223 444.825195312 539.858375501 464.443359375 405.083243885 464.443359375 c 4
 315.635931783 464.443359375 272.90614853 457.04296875 252.190321404 447.677734375 c 4
 236.159317366 440.430664062 232.038202352 433.157226562 224.000472096 420.045898438 c 4
 213.864396333 403.284179688 208.998190836 372.830078125 208.998190836 297.239257812 c 4
 208.998190836 210.76171875 210.723101975 200.635742188 223.671494199 176.844726562 c 4
 230.516901858 164.643554688 234.534877856 157.19140625 250.748153431 149.530273438 c 4
 271.70315638 139.627929688 315.00731726 131.328125 404.62000744 131.328125 c 4xbc
 540.069099182 131.328125 577.536125202 147.55078125 591.27495351 167.52734375 c 4
 591.820878994 168.3203125 594.697212775 176.250976562 596.150050301 189.663085938 c 4
 597.945202667 206.232421875 598.587154132 230.362304688 598.725858326 260.750976562 c 6
 598.725858326 260.750976562 598.725858326 271.224609375 598.725858326 283.796875 c 4
 598.725858326 376.848632812 598.725858326 408.543945312 583.255005844 429.276367188 c 4
EndSplineSet
Validated: 1
EndChar

StartChar: e
Encoding: 101 101 78
Width: 801
Flags: W
HStem: -12.1963 143.524<245.293 551.393> 243.5 122.5<213.517 587.337> 464.443 143.886<239.137 561.798>
VStem: 57.9805 152.947<161.306 243.5 366 434.865> 587.337 156.65<366 432.871>
LayerCount: 2
UndoRedoHistory
Layer: 1
Undoes
UndoOperation
Index: 0
Type: 12
WasModified: 1
WasOrder2: 0
Layer: 0
HStem: -12.1963 143.524<244.165 551.329> 243.5 122.5<213.517 587.337> 464.443 143.886<239.298 561.404>
VStem: 57.9805 152.947<161.306 243.5 366 434.865> 587.337 156.65<366 439.879>
EndUndoOperation
EndUndoes
Redoes
EndRedoes
EndUndoRedoHistory
Fore
SplineSet
587.336621094 366 m 5
 587.092705078 382.813204946 586.277665385 438.994138054 543.872900391 453.149414062 c 4
 524.159375 459.729492188 485.388916016 464.443359375 408.937060546 464.443359375 c 4
 318.614599609 464.443359375 275.227246094 458.26171875 254.073535156 450.397460938 c 4
 236.946446561 444.030270969 213.516748046 431.194070119 213.516748046 366 c 5
 587.336621094 366 l 5
406.268253446 131.328125 m 4
 550.417105086 131.328125 571.606879297 152.396490582 584.139160156 204 c 5
 736.574902344 204 l 5
 735.574902344 196 731.925809702 177.7636069 722.827832032 148.053710938 c 4
 675.568066406 -6.275390625 572.132686226 -12.1962890625 406.40630829 -12.1962890625 c 4
 250.561094426 -12.1962890625 144.208007812 -8.208984375 84.6875 101.864257812 c 4
 58.3369140625 150.595703125 57.98046875 218.118164062 57.98046875 296.294921875 c 6
 57.98046875 305.102539062 l 6
 57.98046875 400.66015625 59.1376953125 559.276367188 231.831591796 594.97265625 c 4
 271.803173829 604.432617188 324.968847656 608.329101562 408.937060546 608.329101562 c 4
 627.749962932 608.329101562 743.987011719 582.637563296 743.987011719 315.377929688 c 4
 743.987011719 291.079101562 743.574902344 271 742.574902344 243.5 c 5
 210.927734375 243.5 l 5
 212.616785136 159.252993364 219.764887407 131.328125 406.268253446 131.328125 c 4
EndSplineSet
Validated: 1
EndChar

StartChar: z
Encoding: 122 122 79
Width: 712
Flags: W
HStem: 0 145<279 656.4> 455 145<69 424.8>
LayerCount: 2
UndoRedoHistory
Layer: 1
Undoes
UndoOperation
Index: 0
Type: 12
WasModified: 0
WasOrder2: 0
Layer: 0
CopiedFrom: Two Weekend Go Bold
EndUndoOperation
UndoOperation
Index: 1
Type: 1
WasModified: 0
WasOrder2: 0
Layer: 2
Width: 751
VWidth: 1000
LBearingChange: 0
UnicodeEnc: 0
InstructionsLength: 0
SplineSet
695 600 m 1
 695 455 l 1
 289 145 l 1
 695 145 l 1
 695 0 l 1
 69 0 l 1
 69 145 l 1
 451 455 l 1
 69 455 l 1
 69 600 l 1
 695 600 l 1
EndSplineSet
EndUndoOperation
UndoOperation
Index: 2
Type: 12
WasModified: 1
WasOrder2: 0
Layer: 0
HStem: 0 149<289.242 694.815> 451 149<69 450.845>
EndUndoOperation
EndUndoes
Redoes
EndRedoes
EndUndoRedoHistory
Fore
SplineSet
656.4 600 m 1
 656.4 455 l 1
 279 145 l 1
 656.4 145 l 1
 656.4 0 l 1
 69 0 l 1
 69 145 l 1
 424.8 455 l 1
 69 455 l 1
 69 600 l 1
 656.4 600 l 1
EndSplineSet
Validated: 524289
EndChar

StartChar: g
Encoding: 103 103 80
Width: 741
Flags: W
HStem: 221.069 134.444<230.876 499.02> 477.252 131.076<232.561 502.101>
VStem: 4.27148 163.271<177.748 241.858> 50.9199 159.113<377.108 454.733> 519.724 148.513<376.709 458.04> 558.071 156.813<-49.7319 20.2989>
LayerCount: 2
UndoRedoHistory
Layer: 1
Undoes
UndoOperation
Index: 0
Type: 12
WasModified: 0
WasOrder2: 0
Layer: 0
HStem: 221.069 134.444<230.876 499.02> 477.252 131.076<232.561 502.101>
VStem: 4.27148 163.271<177.748 241.858> 50.9199 159.113<377.108 454.733> 519.724 148.513<376.709 458.04> 558.071 156.813<-49.7319 20.2989>
EndUndoOperation
EndUndoes
Redoes
EndRedoes
EndUndoRedoHistory
Fore
SplineSet
714.884765625 -20.908203125 m 0xe4
 714.884765625 -147.994989475 653.665144942 -212.639648438 345.971679688 -212.639648438 c 0
 263.27734375 -212.639648438 211.592773438 -208.4296875 177.348632812 -200.1796875 c 0
 14.064453125 -166.415039062 -3.0615234375 -90.7275390625 4.271484375 -20.908203125 c 0xe4
 7.73046875 12.0302734375 15.7783203125 40.439453125 50.919921875 77.630859375 c 1xd0
 8.6767578125 109.004882812 4.271484375 151.275390625 4.271484375 186.17578125 c 0xe0
 4.271484375 234.259765625 40.3427734375 276.68359375 82.1962890625 307.090820312 c 1
 53.7724609375 343.94921875 50.919921875 386.03515625 50.919921875 420.08203125 c 0
 50.919921875 568.285475231 132.985795356 608.328125 370.75390625 608.328125 c 0
 476.300599736 608.328125 530.769836813 601.314336316 579.264648438 576.629882812 c 1
 635.291015625 655.870117188 754.536132812 640 754.536132812 640 c 1
 743.874023438 502.866210938 l 1
 706.887695312 502.866210938 677.43359375 495.415039062 659.502929688 486.713867188 c 1
 667.706100912 461.863052915 668.236328125 437.215921868 668.236328125 418.724609375 c 0xd8
 668.352539062 342.432617188 676.772460938 264.549804688 535.665039062 235.96875 c 0
 503.78125 229.20703125 446.986328125 221.069335938 370.75390625 221.069335938 c 0
 255.428735078 221.069335938 215.687009539 230.328613093 182.103515625 242.740234375 c 1
 173.7265625 230.516601562 167.541992188 216.08203125 167.541992188 200 c 0
 167.541992188 175.1796875 188.427734375 172.333984375 345.971679688 162.618164062 c 0
 407.818359375 158.802734375 496.669921875 151.908203125 535.672851562 148.90234375 c 0
 694.701171875 137.337890625 714.884765625 70.5673828125 714.884765625 -20.908203125 c 0xe4
210.033203125 418.724609375 m 0xd8
 210.081964851 371.840210177 251.430848097 355.513671875 367.94140625 355.513671875 c 0
 479.361226804 355.513671875 519.678077628 371.35104181 519.723632812 418.725585938 c 0
 519.675310773 461.362885181 481.866974907 477.251953125 367.94140625 477.251953125 c 0
 270.790602579 477.251953125 210.089259083 467.988130868 210.033203125 418.724609375 c 0xd8
198.145507812 49.66015625 m 1
 184.968447724 36.5255775634 145.901738549 -21.5678200153 188.427734375 -46.328125 c 0
 227.051576246 -68.8522981974 474.046137477 -68.5501604717 523.037109375 -55.103515625 c 0
 555.01171875 -46.328125 558.071289062 -29.7333984375 558.071289062 -10.9091796875 c 0xc4
 558.071289062 7.9140625 545.4609375 19.55859375 519.723632812 26.9248046875 c 0
 481.928069537 37.7409490762 311.983732798 38.9913673676 198.145507812 49.66015625 c 1
EndSplineSet
Validated: 33
EndChar

StartChar: a
Encoding: 97 97 81
Width: 738
Flags: W
HStem: -8.16602 132.135<221.327 481.115> 0 21G<533.911 688> 246.071 135.814<218.472 328.582> 484.104 125.009<246.89 510.278>
VStem: 40.5244 169.827<154.723 233.905> 533.911 154.089<0 52.7148 169.203 275.58>
LayerCount: 2
UndoRedoHistory
Layer: 1
Undoes
UndoOperation
Index: 0
Type: 12
WasModified: 0
WasOrder2: 0
Layer: 0
HStem: -8.16602 132.135<221.327 481.115> 0 21G<533.911 688.079> 246.071 135.814<218.472 328.582> 484.104 125.009<246.89 510.278>
VStem: 40.5244 169.827<154.723 233.905> 533.911 154.168<0 52.7148 169.203 275.58>
EndUndoOperation
EndUndoes
Redoes
EndRedoes
EndUndoRedoHistory
Fore
SplineSet
533.910986328 52.71484375 m 5x7c
 533.910986328 52.71484375 516.734179687 38.2568359375 510.603222657 33.431640625 c 4
 479.945117187 9.30078125 452.931054687 -8.166015625 349.254296875 -8.166015625 c 4xbc
 243.573730469 -8.166015625 121.302734375 -15.8291015625 68.412109375 70.52734375 c 4
 41.509765625 114.453125 40.5244140625 150.612304688 40.5244140625 195.293945312 c 4
 40.5244140625 220.084960938 46.35546875 257.32421875 68.412109375 294.17578125 c 4
 89.2431640625 328.982421875 121.744140625 354.624023438 179.629492187 369.618164062 c 4
 222.666552734 380.895507812 287.470751953 381.885742188 328.58203125 381.885742188 c 6
 328.58203125 381.885742188 449 382 449.003955078 381.885742188 c 6
 497.146826172 381.885742188 520.759765625 392.512695312 522.474609375 416.309570312 c 4
 525.32421875 455.849609375 511.936523438 466.149414062 492.815429688 474.286132812 c 4
 469.741210938 484.103515625 421.78125 484.103515625 367.4609375 484.103515625 c 4
 267.01953125 484.103515625 244.963867188 474.286132812 234.79296875 444.578125 c 4
 231.741210938 435.661132812 230.502929688 416.309570312 230.502929688 416.309570312 c 5
 64.427734375 416.309570312 l 5
 64.427734375 431.235351562 65.5185546875 453.336914062 69.791015625 474.286132812 c 4
 97.2861328125 609.112304688 243.478515625 609.112304688 367.4609375 609.112304688 c 4
 503.3203125 609.112304688 615.944335938 609.112304688 668.998046875 507.037109375 c 4
 682.06640625 481.89453125 688 450.15234375 688 301.685546875 c 5
 688 0 l 5
 533.910986328 0 l 5
 533.910986328 52.71484375 l 5x7c
410.023486328 251.323242188 m 6
 393.897558594 250.198242188 365.978710937 248.572265625 316.231298828 246.071289062 c 4
 256.996923828 243.09375 214.796582032 241.390625 210.351513672 206.645507812 c 4
 208.380908203 191.235351562 209.250830078 165.694335938 214.796582032 154.172851562 c 4
 220.221142578 142.904296875 226.430126953 132.46875 256.280566407 128.765625 c 4
 282.843896484 125.46875 314.102148437 123.96875 358.588525391 123.96875 c 4
 468.735742187 123.96875 480.331933594 134.43359375 503.320117187 158.205078125 c 4
 523.136572266 178.697265625 527.724414062 201.202148438 528.211669922 275.580078125 c 5
 512.87265625 266.077148438 502.644433594 261.145507812 477.543701172 257.124023438 c 4
 461.337255859 254.528320312 410.023486328 251.323242188 410.023486328 251.323242188 c 6
EndSplineSet
Validated: 33
EndChar

StartChar: j
Encoding: 106 106 82
Width: 392
VWidth: 800
Flags: W
HStem: -216.854 151<30.5825 167.963> 580 20G<177.155 332.155> 653 147<176.655 332.567>
VStem: 177.155 155<-58.133 600 653 800>
LayerCount: 2
UndoRedoHistory
Layer: 1
Undoes
UndoOperation
Index: 0
Type: 12
WasModified: 1
WasOrder2: 0
Layer: 0
HStem: -216.854 151<30.5825 167.963> 580 20G<177.155 332.155> 641 147<176.656 332.568>
VStem: 177.155 155<-58.133 600 641 788>
EndUndoOperation
EndUndoes
Redoes
EndRedoes
EndUndoRedoHistory
Fore
SplineSet
332.567382812 653 m 5
 176.655273438 653 l 5
 176.655273438 800 l 5
 332.567382812 800 l 5
 332.567382812 653 l 5
102.086914062 -65.8544921875 m 0
 157.105859375 -65 162.205859375 -57 166.455859375 -49 c 0
 166.456689453 -48.9990234375 171.440478516 -36.4619140625 172.749511719 -27.8642578125 c 0
 176.181884766 -5.314453125 177.154736328 54.95703125 177.154736328 127.78515625 c 2
 177.154736328 600 l 1
 332.154736328 600 l 1
 332.154736328 106 l 2
 332.154736328 -2.8134765625 329.122509766 -63.970703125 319.023876953 -92.6787109375 c 0
 283.089306641 -204.64453125 194.288525391 -216.854492188 107.086914062 -216.854492188 c 0
 90.4130859375 -216.854492188 69.9384765625 -214.294921875 15.0390625 -207.432617188 c 1
 28.8291015625 -55.7412109375 l 1
 66.615234375 -63.2275390625 79.8740234375 -66.1767578125 102.086914062 -65.8544921875 c 0
EndSplineSet
Validated: 33
EndChar

StartChar: i
Encoding: 105 105 83
Width: 309
VWidth: 800
Flags: W
HStem: 0 21G<74 229> 580 20G<74 229> 653 147<73 229>
VStem: 74 155<0 600 653 800>
LayerCount: 2
UndoRedoHistory
Layer: 1
Undoes
UndoOperation
Index: 0
Type: 12
WasModified: 1
WasOrder2: 0
Layer: 0
HStem: 0 21G<74 229> 580 20G<74 229> 641 147<73 229>
VStem: 74 155<0 600 641 788>
EndUndoOperation
EndUndoes
Redoes
EndRedoes
EndUndoRedoHistory
Fore
SplineSet
229 653 m 1
 73 653 l 1
 73 800 l 1
 229 800 l 1
 229 653 l 1
229 0 m 5
 74 0 l 5
 74 600 l 5
 229 600 l 5
 229 0 l 5
EndSplineSet
Validated: 1
EndChar

StartChar: l
Encoding: 108 108 84
Width: 304
Flags: W
HStem: 0 21G<72 227> 791 20G<72 227>
VStem: 72 155<0 811>
LayerCount: 2
UndoRedoHistory
Layer: 1
Undoes
UndoOperation
Index: 0
Type: 1
WasModified: 0
WasOrder2: 0
Layer: 2
Width: 304
VWidth: 1000
LBearingChange: 0
UnicodeEnc: 0
InstructionsLength: 0
EndUndoOperation
EndUndoes
Redoes
EndRedoes
EndUndoRedoHistory
Fore
SplineSet
227 0 m 5
 72 0 l 5
 72 811 l 5
 227 811 l 5
 227 0 l 5
EndSplineSet
Validated: 1
EndChar

StartChar: b
Encoding: 98 98 85
Width: 836
Flags: W
HStem: -12.1963 143.524<255.366 589> 0 21G<72 229.49> 464.443 143.886<262.594 584.751> 791 20G<72 229.49>
VStem: 72 157.49<0 10.1758 155.485 435.188 583.765 811> 619.218 150.998<160.872 431.068>
LayerCount: 2
UndoRedoHistory
Layer: 1
Undoes
UndoOperation
Index: 0
Type: 1
WasModified: 0
WasOrder2: 0
Layer: 2
Width: 905
VWidth: 1000
LBearingChange: 0
UnicodeEnc: 0
InstructionsLength: 0
EndUndoOperation
EndUndoes
Redoes
EndRedoes
EndUndoRedoHistory
Fore
SplineSet
229.489881877 10.17578125 m 1xbc
 229.489881877 0 l 1
 72 0 l 1x7c
 72 811 l 1
 229.489881877 811 l 1
 229.489881877 583.764648438 l 1
 273.777419932 600.30859375 334.072844659 608.329101562 423.132496319 608.329101562 c 0
 571.145876361 608.329101562 683.369060516 603.25390625 738.279216766 496.426757812 c 0
 770.176677704 434.370117188 770.215740204 378.6171875 770.215740204 297.122070312 c 0
 770.215740204 218.749023438 769.881755828 151.033203125 743.534099578 102.174804688 c 0
 684.036052704 -8.16015625 578.340711895 -12.1962890625 423.458806828 -12.1962890625 c 0
 335.755966713 -12.1962890625 276.098047804 -7.865234375 229.489881877 10.17578125 c 1xbc
541.720137114 456.758789062 m 0
 507.756281138 461.541992188 481.581199171 464.443359375 423.132496319 464.443359375 c 0
 246.004572338 464.443359375 239.171612491 431.575195312 233.324697209 398.364257812 c 0
 230.172733297 380.46875 229.657038215 355.921875 229.489881877 326.096679688 c 0
 229.489881877 231.78125 229.595688282 210.655273438 233.318473302 186.92578125 c 0
 235.030936629 176.010742188 237.844142218 169.345703125 238.45764154 168.2734375 c 0
 261.027303575 137.215820312 311.802819249 131.328125 423.595732764 131.328125 c 0xbc
 510.136480684 131.328125 554.404457891 137.77734375 576.858533097 146.689453125 c 0
 594.26324214 153.59765625 599.121445471 160.537109375 605.557853581 171.998046875 c 0
 617.517533854 194.111328125 619.217549368 210.80078125 619.217549368 297.239257812 c 0
 619.217549368 401.02734375 607.156508338 430.64453125 581.642938684 445.060546875 c 0
 572.147036126 450.42578125 559.16930263 454.302734375 541.720137114 456.758789062 c 0
EndSplineSet
Validated: 1
EndChar

StartChar: f
Encoding: 102 102 86
Width: 610
VWidth: 800
Flags: W
HStem: 0 21G<212.9 368.9> 451 149<47 212.9 368.9 530.586> 666.672 145.524<386.74 540.771>
VStem: 212.9 156<0 451 600 637.138>
LayerCount: 2
UndoRedoHistory
Layer: 1
Undoes
UndoOperation
Index: 0
Type: 1
WasModified: 0
WasOrder2: 0
Layer: 2
Width: 633
VWidth: 800
LBearingChange: 0
UnicodeEnc: 0
InstructionsLength: 0
EndUndoOperation
EndUndoes
Redoes
EndRedoes
EndUndoRedoHistory
Fore
SplineSet
47 451 m 1
 47 600 l 1
 212.9 600 l 1
 216.007421875 645.696289062 222.225195312 671.59765625 230.5953125 689.337890625 c 0
 285.7984375 806.337890625 378.490027043 812.196289062 462.92680664 812.196289062 c 0
 499.908251953 812.196289062 523.203173828 805.206054688 554.960986328 795.54296875 c 2
 570.01274414 790.963867188 l 1
 543.639697266 653.055664062 l 1
 481.627978516 666.60546875 472.153211691 669.047654507 438.6 666.671875 c 0
 404.6 664 382.692714264 645.507723163 378.9140625 637.538085938 c 0
 374.904785156 629.08203125 370.637353515 616.120117188 368.9 600 c 1
 530.585986328 600 l 1
 530.585986328 451 l 1
 368.9 451 l 1
 368.9 0 l 1
 212.9 0 l 1
 212.9 451.008789062 l 1
 47 451 l 1
EndSplineSet
Validated: 33
EndChar

StartChar: r
Encoding: 114 114 87
Width: 632
Flags: W
HStem: 0 21G<69 224> 472.386 135.614<261.709 563.914> 580 20G<69 224.12>
VStem: 69 155<0 435.607 546 600>
LayerCount: 2
UndoRedoHistory
Layer: 1
Undoes
UndoOperation
Index: 0
Type: 1
WasModified: 0
WasOrder2: 0
Layer: 2
Width: 700
VWidth: 1000
LBearingChange: 0
UnicodeEnc: 0
InstructionsLength: 0
EndUndoOperation
EndUndoes
Redoes
EndRedoes
EndUndoRedoHistory
Fore
SplineSet
563.9140625 608 m 0xd0
 564 472.385742188 l 0
 361.579638672 472.385742188 l 0xd0
 283.5 472.385742188 257.15 458 241.311207664 429.099368302 c 0
 225.534448124 400.311926233 224 364.081054688 224 293.225585938 c 2
 224 0 l 1
 69 0 l 1
 69 600 l 1
 224.120361328 600 l 5xb0
 224 546 l 5
 247.8 587 280.1 608 361.506591797 608 c 4
 563.9140625 608 l 0xd0
EndSplineSet
Validated: 1
EndChar

StartChar: t
Encoding: 116 116 88
Width: 588
Flags: W
HStem: -6 152<360.922 523.954> 451 149<48 191.29 351.888 527.1>
VStem: 191.299 160.589<157.683 451 600 747>
LayerCount: 2
UndoRedoHistory
Layer: 1
Undoes
UndoOperation
Index: 0
Type: 1
WasModified: 0
WasOrder2: 0
Layer: 2
Width: 602
VWidth: 1000
LBearingChange: 0
UnicodeEnc: 0
InstructionsLength: 0
EndUndoOperation
EndUndoes
Redoes
EndRedoes
EndUndoRedoHistory
Fore
SplineSet
526.100226251 0 m 1
 479.100226251 -5 450.474249689 -6 397.978497735 -6 c 0
 348.690167657 -6 236.770411274 3.99666383575 203.930762966 94.7626953125 c 0
 191.313503226 129.635742188 191.300125675 187.234375 191.299010879 230.3125 c 0
 191.292377844 451 l 1
 48 451 l 1
 48 600 l 1
 191.290482691 600 l 1
 191.287639961 704.499023438 l 0
 191.287639961 747 l 1
 351.888409845 747 l 1
 351.888409845 600 l 1
 527.100226251 600 l 1
 527.100226251 451 l 1
 351.888409845 451 l 1
 351.888409845 256.9453125 l 2
 351.888409845 186 352.700226251 170 363.376691095 157.075195312 c 0
 370.328595392 148.66015625 398.600226251 146 422.600226251 146 c 0
 444.109015314 146 481.100226251 147 526.100226251 154 c 1
 526.100226251 0 l 1
EndSplineSet
Validated: 1
EndChar

StartChar: v
Encoding: 118 118 89
Width: 757
Flags: W
HStem: 0 21G<320.4 497.26> 580 20G<42 213.056 583.738 753.81>
LayerCount: 2
UndoRedoHistory
Layer: 1
Undoes
UndoOperation
Index: 0
Type: 1
WasModified: 0
WasOrder2: 0
Layer: 2
Width: 841
VWidth: 1000
LBearingChange: 0
UnicodeEnc: 0
InstructionsLength: 0
EndUndoOperation
EndUndoes
Redoes
EndRedoes
EndUndoRedoHistory
Fore
SplineSet
329.99969702 0 m 1
 42 600 l 1
 203.811035156 600 l 1
 409.441374347 155.12890625 l 1
 591.943115234 600 l 1
 753.809765625 600 l 1
 488.413464456 0 l 1
 329.99969702 0 l 1
EndSplineSet
Validated: 1
EndChar

StartChar: w
Encoding: 119 119 90
Width: 1087
Flags: W
HStem: -0 21G<219.594 412.262 676.679 868.952> 580 20G<45 215.117 460.404 637.128 889.157 1059.78>
LayerCount: 2
UndoRedoHistory
Layer: 1
Undoes
UndoOperation
Index: 0
Type: 1
WasModified: 0
WasOrder2: 0
Layer: 2
Width: 1136
VWidth: 1000
LBearingChange: 0
UnicodeEnc: 0
InstructionsLength: 0
EndUndoOperation
EndUndoes
Redoes
EndRedoes
EndUndoRedoHistory
Fore
SplineSet
760.695117188 160.284179688 m 5
 895.278125 600 l 5
 1059.78496094 600 l 5
 862.371875 0 l 5
 682.436328125 -0 l 5
 551.603564453 454.4921875 l 5
 405.84765625 0 l 5
 225.614257812 -0 l 5
 45 600 l 5
 210.001953125 600 l 5
 321.658203125 163.426757812 l 5
 467.065087891 600 l 5
 631.239599609 600 l 5
 760.695117188 160.284179688 l 5
EndSplineSet
Validated: 1
EndChar

StartChar: x
Encoding: 120 120 91
Width: 764
Flags: W
HStem: 0 21G<43 249.759 520.241 728> 580 20G<59 262.981 507.923 712>
LayerCount: 2
UndoRedoHistory
Layer: 1
Undoes
UndoOperation
Index: 0
Type: 1
WasModified: 0
WasOrder2: 0
Layer: 2
Width: 817
VWidth: 1000
LBearingChange: 0
UnicodeEnc: 0
InstructionsLength: 0
EndUndoOperation
EndUndoes
Redoes
EndRedoes
EndUndoRedoHistory
Fore
SplineSet
385 232 m 1
 237 0 l 1
 43 0 l 1
 282 310 l 1
 59 600 l 1
 250 600 l 1
 385 392 l 1
 521 600 l 1
 712 600 l 1
 489 310 l 1
 728 0 l 1
 533 0 l 1
 385 232 l 1
EndSplineSet
Validated: 1
EndChar

StartChar: k
Encoding: 107 107 92
Width: 810
Flags: W
HStem: -0 21G<72 227 576.136 780.901> 580 20G<517.445 751> 791 20G<72 227>
VStem: 72 155<0 308 374.103 811>
LayerCount: 2
UndoRedoHistory
Layer: 1
Undoes
UndoOperation
Index: 0
Type: 1
WasModified: 0
WasOrder2: 0
Layer: 2
Width: 876
VWidth: 1000
LBearingChange: 0
UnicodeEnc: 0
InstructionsLength: 0
EndUndoOperation
EndUndoes
Redoes
EndRedoes
EndUndoRedoHistory
Fore
SplineSet
227 308 m 1
 227 0 l 1
 72 0 l 1
 72 811 l 1
 227 811 l 1
 227 374.102539062 l 1
 545.658042503 600 l 1
 751 600 l 1
 388.619052924 333.819335938 l 1
 780.901367188 0 l 1
 600.381591797 -0 l 1
 227 308 l 1
EndSplineSet
Validated: 1
EndChar

StartChar: s
Encoding: 115 115 93
Width: 816
Flags: MW
HStem: -10.7871 136.787<246.542 595.733> 474.033 134.887<236.745 577.243>
VStem: 53 156.394<157.712 237.264> 80 142<395.208 456.167> 604.447 150.015<139.034 200.955>
LayerCount: 2
UndoRedoHistory
Layer: 1
Undoes
UndoOperation
Index: 0
Type: 12
WasModified: 0
WasOrder2: 0
Layer: 0
HStem: -10.7871 136.787<246.542 595.733> 474.033 134.887<236.745 577.243>
VStem: 53 156.394<157.712 237.264> 68.0088 154.081<395.208 456.167> 604.447 150.015<139.034 200.955>
EndUndoOperation
EndUndoes
Redoes
EndRedoes
EndUndoRedoHistory
Fore
SplineSet
413.398535156 474.033203125 m 0xe8
 252.044705973 474.033203125 222.08984375 464.3203125 222.08984375 419 c 0
 222.08984375 392 246.848632812 385.244140625 441.831054688 356.241210938 c 0
 636.813476562 327.239257812 754.461474609 321.169217121 754.461474609 172.458007812 c 0
 754.461474609 -11 582.882066069 -10.787109375 413.154562455 -10.787109375 c 0
 241.81232701 -10.7972030102 54.8790734188 -10.8082150998 53 215.455078125 c 1
 53 237.263671875 l 1
 209.397460938 237.263671875 l 1
 209.393554688 216.166992188 l 0
 209.393554688 190.329101562 222.854101563 146.416015625 269.120996094 135.608398438 c 0
 294.913183594 129.583984375 354.711181641 126 413.0515625 126 c 0
 604.446826172 126 604.446826172 138.309944854 604.446826172 178.123629491 c 0
 604.446826172 202 586 213.502347418 383 244 c 0
 182.93669363 274.056459173 68.0087890625 301.022460938 68.0087890625 429.9921875 c 0
 68.0087890625 608.919921875 263.269047787 608.919921875 413.398047436 608.919921875 c 0
 566.901094644 608.919921875 741 600 741.28515625 410.0078125 c 1
 741.28515625 388 l 1
 595.2109375 388 l 1
 595.212890625 409 l 2
 595 460 567.800688767 474.033203125 413.398535156 474.033203125 c 0xe8
EndSplineSet
Validated: 33
EndChar

StartChar: u
Encoding: 117 117 94
Width: 808
Flags: W
HStem: -8.3291 143.886<247.999 516.469> 0 21G<584.052 733.052> 580 20G<64 216.002 584.052 733.052>
VStem: 64.0107 151.991<167.037 600> 584.052 149<0 43 197.613 600>
LayerCount: 2
UndoRedoHistory
Layer: 1
Undoes
UndoOperation
Index: 0
Type: 12
WasModified: 0
WasOrder2: 0
Layer: 0
HStem: -8.3291 143.886<247.999 540.085> 0 21G<584.052 733.052> 580 20G<64 216.002 584.052 733.052>
VStem: 64.0107 151.991<167.037 600> 584.052 149<0 18.0166 181.407 600>
EndUndoOperation
EndUndoes
Redoes
EndRedoes
EndUndoRedoHistory
Fore
SplineSet
216.001953125 311.541015625 m 6xb8
 216.001953125 152.886737663 222.473203947 135.556640625 380.684893952 135.556640625 c 4xb8
 543.244067383 135.556640625 584.051953125 179 584.051953125 311.541015625 c 6
 584.051953125 600 l 5
 733.051953125 600 l 5
 733.051953125 0 l 5
 584.051953125 0 l 5x78
 584.051757812 43 l 5
 521 0 475.508924282 -8.3591332864 380.684893952 -8.3291015625 c 4
 272.289711374 -8.3291015625 146.838867188 -7.6708984375 90.7470703125 104.569335938 c 4
 63.7587890625 158.5703125 64.013671875 212.921875 64.0107421875 297.375 c 6
 64 600 l 5
 216.001953125 600 l 5
 216.001953125 311.541015625 l 6xb8
EndSplineSet
Validated: 33
EndChar

StartChar: n
Encoding: 110 110 95
Width: 832
Flags: W
HStem: 0 21G<69 218 611.55 763.552> 463.443 144.886<283.879 580.509> 580 20G<69 218>
VStem: 69 149<0 411.054 546 600> 611.55 152.002<0 432.963>
LayerCount: 2
UndoRedoHistory
Layer: 1
Undoes
UndoOperation
Index: 0
Type: 12
WasModified: 0
WasOrder2: 0
Layer: 0
HStem: 0 21G<69 218 611.55 763.552> 464.443 143.886<283.879 579.571> 580 20G<69 218>
VStem: 69 149<0 431.494 546 600> 611.55 152.002<0 432.963>
EndUndoOperation
EndUndoes
Redoes
EndRedoes
EndUndoRedoHistory
Fore
SplineSet
437.629882812 608.329101562 m 0xd8
 579 608.311523438 684.059765625 600.971679688 736.804882812 495.430664062 c 0
 763.7921875 441.4296875 763.53828125 387.078125 763.541210937 302.625 c 2
 763.551953125 0 l 1
 611.55 0 l 1
 611.55 288.458984375 l 2
 611.55 414.267578125 607.18266705 444.844549808 540.116515657 457.545898438 c 0
 509.543727868 463.3359375 489.28125 463.443359375 429.629882812 463.443359375 c 0xd8
 310 463.443359375 261 446 241 414 c 0
 221.893554688 383.4296875 218 325.129882812 218 278.458984375 c 2
 218 0 l 1
 69 0 l 1
 69 600 l 1
 218 600 l 1xb8
 217.879882812 546 l 1
 234.715693196 575.003104638 313.000976562 608.344726562 437.629882812 608.329101562 c 0xd8
EndSplineSet
Validated: 33
EndChar

StartChar: m
Encoding: 109 109 96
Width: 1078
Flags: W
HStem: -0 21G<69 218 465.817 615.819 862.913 1012.91> 464.443 143.886<267.653 437.462 686.522 834.484> 580 20G<69 218>
VStem: 69 149<0 428.621 546 600> 465.817 150.002<0 430.515> 862.913 150.002<0 435.774>
LayerCount: 2
UndoRedoHistory
Layer: 1
Undoes
UndoOperation
Index: 0
Type: 12
WasModified: 0
WasOrder2: 0
Layer: 0
EndUndoOperation
EndUndoes
Redoes
EndRedoes
EndUndoRedoHistory
Fore
SplineSet
218 600 m 1xbc
 217.879882812 546 l 1
 232.208339216 575.003104638 284.3 608.329101562 390.235400391 608.329101562 c 0
 525.6971875 608.329101562 564.2675 571 594.211835937 522.866210938 c 1
 653.264941406 585.329101562 734.139453125 608.329101562 787.222119141 608.329101562 c 0
 922.664702148 608.329101562 960.95714911 570.825481898 991.179350586 522.866210938 c 0
 1004.95864746 501 1012.89867155 462.999999814 1012.90395996 313 c 2
 1012.91499511 -0 l 1
 862.913041992 -0 l 1
 862.913041992 288.458984375 l 2
 862.913041992 431.957883254 858.455202876 464.443359375 740.307882848 464.443359375 c 0
 615.808710937 464.443359375 615.808710937 412.330097947 615.808710937 288.451171875 c 2
 615.819453125 -0 l 1
 465.8175 -0 l 1
 465.8175 288.458984375 l 2
 465.8175 431.971038939 461.357727985 464.443359375 343.321518444 464.443359375 c 0xdc
 226.407813236 464.443359375 218 420.844987229 218 288.458984375 c 2
 218 0 l 1
 69 0 l 1
 69 600 l 1
 218 600 l 1xbc
EndSplineSet
Validated: 1
EndChar

StartChar: h
Encoding: 104 104 97
Width: 812
Flags: W
HStem: -0 21G<72 221 589.05 741.051> 464.443 143.886<261.208 558.303> 791 20G<72 221>
VStem: 72 149<0 429.833 580.625 811> 589.05 152.001<0 433.245>
LayerCount: 2
UndoRedoHistory
Layer: 1
Undoes
UndoOperation
Index: 0
Type: 12
WasModified: 0
WasOrder2: 0
Layer: 0
HStem: -0 21G<72 221 589.05 741.051> 464.443 143.886<261.984 553.838> 791 20G<72 221>
VStem: 72 149<0 429.833 580.625 811> 589.05 152.001<0 433.245>
CopiedFrom: Two Weekend Go Bold
EndUndoOperation
UndoOperation
Index: 1
Type: 1
WasModified: 0
WasOrder2: 0
Layer: 2
Width: 812
VWidth: 1000
LBearingChange: 0
UnicodeEnc: 0
InstructionsLength: 0
SplineSet
221 580.625 m 1
 283.688443895 608.26171875 344.351198886 608.329101562 415.970857574 608.329101562 c 0
 416.323483789 608.329101562 416.676959705 608.329101562 417.030435621 608.329101562 c 4
 524.143834612 608.329101562 658.058789062 607.869140625 714.270703125 495.4609375 c 0
 741.170117188 441.669921875 741.03828125 387.4921875 741.041210938 303.76953125 c 0
 741.050976562 -0 l 1
 589.05 -0 l 1
 589.05 288.704101562 l 2
 589.05 358.4296875 586.24598432 404.998046875 572.722131723 427.740234375 c 0
 560.47368141 448.338867188 531.868472961 464.443359375 417.030435621 464.443359375 c 0
 344.379239043 464.443359375 255.593906181 461.481445312 231.488718048 416.54296875 c 0
 222.493775626 399.775390625 221 346.263671875 221 288.704101562 c 2
 221 0 l 1
 72 0 l 1
 72 811 l 1
 221 811 l 1
 221 580.625 l 1
EndSplineSet
EndUndoOperation
UndoOperation
Index: 2
Type: 1
WasModified: 0
WasOrder2: 0
Layer: 2
Width: 877
VWidth: 1000
LBearingChange: 0
UnicodeEnc: 0
InstructionsLength: 0
EndUndoOperation
EndUndoes
Redoes
EndRedoes
EndUndoRedoHistory
Fore
SplineSet
221 580.625 m 5
 283.688443895 608.26171875 344.351198886 608.329101562 415.970857574 608.329101562 c 4
 523.243707186 608.329101562 657.869675278 608.247315626 714.270703125 495.4609375 c 4
 741.170117188 441.669921875 741.03828125 387.4921875 741.041210938 303.76953125 c 4
 741.050976562 -0 l 5
 589.05 -0 l 5
 589.05 288.704101562 l 6
 589.05 358.4296875 586.24598432 404.998046875 572.722131723 427.740234375 c 4
 560.47368141 448.338867188 531.868472961 464.443359375 417.030435621 464.443359375 c 4
 344.379239043 464.443359375 255.593906181 461.481445312 231.488718048 416.54296875 c 4
 222.493775626 399.775390625 221 346.263671875 221 288.704101562 c 6
 221 0 l 5
 72 0 l 5
 72 811 l 5
 221 811 l 5
 221 580.625 l 5
EndSplineSet
Validated: 524289
EndChar

StartChar: y
Encoding: 121 121 98
Width: 866
Flags: W
HStem: -200 149<170.622 350.738> 580 20G<58 249.055 625.1 814.745>
LayerCount: 2
UndoRedoHistory
Layer: 1
Undoes
UndoOperation
Index: 0
Type: 12
WasModified: 1
WasOrder2: 0
Layer: 0
HStem: -200 149<170.622 350.738> 580 20G<58 244.551 629.1 814.745>
EndUndoOperation
EndUndoes
Redoes
EndRedoes
EndUndoRedoHistory
Fore
SplineSet
459.711914062 -106.385742188 m 6
 423.421875 -182.852539062 399.440429688 -200 304.0703125 -200 c 6
 170.622070312 -200 l 5
 170.622070312 -51 l 5
 302.278320312 -51 l 6
 324.41796875 -51 348.317947333 -44.3807379765 359.235351562 -19 c 6
 373 13 l 5
 58 600 l 5
 238.95703125 600 l 5
 449 184 l 5
 633.994140625 600 l 5
 814.745117188 600 l 5
 459.711914062 -106.385742188 l 6
EndSplineSet
Validated: 1
EndChar

